/* XPM */
static char * desktop_xpm[] = {
"16 16 67 1",
" 	c None",
".	c #193761",
"+	c #244068",
"@	c #15335E",
"#	c #14325D",
"$	c #243E64",
"%	c #294266",
"&	c #2A4367",
"*	c #0C2A57",
"=	c #D9DEE4",
"-	c #546989",
";	c #5F7390",
">	c #536988",
",	c #596D8C",
"'	c #1A355F",
")	c #294265",
"!	c #294165",
"~	c #20457A",
"{	c #25497E",
"]	c #22467C",
"^	c #22467B",
"/	c #325280",
"(	c #345380",
"_	c #3773CD",
":	c #407BD3",
"<	c #3975CF",
"[	c #3774CE",
"}	c #3773CE",
"|	c #5185D5",
"1	c #588AD7",
"2	c #336FC8",
"3	c #9FC1F5",
"4	c #5488D6",
"5	c #3570C9",
"6	c #3671C9",
"7	c #4178CC",
"8	c #5788D2",
"9	c #5687D2",
"0	c #3370C9",
"a	c #76A1E3",
"b	c #477ED0",
"c	c #3672CD",
"d	c #767E8C",
"e	c #4B78BB",
"f	c #3571C9",
"g	c #487ECE",
"h	c #326FC9",
"i	c #A7B4C6",
"j	c #5583C9",
"k	c #3C75CB",
"l	c #336FC9",
"m	c #3872CA",
"n	c #5285D1",
"o	c #4C81CF",
"p	c #3F79D0",
"q	c #5A8BD8",
"r	c #214479",
"s	c #1F4379",
"t	c #32517E",
"u	c #33527F",
"v	c #1A3760",
"w	c #193660",
"x	c #213C62",
"y	c #1A3862",
"z	c #1A3761",
"A	c #1C3962",
"B	c #2A4368",
"                ",
" .+@#@##$%%%%%& ",
" *=-;>;,')!!!!! ",
" ~{~{]^]^/((((( ",
" _:<[[[[}|11111 ",
" 23456666789999 ",
" 0ab66666599999 ",
" cdef66665g9999 ",
" hijf66666k9999 ",
" 6l5666666mn999 ",
" 666666666fo999 ",
" [[[[[[[[[[pq11 ",
" rrrrrrrrrrstuu ",
" vvvvvvvvvvwx)! ",
" yzzzzzzzzzzA%B ",
"                "};
