<?xml version="1.0" encoding="UTF-8" standalone="no"?>
<!-- Created with Inkscape (http://www.inkscape.org/) -->

<svg
   xmlns:dc="http://purl.org/dc/elements/1.1/"
   xmlns:cc="http://creativecommons.org/ns#"
   xmlns:rdf="http://www.w3.org/1999/02/22-rdf-syntax-ns#"
   xmlns:svg="http://www.w3.org/2000/svg"
   xmlns="http://www.w3.org/2000/svg"
   xmlns:xlink="http://www.w3.org/1999/xlink"
   xmlns:sodipodi="http://sodipodi.sourceforge.net/DTD/sodipodi-0.dtd"
   xmlns:inkscape="http://www.inkscape.org/namespaces/inkscape"
   id="svg7384"
   version="1.1"
   inkscape:version="0.48.4 r9939"
   height="16"
   sodipodi:docname="folder-pictures.svg"
   width="16.000002">
  <metadata
     id="metadata90">
    <rdf:RDF>
      <cc:Work
         rdf:about="">
        <dc:format>image/svg+xml</dc:format>
        <dc:type
           rdf:resource="http://purl.org/dc/dcmitype/StillImage" />
        <dc:title>Gnome Symbolic Icon Theme</dc:title>
      </cc:Work>
    </rdf:RDF>
  </metadata>
  <sodipodi:namedview
     inkscape:cy="7.1175347"
     inkscape:current-layer="layer13"
     inkscape:window-width="1920"
     pagecolor="#555753"
     showborder="true"
     showguides="true"
     inkscape:snap-nodes="true"
     objecttolerance="10"
     showgrid="true"
     inkscape:object-nodes="true"
     inkscape:pageshadow="2"
     inkscape:guide-bbox="true"
     inkscape:window-x="0"
     inkscape:snap-bbox="true"
     bordercolor="#a0a0a0"
     id="namedview88"
     inkscape:window-maximized="1"
     inkscape:snap-global="true"
     inkscape:window-y="25"
     gridtolerance="10"
     inkscape:zoom="38.141077"
     inkscape:window-height="1005"
     borderopacity="1"
     guidetolerance="10"
     inkscape:cx="6.9605123"
     inkscape:bbox-paths="false"
     inkscape:snap-grids="true"
     inkscape:pageopacity="1"
     inkscape:snap-to-guides="true">
    <inkscape:grid
       visible="true"
       spacingx="1px"
       type="xygrid"
       spacingy="1px"
       id="grid4866"
       empspacing="2"
       enabled="true"
       snapvisiblegridlinesonly="true" />
  </sodipodi:namedview>
  <title
     id="title9167">Gnome Symbolic Icon Theme</title>
  <defs
     id="defs7386">
    <radialGradient
       inkscape:collect="always"
       xlink:href="#StandardGradient"
       id="radialGradient3831"
       cx="9"
       cy="10.333333"
       fx="9"
       fy="10.333333"
       r="7"
       gradientTransform="matrix(1.5714286,0,0,0.99999996,-5.1428571,-0.33333287)"
       gradientUnits="userSpaceOnUse" />
    <linearGradient
       id="StandardGradient"
       gradientTransform="scale(0.9219544,1.0846523)"
       x1="11.998966"
       y1="0.92195445"
       x2="11.998966"
       y2="19.387045"
       gradientUnits="userSpaceOnUse">
      <stop
         style="stop-color:#000000;stop-opacity:0.23529412;"
         offset="0"
         id="stop3283" />
      <stop
         id="stop3846"
         offset="0.69999999"
         style="stop-color:#000000;stop-opacity:0.39215686;" />
      <stop
         style="stop-color:#000000;stop-opacity:0.54901963;"
         offset="1"
         id="stop2651" />
    </linearGradient>
  </defs>
  <g
     transform="translate(-482,-176)"
     inkscape:groupmode="layer"
     id="layer9"
     inkscape:label="status"
     style="display:inline" />
  <g
     transform="translate(-482,-176)"
     inkscape:groupmode="layer"
     id="layer10"
     inkscape:label="devices" />
  <g
     transform="translate(-482,-176)"
     inkscape:groupmode="layer"
     id="layer11"
     inkscape:label="apps" />
  <g
     transform="translate(-482,-176)"
     inkscape:groupmode="layer"
     id="layer12"
     inkscape:label="actions" />
  <g
     transform="translate(-482,-176)"
     inkscape:groupmode="layer"
     id="layer13"
     inkscape:label="places">
    <g
       transform="translate(254.0002,-820)"
       id="g40072"
       inkscape:label="folder-remote" />
    <path
       style="color:#000000;fill:#b3b3b3;fill-opacity:1;fill-rule:nonzero;stroke:none;stroke-width:1;marker:none;visibility:visible;display:inline;overflow:visible;enable-background:accumulate"
       d="m 485.1875,178.30769 c -0.24238,0 -0.43749,0.19513 -0.43749,0.4375 l 0,0.43749 -0.43752,0 c -0.72711,0 -1.31249,0.58538 -1.31249,1.31251 l 0,7.87501 c 0,0.72711 0.58538,1.31249 1.31249,1.31249 l 11.37502,0 c 0.72711,0 1.31249,-0.58538 1.31249,-1.31249 l 0,-7.87501 c 0,-0.72713 -0.58538,-1.31251 -1.31249,-1.31251 l -8.3125,0 0,-0.43749 c 0,-0.24237 -0.19513,-0.4375 -0.43752,-0.4375 z m 0,1.75001 1.74999,0 c 0.24239,0 0.43752,0.19511 0.43752,0.43749 l 0,0.875 c 0,0.24238 -0.19513,0.4375 -0.43752,0.4375 l -1.74999,0 c -0.24238,0 -0.43749,-0.19512 -0.43749,-0.4375 l 0,-0.875 c 0,-0.24238 0.19511,-0.43749 0.43749,-0.43749 z m 3.5,0 c 0.24162,0 0.4375,0.19588 0.4375,0.43749 0,0.24162 -0.19588,0.4375 -0.4375,0.4375 -0.24162,0 -0.4375,-0.19588 -0.4375,-0.4375 0,-0.24161 0.19588,-0.43749 0.4375,-0.43749 z m 3.93749,0.87499 c 1.93301,0 3.50002,1.567 3.50002,3.5 0,1.93299 -1.56701,3.49999 -3.50002,3.49999 -1.93299,0 -3.49999,-1.567 -3.49999,-3.49999 0,-1.933 1.567,-3.5 3.49999,-3.5 z m 0,1.75001 c -0.96649,0 -1.74999,0.78349 -1.74999,1.74999 0,0.96649 0.7835,1.75 1.74999,1.75 0.96652,0 1.75001,-0.78351 1.75001,-1.75 0,-0.9665 -0.78349,-1.74999 -1.75001,-1.74999 z"
       id="rect2997"
       inkscape:connector-curvature="0"
       sodipodi:nodetypes="sscsssssssscsssssssssssssssssssssssssss" />
  </g>
  <g
     transform="translate(-482,-176)"
     inkscape:groupmode="layer"
     id="layer14"
     inkscape:label="mimetypes" />
  <g
     transform="translate(-482,-176)"
     inkscape:groupmode="layer"
     id="layer15"
     inkscape:label="emblems"
     style="display:inline" />
</svg>
