<?xml version="1.0" encoding="UTF-8" standalone="no"?>
<!-- Created with Inkscape (http://www.inkscape.org/) -->

<svg
   xmlns:dc="http://purl.org/dc/elements/1.1/"
   xmlns:cc="http://creativecommons.org/ns#"
   xmlns:rdf="http://www.w3.org/1999/02/22-rdf-syntax-ns#"
   xmlns:svg="http://www.w3.org/2000/svg"
   xmlns="http://www.w3.org/2000/svg"
   xmlns:xlink="http://www.w3.org/1999/xlink"
   xmlns:sodipodi="http://sodipodi.sourceforge.net/DTD/sodipodi-0.dtd"
   xmlns:inkscape="http://www.inkscape.org/namespaces/inkscape"
   id="svg7384"
   version="1.1"
   inkscape:version="0.48.4 r9939"
   height="16"
   sodipodi:docname="folder-videos.svg"
   width="16.000002">
  <metadata
     id="metadata90">
    <rdf:RDF>
      <cc:Work
         rdf:about="">
        <dc:format>image/svg+xml</dc:format>
        <dc:type
           rdf:resource="http://purl.org/dc/dcmitype/StillImage" />
        <dc:title>Gnome Symbolic Icon Theme</dc:title>
      </cc:Work>
    </rdf:RDF>
  </metadata>
  <sodipodi:namedview
     inkscape:cy="7.4007901"
     inkscape:current-layer="layer13"
     inkscape:window-width="1920"
     pagecolor="#555753"
     showborder="true"
     showguides="true"
     inkscape:snap-nodes="true"
     objecttolerance="10"
     showgrid="true"
     inkscape:object-nodes="true"
     inkscape:pageshadow="2"
     inkscape:guide-bbox="true"
     inkscape:window-x="0"
     inkscape:snap-bbox="true"
     bordercolor="#a0a0a0"
     id="namedview88"
     inkscape:window-maximized="1"
     inkscape:snap-global="true"
     inkscape:window-y="25"
     gridtolerance="10"
     inkscape:zoom="30.512862"
     inkscape:window-height="1005"
     borderopacity="1"
     guidetolerance="10"
     inkscape:cx="4.3571797"
     inkscape:bbox-paths="false"
     inkscape:snap-grids="true"
     inkscape:pageopacity="1"
     inkscape:snap-to-guides="true">
    <inkscape:grid
       visible="true"
       spacingx="1px"
       type="xygrid"
       spacingy="1px"
       id="grid4866"
       empspacing="2"
       enabled="true"
       snapvisiblegridlinesonly="true" />
  </sodipodi:namedview>
  <title
     id="title9167">Gnome Symbolic Icon Theme</title>
  <defs
     id="defs7386">
    <radialGradient
       inkscape:collect="always"
       xlink:href="#StandardGradient"
       id="radialGradient3831"
       cx="9"
       cy="10.333333"
       fx="9"
       fy="10.333333"
       r="7"
       gradientTransform="matrix(1.5714286,0,0,0.99999996,-5.1428571,-0.33333287)"
       gradientUnits="userSpaceOnUse" />
    <linearGradient
       id="StandardGradient"
       gradientTransform="scale(0.9219544,1.0846523)"
       x1="11.998966"
       y1="0.92195445"
       x2="11.998966"
       y2="19.387045"
       gradientUnits="userSpaceOnUse">
      <stop
         style="stop-color:#000000;stop-opacity:0.23529412;"
         offset="0"
         id="stop3283" />
      <stop
         id="stop3846"
         offset="0.69999999"
         style="stop-color:#000000;stop-opacity:0.39215686;" />
      <stop
         style="stop-color:#000000;stop-opacity:0.54901963;"
         offset="1"
         id="stop2651" />
    </linearGradient>
  </defs>
  <g
     transform="translate(-482,-176)"
     inkscape:groupmode="layer"
     id="layer9"
     inkscape:label="status"
     style="display:inline" />
  <g
     transform="translate(-482,-176)"
     inkscape:groupmode="layer"
     id="layer10"
     inkscape:label="devices" />
  <g
     transform="translate(-482,-176)"
     inkscape:groupmode="layer"
     id="layer11"
     inkscape:label="apps" />
  <g
     transform="translate(-482,-176)"
     inkscape:groupmode="layer"
     id="layer12"
     inkscape:label="actions" />
  <g
     transform="translate(-482,-176)"
     inkscape:groupmode="layer"
     id="layer13"
     inkscape:label="places">
    <g
       transform="translate(254.0002,-820)"
       id="g40072"
       inkscape:label="folder-remote" />
    <path
       style="color:#000000;fill:#b3b3b3;fill-opacity:1;fill-rule:nonzero;stroke:none;stroke-width:1;marker:none;visibility:visible;display:inline;overflow:visible;enable-background:accumulate"
       d="m 486.50097,177.87649 c -1.93253,0 -3.49915,1.56662 -3.49915,3.49915 0,1.29399 0.70526,2.40165 1.74957,3.00708 l 0,0.49207 -0.43739,0 c -0.24231,0 -0.43739,0.19507 -0.43739,0.43739 l 0,0.87479 c 0,0.24231 0.19508,0.43739 0.43739,0.43739 l 0.43739,0 0,2.62436 c 0,0.48463 0.39016,0.87479 0.87479,0.87479 l 7.87308,0 c 0.48463,0 0.87479,-0.39016 0.87479,-0.87479 l 0,-1.88626 2.24164,1.66756 a 0.23525121,0.23525121 0 0 0 0.0547,0.0273 0.23525121,0.23525121 0 0 0 0.13669,0 0.23525121,0.23525121 0 0 0 0.19136,-0.2187 l 0,-5.30339 a 0.23525121,0.23525121 0 0 0 0,-0.0547 0.23525121,0.23525121 0 0 0 -0.0547,-0.082 0.23525121,0.23525121 0 0 0 -0.0547,-0.0547 0.23525121,0.23525121 0 0 0 -0.16402,-0.0547 0.23525121,0.23525121 0 0 0 -0.10935,0.0547 l -2.24164,1.66756 0,-1.01147 c 0,-0.0903 -0.0295,-0.16423 -0.0547,-0.24603 0.5765,-0.62381 0.92946,-1.46195 0.92946,-2.37833 0,-1.93253 -1.56662,-3.49915 -3.49914,-3.49915 -1.04418,0 -1.98324,0.45018 -2.62436,1.1755 -0.64113,-0.72532 -1.58019,-1.1755 -2.62436,-1.1755 z m 0,2.1323 c 0.76042,0 1.36685,0.60642 1.36685,1.36685 0,0.76043 -0.60643,1.36685 -1.36685,1.36685 -0.76043,0 -1.36686,-0.60642 -1.36686,-1.36685 0,-0.76043 0.60643,-1.36685 1.36686,-1.36685 z m 5.24872,0 c 0.76042,0 1.36685,0.60642 1.36685,1.36685 0,0.76043 -0.60643,1.36685 -1.36685,1.36685 -0.76043,0 -1.36686,-0.60642 -1.36686,-1.36685 0,-0.76043 0.60643,-1.36685 1.36686,-1.36685 z"
       id="rect3057"
       inkscape:connector-curvature="0" />
  </g>
  <g
     transform="translate(-482,-176)"
     inkscape:groupmode="layer"
     id="layer14"
     inkscape:label="mimetypes" />
  <g
     transform="translate(-482,-176)"
     inkscape:groupmode="layer"
     id="layer15"
     inkscape:label="emblems"
     style="display:inline" />
</svg>
