<?xml version="1.0" encoding="UTF-8" standalone="no"?>
<!-- Created with Inkscape (http://www.inkscape.org/) -->

<svg
   xmlns:dc="http://purl.org/dc/elements/1.1/"
   xmlns:cc="http://creativecommons.org/ns#"
   xmlns:rdf="http://www.w3.org/1999/02/22-rdf-syntax-ns#"
   xmlns:svg="http://www.w3.org/2000/svg"
   xmlns="http://www.w3.org/2000/svg"
   xmlns:xlink="http://www.w3.org/1999/xlink"
   xmlns:sodipodi="http://sodipodi.sourceforge.net/DTD/sodipodi-0.dtd"
   xmlns:inkscape="http://www.inkscape.org/namespaces/inkscape"
   version="1.0"
   width="96"
   height="96"
   id="svg2"
   style="display:inline"
   inkscape:version="0.48.4 r9939"
   sodipodi:docname="audio-volume-zero-panel.svg">
  <sodipodi:namedview
     pagecolor="#ffffff"
     bordercolor="#666666"
     borderopacity="1"
     objecttolerance="10"
     gridtolerance="10"
     guidetolerance="10"
     inkscape:pageopacity="0"
     inkscape:pageshadow="2"
     inkscape:window-width="1920"
     inkscape:window-height="1005"
     id="namedview22"
     showgrid="false"
     inkscape:zoom="2.4583333"
     inkscape:cx="-5.4915254"
     inkscape:cy="47.59322"
     inkscape:window-x="0"
     inkscape:window-y="25"
     inkscape:window-maximized="1"
     inkscape:current-layer="svg2" />
  <defs
     id="defs4">
    <linearGradient
       id="linearGradient4081">
      <stop
         id="stop4083"
         style="stop-color:#aaaaaa;stop-opacity:1"
         offset="0" />
      <stop
         id="stop4085"
         style="stop-color:#f0f0f0;stop-opacity:1"
         offset="1" />
    </linearGradient>
    <linearGradient
       x1="4.882854"
       y1="-33.967701"
       x2="4.882854"
       y2="-43.829292"
       id="linearGradient2955"
       xlink:href="#linearGradient4081"
       gradientUnits="userSpaceOnUse"
       gradientTransform="matrix(4.4444444,0,0,4.4444444,3.555556,147.04167)" />
    <linearGradient
       id="linearGradient4081-7">
      <stop
         id="stop4083-8"
         style="stop-color:#aaaaaa;stop-opacity:1"
         offset="0" />
      <stop
         id="stop4085-6"
         style="stop-color:#f0f0f0;stop-opacity:1"
         offset="1" />
    </linearGradient>
    <linearGradient
       x1="16.5"
       y1="19.542921"
       x2="16.5"
       y2="2.5"
       id="linearGradient2993"
       xlink:href="#linearGradient4081-7"
       gradientUnits="userSpaceOnUse"
       gradientTransform="matrix(4.4444444,0,0,4.4444444,3.555556,-0.958333)" />
    <linearGradient
       gradientTransform="matrix(4.4444444,0,0,4.4444444,3.555556,-0.958333)"
       gradientUnits="userSpaceOnUse"
       xlink:href="#linearGradient4081-7-1"
       id="linearGradient2993-4"
       y2="2.5"
       x2="16.5"
       y1="19.542921"
       x1="16.5" />
    <linearGradient
       id="linearGradient4081-7-1">
      <stop
         offset="0"
         style="stop-color:#aaaaaa;stop-opacity:1"
         id="stop4083-8-6" />
      <stop
         offset="1"
         style="stop-color:#f0f0f0;stop-opacity:1"
         id="stop4085-6-7" />
    </linearGradient>
    <linearGradient
       gradientTransform="matrix(4.4444444,0,0,4.4444444,3.555556,147.04167)"
       gradientUnits="userSpaceOnUse"
       xlink:href="#linearGradient4081-4"
       id="linearGradient2955-0"
       y2="-43.829292"
       x2="4.882854"
       y1="-33.967701"
       x1="4.882854" />
    <linearGradient
       id="linearGradient4081-4">
      <stop
         offset="0"
         style="stop-color:#aaaaaa;stop-opacity:1"
         id="stop4083-1" />
      <stop
         offset="1"
         style="stop-color:#f0f0f0;stop-opacity:1"
         id="stop4085-4" />
    </linearGradient>
  </defs>
  <metadata
     id="metadata7">
    <rdf:RDF>
      <cc:Work
         rdf:about="">
        <dc:format>image/svg+xml</dc:format>
        <dc:type
           rdf:resource="http://purl.org/dc/dcmitype/StillImage" />
      </cc:Work>
    </rdf:RDF>
  </metadata>
  <g
     style="display:inline"
     id="g3032">
    <g
       transform="translate(-124.47458,-4.4745765)"
       id="g3036">
      <path
         inkscape:connector-curvature="0"
         style="opacity:0.3;fill:#ffffff;fill-opacity:1;fill-rule:nonzero;stroke:none;display:inline"
         d="m 197.83864,12.738639 -6.39844,6.69375 c 8.41932,8.419311 13.55157,20.132972 13.55157,32.976563 0,12.99221 -5.25524,24.797767 -13.84688,33.239062 l 6.5625,6.5625 c 10.30801,-10.158185 16.76719,-24.197167 16.76719,-39.801562 0,-15.5302 -6.41406,-29.522987 -16.63594,-39.670313 z"
         id="path3034" />
      <path
         inkscape:connector-curvature="0"
         style="opacity:0.3;fill:#ffffff;fill-opacity:1;fill-rule:nonzero;stroke:none;display:inline"
         d="m 187.14177,23.435514 -6.69375,6.69375 c 5.47276,5.836842 8.89219,13.620261 8.89219,22.246875 0,8.696111 -3.47152,16.558599 -9.02344,22.410937 l 6.62812,6.628125 c 7.2465,-7.546587 11.71406,-17.757381 11.71406,-29.039063 0,-11.204294 -4.36226,-21.403966 -11.51718,-28.940625 z"
         id="path3032" />
      <path
         inkscape:connector-curvature="0"
         style="fill:#cdcdcd;fill-opacity:1;fill-rule:nonzero;stroke:none;display:inline"
         d="m 154.26364,29.374577 c -0.2551,-3.7e-5 -0.3372,0.04348 -0.59062,0.13125 -0.33074,0.127993 -0.72699,0.32146 -1.01719,0.590625 l -8.4,7.678125 -9.25312,0 c -2.54462,0 -4.52813,1.995774 -4.52813,4.626562 l 0,19.982813 c 0,2.630787 1.98351,4.757812 4.52812,4.757812 l 9.38438,0 8.26875,7.74375 c 1.04968,0.91127 2.29596,0.908102 3.34687,0 1.05092,-0.908113 1.77869,-2.650069 1.77188,-4.462501 l 0,-8.104687 0,-19.654688 0,-8.071875 c 0.0151,-1.553028 -0.50247,-3.093729 -1.3125,-4.06875 -0.60753,-0.731267 -1.43313,-1.148321 -2.19844,-1.148437 z"
         id="path3030" />
      <path
         inkscape:connector-curvature="0"
         style="opacity:0.3;fill:#ffffff;fill-opacity:1;fill-rule:nonzero;stroke:none;display:inline"
         d="m 176.31364,34.263639 -6.75937,6.759375 c 2.48615,3.148985 4.03594,7.062942 4.03594,11.385938 0,4.390627 -1.5485,8.381205 -4.10157,11.549999 l 6.69375,6.726562 c 4.21541,-4.909288 6.75938,-11.307105 6.75938,-18.276561 0,-6.903471 -2.48773,-13.255646 -6.62813,-18.145314 z"
         id="path3798-4" />
    </g>
  </g>
</svg>
