<?xml version="1.0" encoding="UTF-8" standalone="no"?>
<!-- Created with Inkscape (http://www.inkscape.org/) -->

<svg
   xmlns:dc="http://purl.org/dc/elements/1.1/"
   xmlns:cc="http://creativecommons.org/ns#"
   xmlns:rdf="http://www.w3.org/1999/02/22-rdf-syntax-ns#"
   xmlns:svg="http://www.w3.org/2000/svg"
   xmlns="http://www.w3.org/2000/svg"
   xmlns:xlink="http://www.w3.org/1999/xlink"
   xmlns:sodipodi="http://sodipodi.sourceforge.net/DTD/sodipodi-0.dtd"
   xmlns:inkscape="http://www.inkscape.org/namespaces/inkscape"
   width="16"
   height="16"
   id="svg2"
   sodipodi:version="0.32"
   inkscape:version="0.48.4 r9939"
   version="1.0"
   sodipodi:docname="user-idle-symbolic.svg"
   inkscape:output_extension="org.inkscape.output.svg.inkscape">
  <defs
     id="defs4">
    <linearGradient
       id="StandardGradient"
       gradientTransform="scale(1.1389662,0.8779892)"
       x1="6.4706173"
       y1="7.6491265"
       x2="6.4706173"
       y2="18.248226"
       gradientUnits="userSpaceOnUse">
      <stop
         style="stop-color:#000000;stop-opacity:0.86274511;"
         offset="0"
         id="stop3283" />
      <stop
         style="stop-color:#000000;stop-opacity:0.47058824;"
         offset="1"
         id="stop3285" />
    </linearGradient>
    <linearGradient
       y2="18"
       x2="9"
       y1="5"
       x1="9"
       gradientTransform="translate(-3,-3)"
       gradientUnits="userSpaceOnUse"
       id="linearGradient5712"
       xlink:href="#StandardGradient-3"
       inkscape:collect="always" />
    <linearGradient
       y2="18"
       x2="9"
       y1="5"
       x1="9"
       gradientTransform="translate(-3,-3)"
       gradientUnits="userSpaceOnUse"
       id="linearGradient5708"
       xlink:href="#StandardGradient-3"
       inkscape:collect="always" />
    <clipPath
       id="clipPath3658"
       clipPathUnits="userSpaceOnUse">
      <path
         id="path3660"
         d="m -19.535739,2.999982 0,16 16.0000003,0 0,-16 -16.0000003,0 z m 8,2 c 3.8659933,0 7.0000003,2.4101491 7.0000003,6 0,1.485565 -0.534328,2.342799 -1.4375,3.4375 l 1.4375,3.5625 -4.03125,-1.625 c -0.903657,0.395035 -1.9037933,0.625 -2.9687503,0.625 -3.865993,0 -7,-2.410149 -7,-6 0,-3.5898509 3.134007,-6 7,-6 z m 0,2 c -2.761423,0 -5,1.7908611 -5,4 0,2.209139 2.238577,4 5,4 2.7614243,0 5.0000003,-1.790861 5.0000003,-4 0,-2.2091389 -2.238576,-4 -5.0000003,-4 z"
         style="fill:#ff00ff;fill-opacity:1;stroke:none;display:inline" />
    </clipPath>
    <linearGradient
       y2="18"
       x2="9"
       y1="5"
       x1="9"
       gradientTransform="translate(-22.535739,-1.8e-5)"
       gradientUnits="userSpaceOnUse"
       id="linearGradient3651"
       xlink:href="#StandardGradient-3"
       inkscape:collect="always" />
    <linearGradient
       y2="18"
       x2="9"
       y1="5"
       x1="9"
       gradientTransform="translate(-2.5357387,-1.8e-5)"
       gradientUnits="userSpaceOnUse"
       id="linearGradient3646"
       xlink:href="#StandardGradient-3"
       inkscape:collect="always" />
    <linearGradient
       y2="18"
       x2="9"
       y1="5"
       x1="9"
       gradientTransform="translate(-3,-2)"
       gradientUnits="userSpaceOnUse"
       id="linearGradient3642"
       xlink:href="#StandardGradient-3"
       inkscape:collect="always" />
    <linearGradient
       y2="18"
       x2="9"
       y1="5"
       x1="9"
       gradientTransform="translate(-3,-3)"
       gradientUnits="userSpaceOnUse"
       id="linearGradient2865"
       xlink:href="#StandardGradient-3"
       inkscape:collect="always" />
    <linearGradient
       y2="18"
       x2="9"
       y1="5"
       x1="9"
       gradientTransform="translate(-2.5357387,0.999982)"
       gradientUnits="userSpaceOnUse"
       id="linearGradient2863"
       xlink:href="#StandardGradient-3"
       inkscape:collect="always" />
    <clipPath
       id="clipPath3661"
       clipPathUnits="userSpaceOnUse">
      <path
         id="path3663"
         d="m -19.535739,2.999982 0,16 16.0000003,0 0,-16 -16.0000003,0 z m 8,2 c 3.8659933,0 7.0000003,2.4101491 7.0000003,6 0,1.485565 -0.534328,2.342799 -1.4375,3.4375 l 1.4375,3.5625 -4.03125,-1.625 c -0.903657,0.395035 -1.9037933,0.625 -2.9687503,0.625 -3.865993,0 -7,-2.410149 -7,-6 0,-3.5898509 3.134007,-6 7,-6 z"
         style="fill:#ff00ff;fill-opacity:1;stroke:none;display:inline" />
    </clipPath>
    <linearGradient
       y2="18"
       x2="9"
       y1="5"
       x1="9"
       gradientTransform="translate(-22.535739,-1.8e-5)"
       gradientUnits="userSpaceOnUse"
       id="linearGradient3654"
       xlink:href="#StandardGradient-3"
       inkscape:collect="always" />
    <linearGradient
       y2="18"
       x2="9"
       y1="5"
       x1="9"
       gradientTransform="translate(-2.5357387,-1.8e-5)"
       gradientUnits="userSpaceOnUse"
       id="linearGradient3649"
       xlink:href="#StandardGradient-3"
       inkscape:collect="always" />
    <linearGradient
       y2="18"
       x2="9"
       y1="5"
       x1="9"
       gradientTransform="translate(-3,-2)"
       gradientUnits="userSpaceOnUse"
       id="linearGradient3645"
       xlink:href="#StandardGradient-3"
       inkscape:collect="always" />
    <linearGradient
       y2="18"
       x2="9"
       y1="5"
       x1="9"
       gradientTransform="translate(-3,-3)"
       gradientUnits="userSpaceOnUse"
       id="linearGradient3640"
       xlink:href="#StandardGradient-3"
       inkscape:collect="always" />
    <linearGradient
       y2="18"
       x2="9"
       y1="5"
       x1="9"
       gradientTransform="translate(-2.5357387,0.999982)"
       gradientUnits="userSpaceOnUse"
       id="linearGradient3638"
       xlink:href="#StandardGradient-3"
       inkscape:collect="always" />
    <linearGradient
       inkscape:collect="always"
       xlink:href="#StandardGradient-3"
       id="linearGradient2912"
       gradientUnits="userSpaceOnUse"
       x1="9"
       y1="5"
       x2="9"
       y2="18"
       gradientTransform="matrix(1.1428571,0,0,1.1428571,-4.1071673,-1.6428751)" />
    <linearGradient
       id="linearGradient4081">
      <stop
         id="stop4083"
         offset="0"
         style="stop-color:#aaaaaa;stop-opacity:1;" />
      <stop
         id="stop4085"
         offset="1"
         style="stop-color:#f0f0f0;stop-opacity:1;" />
    </linearGradient>
    <linearGradient
       gradientUnits="userSpaceOnUse"
       y2="3.9643312"
       x2="13"
       y1="18"
       x1="13"
       id="linearGradient3675"
       xlink:href="#linearGradient4081"
       inkscape:collect="always" />
    <inkscape:perspective
       sodipodi:type="inkscape:persp3d"
       inkscape:vp_x="0 : 0.5 : 1"
       inkscape:vp_y="0 : 1000 : 0"
       inkscape:vp_z="1 : 0.5 : 1"
       inkscape:persp3d-origin="0.5 : 0.33333333 : 1"
       id="perspective2903" />
    <clipPath
       id="clipPath3636"
       clipPathUnits="userSpaceOnUse">
      <path
         id="path3638"
         d="m -19.535739,2.999982 0,16 16.0000003,0 0,-16 -16.0000003,0 z m 12.0625003,3.71875 1.9375,1.9375 -7.3437503,7.3125 -4.65625,-4.625 1.9375,-1.9375 2.71875,2.6875 5.4062503,-5.375 z"
         style="fill:#ff00ff;fill-opacity:1;stroke:none;display:inline" />
    </clipPath>
    <linearGradient
       y2="18.248226"
       x2="6.4706173"
       y1="7.6491265"
       x1="6.4706173"
       gradientTransform="matrix(1.1389662,0,0,0.8779892,-20,0)"
       gradientUnits="userSpaceOnUse"
       id="linearGradient3629"
       xlink:href="#StandardGradient-3"
       inkscape:collect="always" />
    <inkscape:perspective
       sodipodi:type="inkscape:persp3d"
       inkscape:vp_x="0 : 0.5 : 1"
       inkscape:vp_y="0 : 1000 : 0"
       inkscape:vp_z="1 : 0.5 : 1"
       inkscape:persp3d-origin="0.5 : 0.33333333 : 1"
       id="perspective3648" />
    <linearGradient
       gradientUnits="userSpaceOnUse"
       y2="18.248226"
       x2="6.4706173"
       y1="7.6491265"
       x1="6.4706173"
       gradientTransform="scale(1.1389662,0.8779892)"
       id="StandardGradient-3">
      <stop
         id="stop3283-9"
         offset="0"
         style="stop-color:#000000;stop-opacity:0.86274511;" />
      <stop
         id="stop3285-7"
         offset="1"
         style="stop-color:#000000;stop-opacity:0.47058824;" />
    </linearGradient>
    <inkscape:perspective
       id="perspective18"
       inkscape:persp3d-origin="8 : 5.3333333 : 1"
       inkscape:vp_z="16 : 8 : 1"
       inkscape:vp_y="0 : 1000 : 0"
       inkscape:vp_x="0 : 8 : 1"
       sodipodi:type="inkscape:persp3d" />
  </defs>
  <sodipodi:namedview
     id="base"
     pagecolor="#ffffff"
     bordercolor="#9a9a9a"
     borderopacity="1"
     inkscape:pageopacity="0.0"
     inkscape:pageshadow="2"
     inkscape:zoom="22.762856"
     inkscape:cx="2.5738406"
     inkscape:cy="5.9655454"
     inkscape:document-units="px"
     inkscape:current-layer="layer3"
     showgrid="true"
     inkscape:showpageshadow="false"
     showguides="true"
     inkscape:guide-bbox="true"
     inkscape:window-width="1920"
     inkscape:window-height="1005"
     inkscape:window-x="0"
     inkscape:window-y="25"
     inkscape:window-maximized="1">
    <sodipodi:guide
       orientation="1,0"
       position="0,112"
       id="guide2383" />
    <sodipodi:guide
       orientation="0,1"
       position="26.278146,128"
       id="guide2385" />
    <sodipodi:guide
       orientation="1,0"
       position="128,54.082119"
       id="guide2387" />
    <sodipodi:guide
       orientation="0,1"
       position="78.156291,0"
       id="guide2389" />
    <inkscape:grid
       type="xygrid"
       id="grid3672"
       visible="true"
       enabled="true" />
  </sodipodi:namedview>
  <metadata
     id="metadata7">
    <rdf:RDF>
      <cc:Work
         rdf:about="">
        <dc:format>image/svg+xml</dc:format>
        <dc:type
           rdf:resource="http://purl.org/dc/dcmitype/StillImage" />
      </cc:Work>
    </rdf:RDF>
  </metadata>
  <g
     inkscape:groupmode="layer"
     id="layer3"
     inkscape:label="Cross"
     style="display:inline"
     transform="translate(-0.4642613,-2.999982)">
    <path
       sodipodi:type="arc"
       style="opacity:0.45000000000000001;fill:#ffcc00;stroke:none;fill-opacity:1"
       id="path2863"
       sodipodi:cx="8"
       sodipodi:cy="8"
       sodipodi:rx="5"
       sodipodi:ry="4"
       d="m 13,8 c 0,2.209139 -2.238576,4 -5,4 C 5.2385763,12 3,10.209139 3,8 3,5.790861 5.2385763,4 8,4 c 0,0 10e-8,0 10e-8,0 L 8,8 z"
       transform="translate(0.4642613,2.999982)"
       sodipodi:start="0"
       sodipodi:end="4.712389" />
    <path
       style="fill:#ff9f00;fill-opacity:1;stroke:none;display:inline;opacity:1"
       d="M 8 2 C 4.1340071 2 1 4.4101491 1 8 C 1 11.589851 4.1340071 14 8 14 C 9.064957 14 10.065093 13.770035 10.96875 13.375 L 15 15 L 13.5625 11.4375 C 14.465672 10.342799 15 9.485565 15 8 C 15 4.4101491 11.865993 2 8 2 z M 8 4 C 10.761424 4 13 5.7908611 13 8 C 13 10.209139 10.761424 12 8 12 C 5.2385763 12 3 10.209139 3 8 C 3 5.7908611 5.2385763 4 8 4 z "
       transform="translate(0.4642613,2.999982)"
       id="path2892" />
  </g>
</svg>
