<?xml version="1.0" encoding="UTF-8" standalone="no"?>
<!-- Created with Inkscape (http://www.inkscape.org/) -->

<svg
   xmlns:dc="http://purl.org/dc/elements/1.1/"
   xmlns:cc="http://creativecommons.org/ns#"
   xmlns:rdf="http://www.w3.org/1999/02/22-rdf-syntax-ns#"
   xmlns:svg="http://www.w3.org/2000/svg"
   xmlns="http://www.w3.org/2000/svg"
   xmlns:xlink="http://www.w3.org/1999/xlink"
   xmlns:sodipodi="http://sodipodi.sourceforge.net/DTD/sodipodi-0.dtd"
   xmlns:inkscape="http://www.inkscape.org/namespaces/inkscape"
   version="1.0"
   width="96"
   height="96"
   id="svg2408"
   style="display:inline"
   inkscape:version="0.48.4 r9939"
   sodipodi:docname="image-missing.svg">
  <sodipodi:namedview
     pagecolor="#ffffff"
     bordercolor="#666666"
     borderopacity="1"
     objecttolerance="10"
     gridtolerance="10"
     guidetolerance="10"
     inkscape:pageopacity="0"
     inkscape:pageshadow="2"
     inkscape:window-width="1920"
     inkscape:window-height="1005"
     id="namedview94"
     showgrid="false"
     inkscape:zoom="3.4766083"
     inkscape:cx="106.95284"
     inkscape:cy="48.824464"
     inkscape:window-x="0"
     inkscape:window-y="25"
     inkscape:window-maximized="1"
     inkscape:current-layer="svg2408" />
  <defs
     id="defs2410">
    <linearGradient
       id="linearGradient3806">
      <stop
         id="stop3808"
         style="stop-color:#fff6d5;stop-opacity:1"
         offset="0" />
      <stop
         id="stop3810"
         style="stop-color:#fff6d5;stop-opacity:0"
         offset="1" />
    </linearGradient>
    <linearGradient
       id="linearGradient3940">
      <stop
         id="stop3942"
         style="stop-color:#101010;stop-opacity:1"
         offset="0" />
      <stop
         id="stop3944"
         style="stop-color:#454545;stop-opacity:1"
         offset="1" />
    </linearGradient>
    <linearGradient
       id="linearGradient3718">
      <stop
         id="stop3720"
         style="stop-color:#000000;stop-opacity:1"
         offset="0" />
      <stop
         id="stop3722"
         style="stop-color:#000000;stop-opacity:0"
         offset="1" />
    </linearGradient>
    <linearGradient
       x1="45.447727"
       y1="92.539597"
       x2="45.447727"
       y2="7.0165396"
       id="ButtonShadow"
       gradientUnits="userSpaceOnUse"
       gradientTransform="scale(1.0058652,0.994169)">
      <stop
         id="stop3750"
         style="stop-color:#000000;stop-opacity:1"
         offset="0" />
      <stop
         id="stop3752"
         style="stop-color:#000000;stop-opacity:0.58823532"
         offset="1" />
    </linearGradient>
    <linearGradient
       id="linearGradient3737">
      <stop
         id="stop3739"
         style="stop-color:#ffffff;stop-opacity:1"
         offset="0" />
      <stop
         id="stop3741"
         style="stop-color:#ffffff;stop-opacity:0"
         offset="1" />
    </linearGradient>
    <linearGradient
       id="linearGradient3700">
      <stop
         id="stop3702"
         style="stop-color:#e6e6e6;stop-opacity:1"
         offset="0" />
      <stop
         id="stop3704"
         style="stop-color:#f5f5f5;stop-opacity:1"
         offset="1" />
    </linearGradient>
    <linearGradient
       x1="48"
       y1="90"
       x2="48"
       y2="5.9877172"
       id="linearGradient3706"
       xlink:href="#linearGradient3700"
       gradientUnits="userSpaceOnUse" />
    <filter
       color-interpolation-filters="sRGB"
       id="filter3174">
      <feGaussianBlur
         id="feGaussianBlur3176"
         stdDeviation="1.71" />
    </filter>
    <linearGradient
       x1="45.447727"
       y1="92.539597"
       x2="45.447727"
       y2="7.0165396"
       id="ButtonShadow-0"
       gradientUnits="userSpaceOnUse"
       gradientTransform="matrix(1.0058652,0,0,0.994169,100,0)">
      <stop
         id="stop3750-8"
         style="stop-color:#000000;stop-opacity:1"
         offset="0" />
      <stop
         id="stop3752-5"
         style="stop-color:#000000;stop-opacity:0.58823532"
         offset="1" />
    </linearGradient>
    <linearGradient
       x1="32.251034"
       y1="6.1317081"
       x2="32.251034"
       y2="90.238609"
       id="linearGradient3780"
       xlink:href="#ButtonShadow-0"
       gradientUnits="userSpaceOnUse"
       gradientTransform="matrix(1.0238095,0,0,1.0119048,-1.1428571,-98.071429)" />
    <linearGradient
       x1="32.251034"
       y1="6.1317081"
       x2="32.251034"
       y2="90.238609"
       id="linearGradient3772"
       xlink:href="#ButtonShadow-0"
       gradientUnits="userSpaceOnUse"
       gradientTransform="matrix(1.0238095,0,0,1.0119048,-1.1428571,-98.071429)" />
    <linearGradient
       x1="32.251034"
       y1="6.1317081"
       x2="32.251034"
       y2="90.238609"
       id="linearGradient3725"
       xlink:href="#ButtonShadow-0"
       gradientUnits="userSpaceOnUse"
       gradientTransform="matrix(1.0238095,0,0,1.0119048,-1.1428571,-98.071429)" />
    <linearGradient
       x1="32.251034"
       y1="6.1317081"
       x2="32.251034"
       y2="90.238609"
       id="linearGradient3721"
       xlink:href="#ButtonShadow-0"
       gradientUnits="userSpaceOnUse"
       gradientTransform="translate(0,-97)" />
    <linearGradient
       x1="32.251034"
       y1="6.1317081"
       x2="32.251034"
       y2="90.238609"
       id="linearGradient3760"
       xlink:href="#ButtonShadow-0"
       gradientUnits="userSpaceOnUse"
       gradientTransform="matrix(1.0238095,0,0,1.0119048,-1.1428571,-98.071429)" />
    <linearGradient
       id="linearGradient3737-1">
      <stop
         id="stop3739-9"
         style="stop-color:#ffffff;stop-opacity:1"
         offset="0" />
      <stop
         id="stop3741-3"
         style="stop-color:#ffffff;stop-opacity:0"
         offset="1" />
    </linearGradient>
    <radialGradient
       cx="48"
       cy="90.171875"
       r="42"
       fx="48"
       fy="90.171875"
       id="radialGradient2886"
       xlink:href="#linearGradient3737-0"
       gradientUnits="userSpaceOnUse"
       gradientTransform="matrix(1.1573129,0,0,0.99590774,-7.551021,0.1971319)" />
    <linearGradient
       id="linearGradient3737-0">
      <stop
         id="stop3739-6"
         style="stop-color:#ffffff;stop-opacity:1"
         offset="0" />
      <stop
         id="stop3741-0"
         style="stop-color:#ffffff;stop-opacity:0"
         offset="1" />
    </linearGradient>
    <linearGradient
       x1="36.357143"
       y1="6"
       x2="36.357143"
       y2="63.893143"
       id="linearGradient3923"
       xlink:href="#linearGradient3737-1"
       gradientUnits="userSpaceOnUse" />
    <linearGradient
       x1="48"
       y1="56"
       x2="48"
       y2="0"
       id="linearGradient3982"
       xlink:href="#linearGradient3737"
       gradientUnits="userSpaceOnUse" />
    <linearGradient
       x1="48"
       y1="48"
       x2="48"
       y2="72"
       id="linearGradient3938"
       xlink:href="#linearGradient3940"
       gradientUnits="userSpaceOnUse"
       spreadMethod="reflect" />
    <clipPath
       id="clipPath2952">
      <rect
         width="72"
         height="55.999996"
         rx="3"
         ry="3"
         x="12"
         y="20"
         id="rect2954"
         style="opacity:0.65163933;color:#000000;fill:#ff0000;fill-opacity:1;fill-rule:nonzero;stroke:none;stroke-width:1;marker:none;visibility:visible;display:inline;overflow:visible;enable-background:accumulate" />
    </clipPath>
    <clipPath
       id="clipPath2956">
      <rect
         width="72"
         height="55.999996"
         rx="3"
         ry="3"
         x="12"
         y="20"
         id="rect2958"
         style="opacity:0.65163933;color:#000000;fill:#ff0000;fill-opacity:1;fill-rule:nonzero;stroke:none;stroke-width:1;marker:none;visibility:visible;display:inline;overflow:visible;enable-background:accumulate" />
    </clipPath>
    <linearGradient
       x1="64"
       y1="80"
       x2="64"
       y2="-40.066647"
       id="linearGradient3748"
       xlink:href="#linearGradient3718"
       gradientUnits="userSpaceOnUse"
       gradientTransform="translate(-20,0)" />
    <linearGradient
       id="linearGradient5452">
      <stop
         id="stop5454"
         style="stop-color:#ffffff;stop-opacity:1"
         offset="0" />
      <stop
         id="stop5456"
         style="stop-color:#ffffff;stop-opacity:0"
         offset="1" />
    </linearGradient>
    <linearGradient
       x1="64.153542"
       y1="119.02443"
       x2="64.153542"
       y2="50.721481"
       id="linearGradient3327"
       xlink:href="#linearGradient5452"
       gradientUnits="userSpaceOnUse"
       gradientTransform="matrix(0.36936935,0,0,-0.36936934,-55.639641,71.639638)" />
    <linearGradient
       x1="47.609753"
       y1="121.36586"
       x2="47.609753"
       y2="6.6341324"
       id="linearGradient3330"
       xlink:href="#linearGradient3290-7"
       gradientUnits="userSpaceOnUse"
       gradientTransform="matrix(0.36607141,0,0,0.36607137,24.571431,24.571434)" />
    <linearGradient
       x1="52"
       y1="28"
       x2="52"
       y2="91.007935"
       id="linearGradient3812"
       xlink:href="#linearGradient3806"
       gradientUnits="userSpaceOnUse" />
    <linearGradient
       id="linearGradient3290-7">
      <stop
         id="stop3292-2"
         style="stop-color:#ba0000;stop-opacity:1"
         offset="0" />
      <stop
         id="stop3294-3"
         style="stop-color:#ff331e;stop-opacity:1"
         offset="1" />
    </linearGradient>
    <linearGradient
       inkscape:collect="always"
       xlink:href="#linearGradient3806"
       id="linearGradient3072"
       gradientUnits="userSpaceOnUse"
       x1="52"
       y1="28"
       x2="52"
       y2="91.007935" />
    <linearGradient
       inkscape:collect="always"
       xlink:href="#linearGradient5452"
       id="linearGradient3075"
       gradientUnits="userSpaceOnUse"
       gradientTransform="matrix(0.36936935,0,0,-0.36936934,-55.639641,71.639638)"
       x1="64.153542"
       y1="119.02443"
       x2="64.153542"
       y2="50.721481" />
    <linearGradient
       inkscape:collect="always"
       xlink:href="#linearGradient3718"
       id="linearGradient3083"
       gradientUnits="userSpaceOnUse"
       gradientTransform="translate(-20,0)"
       x1="64"
       y1="80"
       x2="64"
       y2="-40.066647" />
    <linearGradient
       inkscape:collect="always"
       xlink:href="#linearGradient3737"
       id="linearGradient3087"
       gradientUnits="userSpaceOnUse"
       x1="48"
       y1="56"
       x2="48"
       y2="0" />
    <radialGradient
       inkscape:collect="always"
       xlink:href="#linearGradient3737-0"
       id="radialGradient3098"
       gradientUnits="userSpaceOnUse"
       gradientTransform="matrix(1.1573129,0,0,0.99590774,-7.551021,0.1971319)"
       cx="48"
       cy="90.171875"
       fx="48"
       fy="90.171875"
       r="42" />
    <linearGradient
       inkscape:collect="always"
       xlink:href="#linearGradient3737-1"
       id="linearGradient3101"
       gradientUnits="userSpaceOnUse"
       x1="36.357143"
       y1="6"
       x2="36.357143"
       y2="63.893143" />
    <linearGradient
       inkscape:collect="always"
       xlink:href="#linearGradient3700"
       id="linearGradient3104"
       gradientUnits="userSpaceOnUse"
       x1="48"
       y1="90"
       x2="48"
       y2="5.9877172" />
    <radialGradient
       r="21.465742"
       fy="35.956902"
       fx="13.131983"
       cy="35.956902"
       cx="13.131983"
       gradientTransform="matrix(1.6023199,5.5787595e-8,-4.3140372e-8,1.239069,26.958365,-20.355492)"
       gradientUnits="userSpaceOnUse"
       id="radialGradient3148"
       xlink:href="#linearGradient3698"
       inkscape:collect="always" />
    <linearGradient
       gradientTransform="matrix(0,0.90509665,-0.90509665,0,99.00357,35.114285)"
       y2="56.351513"
       x2="34.597725"
       y1="56.351513"
       x1="-8.3337593"
       gradientUnits="userSpaceOnUse"
       id="linearGradient3145"
       xlink:href="#linearGradient3709"
       inkscape:collect="always" />
    <radialGradient
       gradientTransform="matrix(0.86989429,0,0,0.86989429,36.576563,-2.0440605)"
       r="21.465742"
       fy="56.351513"
       fx="13.131983"
       cy="56.351513"
       cx="13.131983"
       gradientUnits="userSpaceOnUse"
       id="radialGradient3140"
       xlink:href="#linearGradient3953-7"
       inkscape:collect="always" />
    <linearGradient
       y2="63.893143"
       x2="36.357143"
       y1="6"
       x1="36.357143"
       gradientUnits="userSpaceOnUse"
       id="linearGradient3098"
       xlink:href="#linearGradient3737-1-8"
       inkscape:collect="always" />
    <radialGradient
       r="42"
       fy="90.171875"
       fx="48"
       cy="90.171875"
       cx="48"
       gradientTransform="matrix(1.1573129,0,0,0.99590774,-7.551021,0.1971319)"
       gradientUnits="userSpaceOnUse"
       id="radialGradient3095"
       xlink:href="#linearGradient3737-0-6"
       inkscape:collect="always" />
    <linearGradient
       gradientUnits="userSpaceOnUse"
       xlink:href="#linearGradient3709"
       id="linearGradient3961"
       y2="56.351513"
       x2="34.597725"
       y1="56.351513"
       x1="-8.3337593" />
    <radialGradient
       gradientUnits="userSpaceOnUse"
       xlink:href="#linearGradient3953-7"
       id="radialGradient3928"
       fy="56.351513"
       fx="13.131983"
       r="21.465742"
       cy="56.351513"
       cx="13.131983" />
    <radialGradient
       gradientTransform="matrix(1.4331244,4.9896754e-8,-3.8585003e-8,1.1082306,-5.6877802,-3.8916388)"
       gradientUnits="userSpaceOnUse"
       xlink:href="#linearGradient3698"
       id="radialGradient3924"
       fy="35.956902"
       fx="13.131983"
       r="21.465742"
       cy="35.956902"
       cx="13.131983" />
    <linearGradient
       id="linearGradient3953-7">
      <stop
         offset="0"
         style="stop-color:#ffffff;stop-opacity:1"
         id="stop3955-4" />
      <stop
         offset="0.80000001"
         style="stop-color:#ededed;stop-opacity:1"
         id="stop3961-3" />
      <stop
         offset="0.89999998"
         style="stop-color:#c6c6c6;stop-opacity:1"
         id="stop3965" />
      <stop
         offset="1"
         style="stop-color:#7d7d7d;stop-opacity:1"
         id="stop3957-7" />
    </linearGradient>
    <linearGradient
       id="linearGradient3709">
      <stop
         offset="0"
         style="stop-color:#464646;stop-opacity:1"
         id="stop3711" />
      <stop
         offset="0.7962963"
         style="stop-color:#ffffff;stop-opacity:1"
         id="stop3717" />
      <stop
         offset="1"
         style="stop-color:#717171;stop-opacity:1"
         id="stop3713" />
    </linearGradient>
    <linearGradient
       id="linearGradient3698">
      <stop
         offset="0"
         style="stop-color:#ffffff;stop-opacity:1"
         id="stop3700" />
      <stop
         offset="1"
         style="stop-color:#adadad;stop-opacity:1"
         id="stop3703" />
    </linearGradient>
    <linearGradient
       gradientUnits="userSpaceOnUse"
       xlink:href="#linearGradient3737-1-8"
       id="linearGradient3923-4"
       y2="63.893143"
       x2="36.357143"
       y1="6"
       x1="36.357143" />
    <linearGradient
       id="linearGradient3737-0-6">
      <stop
         offset="0"
         style="stop-color:#ffffff;stop-opacity:1"
         id="stop3739-6-8" />
      <stop
         offset="1"
         style="stop-color:#ffffff;stop-opacity:0"
         id="stop3741-0-2" />
    </linearGradient>
    <radialGradient
       gradientTransform="matrix(1.1573129,0,0,0.99590774,-7.551021,0.1971319)"
       gradientUnits="userSpaceOnUse"
       xlink:href="#linearGradient3737-0-6"
       id="radialGradient2886-2"
       fy="90.171875"
       fx="48"
       r="42"
       cy="90.171875"
       cx="48" />
    <linearGradient
       id="linearGradient3737-1-8">
      <stop
         offset="0"
         style="stop-color:#ffffff;stop-opacity:1"
         id="stop3739-9-7" />
      <stop
         offset="1"
         style="stop-color:#ffffff;stop-opacity:0"
         id="stop3741-3-2" />
    </linearGradient>
    <linearGradient
       gradientTransform="matrix(1.0238095,0,0,-1.0119048,-1.1428571,98.071429)"
       gradientUnits="userSpaceOnUse"
       xlink:href="#ButtonShadow-0-5"
       id="linearGradient3760-4"
       y2="90.238609"
       x2="32.251034"
       y1="6.1317081"
       x1="32.251034" />
    <linearGradient
       gradientTransform="matrix(1,0,0,-1,0,97)"
       gradientUnits="userSpaceOnUse"
       xlink:href="#ButtonShadow-0-5"
       id="linearGradient3721-2"
       y2="90.238609"
       x2="32.251034"
       y1="6.1317081"
       x1="32.251034" />
    <linearGradient
       gradientTransform="matrix(1.0238095,0,0,-1.0119048,-1.1428571,98.071429)"
       gradientUnits="userSpaceOnUse"
       xlink:href="#ButtonShadow-0-5"
       id="linearGradient3725-0"
       y2="90.238609"
       x2="32.251034"
       y1="6.1317081"
       x1="32.251034" />
    <linearGradient
       gradientTransform="matrix(1.0238095,0,0,-1.0119048,-1.1428571,98.071429)"
       gradientUnits="userSpaceOnUse"
       xlink:href="#ButtonShadow-0-5"
       id="linearGradient3772-3"
       y2="90.238609"
       x2="32.251034"
       y1="6.1317081"
       x1="32.251034" />
    <linearGradient
       gradientTransform="matrix(1.0238095,0,0,-1.0119048,-1.1428571,98.071429)"
       gradientUnits="userSpaceOnUse"
       xlink:href="#ButtonShadow-0-5"
       id="linearGradient3780-1"
       y2="90.238609"
       x2="32.251034"
       y1="6.1317081"
       x1="32.251034" />
    <linearGradient
       gradientTransform="matrix(1.0058652,0,0,0.994169,100,0)"
       gradientUnits="userSpaceOnUse"
       id="ButtonShadow-0-5"
       y2="7.0165396"
       x2="45.447727"
       y1="92.539597"
       x1="45.447727">
      <stop
         offset="0"
         style="stop-color:#000000;stop-opacity:1"
         id="stop3750-8-8" />
      <stop
         offset="1"
         style="stop-color:#000000;stop-opacity:0.58823532"
         id="stop3752-5-8" />
    </linearGradient>
    <filter
       id="filter3174-8"
       color-interpolation-filters="sRGB">
      <feGaussianBlur
         stdDeviation="1.71"
         id="feGaussianBlur3176-1" />
    </filter>
    <linearGradient
       gradientUnits="userSpaceOnUse"
       xlink:href="#linearGradient3700-8"
       id="linearGradient3706-2"
       y2="5.9877172"
       x2="48"
       y1="90"
       x1="48" />
    <linearGradient
       id="linearGradient3700-8">
      <stop
         offset="0"
         style="stop-color:#e6e6e6;stop-opacity:1"
         id="stop3702-2" />
      <stop
         offset="1"
         style="stop-color:#f5f5f5;stop-opacity:1"
         id="stop3704-9" />
    </linearGradient>
    <linearGradient
       gradientTransform="scale(1.0058652,0.994169)"
       gradientUnits="userSpaceOnUse"
       id="ButtonShadow-1"
       y2="7.0165396"
       x2="45.447727"
       y1="92.539597"
       x1="45.447727">
      <stop
         offset="0"
         style="stop-color:#000000;stop-opacity:1"
         id="stop3750-3" />
      <stop
         offset="1"
         style="stop-color:#000000;stop-opacity:0.58823532"
         id="stop3752-8" />
    </linearGradient>
  </defs>
  <metadata
     id="metadata2413">
    <rdf:RDF>
      <cc:Work
         rdf:about="">
        <dc:format>image/svg+xml</dc:format>
        <dc:type
           rdf:resource="http://purl.org/dc/dcmitype/StillImage" />
        <dc:title />
      </cc:Work>
    </rdf:RDF>
  </metadata>
  <g
     style="display:inline"
     id="g3218">
    <g
       style="display:none"
       id="layer2-2">
      <rect
         style="opacity:0.9;fill:url(#ButtonShadow-1);fill-opacity:1;fill-rule:nonzero;stroke:none;filter:url(#filter3174-8)"
         id="rect3745-7"
         y="7"
         x="5"
         ry="6"
         rx="6"
         height="85"
         width="86" />
    </g>
    <g
       style="display:inline"
       id="layer6-3" />
    <g
       id="g3155">
      <rect
         style="fill:#f2f2f2;fill-opacity:1;fill-rule:nonzero;stroke:none"
         id="rect2419-2"
         y="6"
         x="6"
         ry="6"
         rx="6"
         height="84"
         width="84" />
      <path
         style="color:#000000;fill:#cdcdcd;fill-opacity:1;fill-rule:nonzero;stroke:none;stroke-width:1;marker:none;visibility:visible;display:inline;overflow:visible;enable-background:accumulate"
         id="rect3802"
         inkscape:connector-curvature="0"
         d="m 16,16 0,8 8,0 0,-8 -8,0 z m 8,8 0,8 8,0 0,-8 -8,0 z m 8,0 8,0 0,-8 -8,0 0,8 z m 8,0 0,8 8,0 0,-8 -8,0 z m 8,0 8,0 0,-8 -8,0 0,8 z m 8,0 0,8 8,0 0,-8 -8,0 z m 8,0 8,0 0,-8 -8,0 0,8 z m 8,0 0,8 8,0 0,-8 -8,0 z m 0,8 -8,0 0,8 8,0 0,-8 z m 0,8 0,8 8,0 0,-8 -8,0 z m 0,8 -8,0 0,8 8,0 0,-8 z m 0,8 0,8 8,0 0,-8 -8,0 z m 0,8 -8,0 0,8 8,0 0,-8 z m 0,8 0,8 8,0 0,-8 -8,0 z m -8,0 -8,0 0,8 8,0 0,-8 z m -8,0 0,-8 -8,0 0,8 8,0 z m -8,0 -8,0 0,8 8,0 0,-8 z m -8,0 0,-8 -8,0 0,8 8,0 z m -8,0 -8,0 0,8 8,0 0,-8 z m -8,0 0,-8 -8,0 0,8 8,0 z m 0,-8 8,0 0,-8 -8,0 0,8 z m 0,-8 0,-8 -8,0 0,8 8,0 z m 0,-8 8,0 0,-8 -8,0 0,8 z m 0,-8 0,-8 -8,0 0,8 8,0 z m 8,0 8,0 0,-8 -8,0 0,8 z m 8,0 0,8 8,0 0,-8 -8,0 z m 8,0 8,0 0,-8 -8,0 0,8 z m 8,0 0,8 8,0 0,-8 -8,0 z m 0,8 -8,0 0,8 8,0 0,-8 z m 0,8 0,8 8,0 0,-8 -8,0 z m -8,0 -8,0 0,8 8,0 0,-8 z m -8,0 0,-8 -8,0 0,8 8,0 z" />
      <g
         id="g4034"
         transform="translate(0,-1)" />
    </g>
  </g>
  <path
     style="fill:#d40000;fill-opacity:1;stroke:none;display:inline"
     id="path2424"
     inkscape:connector-curvature="0"
     d="m 48,22.827736 c -13.340389,0 -24.167368,10.82698 -24.167368,24.167367 0,13.340385 10.82698,24.167367 24.167368,24.167367 13.340388,0 24.167368,-10.826982 24.167368,-24.167367 C 72.167368,33.654716 61.340388,22.827736 48,22.827736 z m 0,8.631207 c 8.575961,0 15.536163,6.9602 15.536163,15.53616 0,2.31763 -0.518366,4.510751 -1.429544,6.48689 L 41.499622,32.888476 C 43.478644,31.974065 45.678,31.458942 48,31.458942 z M 34.082188,40.11711 54.891475,60.912914 C 52.813263,61.944881 50.476308,62.531262 48,62.531262 c -8.57596,0 -15.536162,-6.960203 -15.536162,-15.53616 0,-2.472023 0.589725,-4.802468 1.61835,-6.877992 z" />
  <g
     id="layer2"
     style="display:none">
    <rect
       width="86"
       height="85"
       rx="6"
       ry="6"
       x="5"
       y="7"
       id="rect3745"
       style="opacity:0.9;fill:url(#ButtonShadow);fill-opacity:1;fill-rule:nonzero;stroke:none;filter:url(#filter3174)" />
  </g>
  <g
     id="layer5"
     style="display:none">
    <text
       x="43.749348"
       y="71.477806"
       id="text3989"
       xml:space="preserve"
       style="font-size:20.88772774px;font-style:normal;font-variant:normal;font-weight:bold;font-stretch:normal;text-align:start;line-height:125%;writing-mode:lr-tb;text-anchor:start;opacity:0.7;fill:#ffffff;fill-opacity:1;stroke:none;display:inline;font-family:BabelSans;-inkscape-font-specification:BabelSans Medium"><tspan
         x="43.749348"
         y="71.477806"
         id="tspan3991">PNG</tspan></text>
  </g>
</svg>
