<?xml version="1.0" encoding="UTF-8" standalone="no"?>
<!-- Created with Inkscape (http://www.inkscape.org/) -->

<svg
   xmlns:dc="http://purl.org/dc/elements/1.1/"
   xmlns:cc="http://creativecommons.org/ns#"
   xmlns:rdf="http://www.w3.org/1999/02/22-rdf-syntax-ns#"
   xmlns:svg="http://www.w3.org/2000/svg"
   xmlns="http://www.w3.org/2000/svg"
   xmlns:xlink="http://www.w3.org/1999/xlink"
   xmlns:sodipodi="http://sodipodi.sourceforge.net/DTD/sodipodi-0.dtd"
   xmlns:inkscape="http://www.inkscape.org/namespaces/inkscape"
   version="1.0"
   width="96"
   height="96"
   id="svg2408"
   inkscape:version="0.48.4 r9939"
   sodipodi:docname="bluetooth-active-symbolic.svg">
  <sodipodi:namedview
     pagecolor="#ffffff"
     bordercolor="#666666"
     borderopacity="1"
     objecttolerance="10"
     gridtolerance="10"
     guidetolerance="10"
     inkscape:pageopacity="0"
     inkscape:pageshadow="2"
     inkscape:window-width="1920"
     inkscape:window-height="1005"
     id="namedview65"
     showgrid="false"
     inkscape:zoom="2.4583333"
     inkscape:cx="170.48964"
     inkscape:cy="31.59879"
     inkscape:window-x="0"
     inkscape:window-y="25"
     inkscape:window-maximized="1"
     inkscape:current-layer="svg2408" />
  <defs
     id="defs2410">
    <linearGradient
       id="linearGradient3731">
      <stop
         id="stop3733"
         style="stop-color:#dcdcdc;stop-opacity:1"
         offset="0" />
      <stop
         id="stop3757"
         style="stop-color:#ebebeb;stop-opacity:1"
         offset="0.30654153" />
      <stop
         id="stop3737"
         style="stop-color:#ffffff;stop-opacity:1"
         offset="0.70706075" />
      <stop
         id="stop3759"
         style="stop-color:#fafafa;stop-opacity:1"
         offset="0.84501493" />
      <stop
         id="stop3735"
         style="stop-color:#f0f0f0;stop-opacity:1"
         offset="1" />
    </linearGradient>
    <linearGradient
       id="linearGradient2881">
      <stop
         id="stop2883"
         style="stop-color:#a90c0c;stop-opacity:1"
         offset="0" />
      <stop
         id="stop2885"
         style="stop-color:#f05530;stop-opacity:1"
         offset="1" />
    </linearGradient>
    <linearGradient
       x1="45.447727"
       y1="92.539597"
       x2="45.447727"
       y2="7.0165396"
       id="ButtonShadow"
       gradientUnits="userSpaceOnUse"
       gradientTransform="scale(1.0058652,0.994169)">
      <stop
         id="stop3750"
         style="stop-color:#000000;stop-opacity:1"
         offset="0" />
      <stop
         id="stop3752"
         style="stop-color:#000000;stop-opacity:0.58823532"
         offset="1" />
    </linearGradient>
    <linearGradient
       id="linearGradient3737">
      <stop
         id="stop3739"
         style="stop-color:#ffffff;stop-opacity:1"
         offset="0" />
      <stop
         id="stop3741"
         style="stop-color:#ffffff;stop-opacity:0"
         offset="1" />
    </linearGradient>
    <filter
       color-interpolation-filters="sRGB"
       id="filter3174">
      <feGaussianBlur
         id="feGaussianBlur3176"
         stdDeviation="1.71" />
    </filter>
    <linearGradient
       x1="36.357143"
       y1="6"
       x2="36.357143"
       y2="63.893143"
       id="linearGradient3188"
       xlink:href="#linearGradient3737"
       gradientUnits="userSpaceOnUse" />
    <filter
       x="-0.192"
       y="-0.192"
       width="1.3839999"
       height="1.3839999"
       color-interpolation-filters="sRGB"
       id="filter3794">
      <feGaussianBlur
         id="feGaussianBlur3796"
         stdDeviation="5.28" />
    </filter>
    <linearGradient
       x1="48"
       y1="20.220806"
       x2="48"
       y2="138.66119"
       id="linearGradient3613"
       xlink:href="#linearGradient3737"
       gradientUnits="userSpaceOnUse" />
    <radialGradient
       cx="48"
       cy="90.171875"
       r="42"
       fx="48"
       fy="90.171875"
       id="radialGradient3619"
       xlink:href="#linearGradient3737"
       gradientUnits="userSpaceOnUse"
       gradientTransform="matrix(1.1573129,0,0,0.99590774,-7.5510206,0.19713193)" />
    <clipPath
       id="clipPath3613">
      <rect
         width="84"
         height="84"
         rx="6"
         ry="6"
         x="6"
         y="6"
         id="rect3615"
         style="fill:#ffffff;fill-opacity:1;fill-rule:nonzero;stroke:none" />
    </clipPath>
    <linearGradient
       x1="48"
       y1="90"
       x2="48"
       y2="5.9877172"
       id="linearGradient3617"
       xlink:href="#linearGradient2881"
       gradientUnits="userSpaceOnUse" />
    <linearGradient
       x1="48.082497"
       y1="75.561722"
       x2="46.654823"
       y2="16.972879"
       id="linearGradient3707"
       xlink:href="#linearGradient3731"
       gradientUnits="userSpaceOnUse"
       gradientTransform="translate(0,1)" />
    <linearGradient
       x1="45.447727"
       y1="92.539597"
       x2="45.447727"
       y2="7.0165396"
       id="ButtonShadow-0"
       gradientUnits="userSpaceOnUse"
       gradientTransform="matrix(1.0058652,0,0,0.994169,100,0)">
      <stop
         id="stop3750-8"
         style="stop-color:#000000;stop-opacity:1"
         offset="0" />
      <stop
         id="stop3752-5"
         style="stop-color:#000000;stop-opacity:0.58823532"
         offset="1" />
    </linearGradient>
    <linearGradient
       x1="32.251034"
       y1="6.1317081"
       x2="32.251034"
       y2="90.238609"
       id="linearGradient3780"
       xlink:href="#ButtonShadow-0"
       gradientUnits="userSpaceOnUse"
       gradientTransform="matrix(1.0238095,0,0,1.0119048,-1.1428571,-98.071429)" />
    <linearGradient
       x1="32.251034"
       y1="6.1317081"
       x2="32.251034"
       y2="90.238609"
       id="linearGradient3772"
       xlink:href="#ButtonShadow-0"
       gradientUnits="userSpaceOnUse"
       gradientTransform="matrix(1.0238095,0,0,1.0119048,-1.1428571,-98.071429)" />
    <linearGradient
       x1="32.251034"
       y1="6.1317081"
       x2="32.251034"
       y2="90.238609"
       id="linearGradient3725"
       xlink:href="#ButtonShadow-0"
       gradientUnits="userSpaceOnUse"
       gradientTransform="matrix(1.0238095,0,0,1.0119048,-1.1428571,-98.071429)" />
    <linearGradient
       x1="32.251034"
       y1="6.1317081"
       x2="32.251034"
       y2="90.238609"
       id="linearGradient3721"
       xlink:href="#ButtonShadow-0"
       gradientUnits="userSpaceOnUse"
       gradientTransform="translate(0,-97)" />
    <linearGradient
       x1="32.251034"
       y1="6.1317081"
       x2="32.251034"
       y2="90.238609"
       id="linearGradient2918"
       xlink:href="#ButtonShadow-0"
       gradientUnits="userSpaceOnUse"
       gradientTransform="matrix(1.0238095,0,0,1.0119048,-1.1428571,-98.071429)" />
    <inkscape:perspective
       sodipodi:type="inkscape:persp3d"
       inkscape:vp_x="0 : 0.5 : 1"
       inkscape:vp_y="0 : 1000 : 0"
       inkscape:vp_z="1 : 0.5 : 1"
       inkscape:persp3d-origin="0.5 : 0.33333333 : 1"
       id="perspective2862" />
    <linearGradient
       y2="4.625"
       x2="14.524625"
       y1="17.41902"
       x1="14.524625"
       gradientTransform="translate(1,0)"
       gradientUnits="userSpaceOnUse"
       id="linearGradient3680"
       xlink:href="#linearGradient4081"
       inkscape:collect="always" />
    <linearGradient
       y2="2.5"
       x2="16.5"
       y1="19.542921"
       x1="16.5"
       gradientTransform="translate(1,0)"
       gradientUnits="userSpaceOnUse"
       id="linearGradient3552"
       xlink:href="#linearGradient4081"
       inkscape:collect="always" />
    <linearGradient
       y2="6.7458849"
       x2="10.50519"
       y1="15.28125"
       x1="10.50519"
       gradientTransform="translate(1,0)"
       gradientUnits="userSpaceOnUse"
       id="linearGradient3542"
       xlink:href="#linearGradient4081"
       inkscape:collect="always" />
    <linearGradient
       y2="4.625"
       x2="14.524625"
       y1="17.41902"
       x1="14.524625"
       gradientTransform="translate(1,0)"
       gradientUnits="userSpaceOnUse"
       id="linearGradient3540"
       xlink:href="#linearGradient4081"
       inkscape:collect="always" />
    <linearGradient
       y2="6.0528178"
       x2="6.8391123"
       y1="16.300354"
       x1="6.8391123"
       gradientTransform="translate(1,0)"
       gradientUnits="userSpaceOnUse"
       id="linearGradient3527"
       xlink:href="#linearGradient4081"
       inkscape:collect="always" />
    <linearGradient
       gradientTransform="translate(1,0)"
       y2="6.0528178"
       x2="6.8391123"
       y1="16.300354"
       x1="6.8391123"
       gradientUnits="userSpaceOnUse"
       id="linearGradient3522"
       xlink:href="#linearGradient4081"
       inkscape:collect="always" />
    <linearGradient
       y2="0.96705598"
       x2="18.764908"
       y1="21"
       x1="18.764908"
       gradientUnits="userSpaceOnUse"
       id="linearGradient3357"
       xlink:href="#linearGradient4081"
       inkscape:collect="always" />
    <linearGradient
       y2="3.4817097"
       x2="12.316144"
       y1="18.468353"
       x1="12.316144"
       gradientUnits="userSpaceOnUse"
       id="linearGradient3355"
       xlink:href="#linearGradient4081"
       inkscape:collect="always" />
    <linearGradient
       y2="6.0528178"
       x2="6.8391123"
       y1="16.300354"
       x1="6.8391123"
       gradientUnits="userSpaceOnUse"
       id="linearGradient3345"
       xlink:href="#linearGradient4081"
       inkscape:collect="always" />
    <linearGradient
       gradientTransform="translate(-30,-30)"
       y2="7.9960599"
       x2="13"
       y1="20"
       x1="13"
       gradientUnits="userSpaceOnUse"
       id="linearGradient5077"
       xlink:href="#linearGradient4081"
       inkscape:collect="always" />
    <linearGradient
       gradientTransform="translate(-30,-30)"
       y2="6.3640523"
       x2="4.9496975"
       y1="9.3934212"
       x1="4.9496975"
       gradientUnits="userSpaceOnUse"
       id="linearGradient5074"
       xlink:href="#linearGradient4081"
       inkscape:collect="always" />
    <linearGradient
       gradientTransform="translate(-30,-30)"
       y2="4.0347266"
       x2="7.3737612"
       y1="7.6049061"
       x1="7.3737612"
       gradientUnits="userSpaceOnUse"
       id="linearGradient5071"
       xlink:href="#linearGradient4081"
       inkscape:collect="always" />
    <linearGradient
       gradientTransform="translate(-30,-30)"
       y2="1.9877422"
       x2="17.212025"
       y1="7.3808393"
       x1="17.212025"
       gradientUnits="userSpaceOnUse"
       id="linearGradient5068"
       xlink:href="#linearGradient4081"
       inkscape:collect="always" />
    <linearGradient
       gradientTransform="translate(-30,-30)"
       y2="2.6882501"
       x2="11.508813"
       y1="6.667244"
       x1="11.508813"
       gradientUnits="userSpaceOnUse"
       id="linearGradient5065"
       xlink:href="#linearGradient4081"
       inkscape:collect="always" />
    <clipPath
       id="clipPath4995"
       clipPathUnits="userSpaceOnUse">
      <path
         inkscape:connector-curvature="0"
         id="path4997"
         d="M 30,0 30,22 52,22 52,0 30,0 z M 46.625,2 C 47.31719,1.953827 47.915497,2.159052 48.15625,2.625 48.547995,3.383178 48.021489,4.722239 46.875,5.9375 45.813682,7.0624791 44.662734,7.613335 44.03125,7.28125 43.692147,7.1029241 43.337976,6.531842 43.25,6.0625 43.079371,5.1522168 43.716105,3.517873 44.5,2.875 45.13978,2.350316 45.93281,2.046173 46.625,2 z m -5.65625,0.71875 c 0.587443,-5.291e-4 0.931359,0.387341 1.03125,1.1875 0.122053,0.9776909 -0.466886,2.437543 -1.09375,2.65625 -0.378449,0.1320361 -0.385988,0.145631 -0.6875,0 C 39.81322,6.3666318 39.502528,5.57142 39.5,4.6875 39.496306,3.3967078 40.005789,2.719616 40.96875,2.71875 z m -3.8125,1.3125 c 0.540549,-0.078161 1.052166,0.4914325 1.25,1.5625 0.129721,0.702307 0.01014,1.342367 -0.375,1.75 C 37.675716,7.7200481 37.392601,7.695296 37,7.28125 36.475145,6.7277249 36.286196,6.305553 36.28125,5.53125 36.277056,4.8747068 36.281636,4.687396 36.625,4.34375 36.795347,4.173262 36.976067,4.0573035 37.15625,4.03125 z M 34.46875,6.375 C 35.029603,6.2837687 35.599846,6.8233425 35.8125,7.78125 36.111327,9.1273309 35.405425,9.830669 34.53125,9.0625 33.798831,8.4188978 33.476154,7.14923 33.9375,6.6875 34.1133,6.5115553 34.281799,6.4054104 34.46875,6.375 z M 42.5,8.0625 c 1.85718,0.031955 3.14852,0.7276993 3.28125,1.90625 0.128489,1.140889 -0.735884,2.17506 -3.25,3.875 -1.784687,1.20673 -2.5,1.868506 -2.5,2.3125 0,0.638209 0.793132,1.25 1.5625,1.25 0.485462,0 0.72281,-0.260882 0.9375,-1 0.284244,-0.978568 0.86548,-1.299646 2.25,-1.3125 0.969842,-0.009 1.267977,0.200172 1.3125,0.96875 0.02607,0.450122 -0.01637,0.68025 -0.28125,1.21875 -0.434197,0.882715 -1.448714,1.902761 -2.34375,2.34375 -0.610748,0.300916 -0.803284,0.343192 -1.75,0.375 -0.825837,0.02774 -1.179264,-0.0069 -1.625,-0.15625 C 39.234152,19.555813 38.719088,19.248703 37.875,18.5625 35.609396,16.720678 34.420581,14.021963 35.0625,12.125 35.327697,11.341306 35.640611,10.831715 36.1875,10.28125 37.13709,9.3254488 38.61799,8.627471 40.46875,8.25 41.187196,8.1034691 41.88094,8.0518483 42.5,8.0625 z"
         style="fill:#ffffff;fill-opacity:1;fill-rule:nonzero;stroke:none;display:inline" />
    </clipPath>
    <clipPath
       id="clipPath4974"
       clipPathUnits="userSpaceOnUse">
      <path
         inkscape:connector-curvature="0"
         style="fill:#ffffff;fill-opacity:1;stroke:none"
         d="M 16.625,2 C 15.93281,2.046173 15.13978,2.350316 14.5,2.875 13.716105,3.517873 13.079371,5.1522168 13.25,6.0625 13.337976,6.531842 13.692147,7.1029241 14.03125,7.28125 14.662734,7.613335 15.813682,7.0624791 16.875,5.9375 18.021489,4.722239 18.547995,3.383178 18.15625,2.625 17.915497,2.159052 17.31719,1.953827 16.625,2 z M 10.96875,2.71875 C 10.005789,2.719616 9.496306,3.3967078 9.5,4.6875 c 0.00253,0.88392 0.31322,1.6791318 0.71875,1.875 0.301512,0.145631 0.309051,0.1320361 0.6875,0 C 11.533114,6.343793 12.122053,4.8839409 12,3.90625 11.900109,3.106091 11.556193,2.7182209 10.96875,2.71875 z m -3.8125,1.3125 C 6.976067,4.0573035 6.795347,4.173262 6.625,4.34375 6.281636,4.687396 6.277056,4.8747068 6.28125,5.53125 6.286196,6.305553 6.475145,6.7277249 7,7.28125 7.392601,7.695296 7.675716,7.7200481 8.03125,7.34375 8.416388,6.936117 8.535971,6.296057 8.40625,5.59375 8.208416,4.5226825 7.696799,3.9530895 7.15625,4.03125 z M 4.46875,6.375 C 4.281799,6.4054104 4.1133,6.5115553 3.9375,6.6875 3.476154,7.14923 3.798831,8.4188978 4.53125,9.0625 5.405425,9.830669 6.111327,9.1273309 5.8125,7.78125 5.599846,6.8233425 5.029603,6.2837687 4.46875,6.375 z M 12.5,8.0625 C 11.88094,8.0518483 11.187196,8.1034691 10.46875,8.25 8.61799,8.627471 7.13709,9.3254488 6.1875,10.28125 5.640611,10.831715 5.327697,11.341306 5.0625,12.125 c -0.641919,1.896963 0.546896,4.595678 2.8125,6.4375 0.844088,0.686203 1.359152,0.993313 2.21875,1.28125 0.445736,0.149308 0.799163,0.183992 1.625,0.15625 0.946716,-0.03181 1.139252,-0.07408 1.75,-0.375 0.895036,-0.440989 1.909553,-1.461035 2.34375,-2.34375 0.264885,-0.5385 0.307321,-0.768628 0.28125,-1.21875 -0.04452,-0.768578 -0.342658,-0.977756 -1.3125,-0.96875 -1.38452,0.01285 -1.965756,0.333932 -2.25,1.3125 -0.21469,0.739118 -0.452038,1 -0.9375,1 -0.769368,0 -1.5625,-0.611791 -1.5625,-1.25 0,-0.443994 0.715313,-1.10577 2.5,-2.3125 2.514116,-1.69994 3.378489,-2.734111 3.25,-3.875 C 15.64852,8.7901993 14.35718,8.0944552 12.5,8.0625 z"
         id="path4976" />
    </clipPath>
    <linearGradient
       y2="36.995476"
       x2="6.101758"
       y1="154.58195"
       x1="6.101758"
       gradientTransform="matrix(0.1317916,0,0,0.1317916,11.619896,-1.9882468)"
       gradientUnits="userSpaceOnUse"
       id="linearGradient2510"
       xlink:href="#linearGradient4081"
       inkscape:collect="always" />
    <linearGradient
       y2="36.995476"
       x2="6.101758"
       y1="154.58195"
       x1="6.101758"
       gradientTransform="matrix(0.1317916,0,0,0.1317916,11.619896,-1.9882468)"
       gradientUnits="userSpaceOnUse"
       id="linearGradient2508"
       xlink:href="#linearGradient4081"
       inkscape:collect="always" />
    <linearGradient
       y2="36.995476"
       x2="6.101758"
       y1="154.58195"
       x1="6.101758"
       gradientUnits="userSpaceOnUse"
       id="linearGradient2506"
       xlink:href="#linearGradient4081"
       inkscape:collect="always" />
    <linearGradient
       y2="36.995476"
       x2="6.101758"
       y1="154.58195"
       x1="6.101758"
       gradientTransform="matrix(0.1256322,0,0,0.1256322,11.921746,-1.0005124)"
       gradientUnits="userSpaceOnUse"
       id="linearGradient2504"
       xlink:href="#linearGradient4081"
       inkscape:collect="always" />
    <linearGradient
       y2="36.995476"
       x2="6.101758"
       y1="154.58195"
       x1="6.101758"
       gradientTransform="matrix(0.1256322,0,0,0.1256322,11.921746,-1.0005124)"
       gradientUnits="userSpaceOnUse"
       id="linearGradient2501"
       xlink:href="#linearGradient4081"
       inkscape:collect="always" />
    <linearGradient
       y2="36.995476"
       x2="6.101758"
       y1="154.58195"
       x1="6.101758"
       gradientTransform="matrix(0.1256322,0,0,0.1256322,11.921746,-1.0005124)"
       gradientUnits="userSpaceOnUse"
       id="linearGradient2498"
       xlink:href="#linearGradient4081"
       inkscape:collect="always" />
    <linearGradient
       y2="36.995476"
       x2="6.101758"
       y1="154.58195"
       x1="6.101758"
       gradientTransform="matrix(0.1256322,0,0,0.1256322,11.921746,-1.0005124)"
       gradientUnits="userSpaceOnUse"
       id="linearGradient2495"
       xlink:href="#linearGradient4081"
       inkscape:collect="always" />
    <linearGradient
       y2="36.995476"
       x2="6.101758"
       y1="154.58195"
       x1="6.101758"
       gradientTransform="matrix(0.1256322,0,0,0.1256322,11.921746,-1.0005124)"
       gradientUnits="userSpaceOnUse"
       id="linearGradient2489"
       xlink:href="#linearGradient4081"
       inkscape:collect="always" />
    <linearGradient
       y2="36.995476"
       x2="6.101758"
       y1="154.58195"
       x1="6.101758"
       gradientTransform="matrix(0.1256322,0,0,0.1256322,11.921746,-1.0005124)"
       gradientUnits="userSpaceOnUse"
       id="linearGradient2483"
       xlink:href="#linearGradient4081"
       inkscape:collect="always" />
    <linearGradient
       y2="36.995476"
       x2="6.101758"
       y1="154.58195"
       x1="6.101758"
       gradientTransform="matrix(0.1256322,0,0,0.1256322,11.921746,-1.0005124)"
       gradientUnits="userSpaceOnUse"
       id="linearGradient2480"
       xlink:href="#linearGradient4081"
       inkscape:collect="always" />
    <linearGradient
       y2="36.995476"
       x2="6.101758"
       y1="154.58195"
       x1="6.101758"
       gradientTransform="matrix(0.1317916,0,0,0.1317916,11.619896,-1.9882468)"
       gradientUnits="userSpaceOnUse"
       id="linearGradient4186"
       xlink:href="#linearGradient4081"
       inkscape:collect="always" />
    <linearGradient
       y2="36.995476"
       x2="6.101758"
       y1="154.58195"
       x1="6.101758"
       gradientUnits="userSpaceOnUse"
       id="linearGradient4184"
       xlink:href="#linearGradient4081"
       inkscape:collect="always" />
    <linearGradient
       y2="36.995476"
       x2="6.101758"
       y1="154.58195"
       x1="6.101758"
       gradientTransform="matrix(0.1317916,0,0,0.1317916,11.619896,-1.9882468)"
       gradientUnits="userSpaceOnUse"
       id="linearGradient4182"
       xlink:href="#linearGradient4081"
       inkscape:collect="always" />
    <linearGradient
       y2="36.995476"
       x2="6.101758"
       y1="154.58195"
       x1="6.101758"
       gradientUnits="userSpaceOnUse"
       id="linearGradient4180"
       xlink:href="#linearGradient4081"
       inkscape:collect="always" />
    <linearGradient
       gradientTransform="matrix(0.1317916,0,0,0.1317916,11.619896,-1.9882468)"
       y2="36.995476"
       x2="6.101758"
       y1="154.58195"
       x1="6.101758"
       gradientUnits="userSpaceOnUse"
       id="linearGradient4158"
       xlink:href="#linearGradient4081"
       inkscape:collect="always" />
    <linearGradient
       gradientTransform="matrix(0.1317916,0,0,0.1317916,11.619896,-1.9882468)"
       y2="36.995476"
       x2="6.101758"
       y1="154.58195"
       x1="6.101758"
       gradientUnits="userSpaceOnUse"
       id="linearGradient4148"
       xlink:href="#linearGradient4081"
       inkscape:collect="always" />
    <linearGradient
       gradientTransform="matrix(0.1317916,0,0,0.1317916,11.619896,-1.9882468)"
       y2="36.995476"
       x2="6.101758"
       y1="154.58195"
       x1="6.101758"
       gradientUnits="userSpaceOnUse"
       id="linearGradient4141"
       xlink:href="#linearGradient4081"
       inkscape:collect="always" />
    <linearGradient
       gradientTransform="matrix(0.1317916,0,0,0.1317916,11.619896,-1.9882468)"
       y2="36.995476"
       x2="6.101758"
       y1="154.58195"
       x1="6.101758"
       gradientUnits="userSpaceOnUse"
       id="linearGradient4132"
       xlink:href="#linearGradient4081"
       inkscape:collect="always" />
    <linearGradient
       y2="36.995476"
       x2="6.101758"
       y1="154.58195"
       x1="6.101758"
       gradientUnits="userSpaceOnUse"
       id="linearGradient4129"
       xlink:href="#linearGradient4081"
       inkscape:collect="always" />
    <linearGradient
       y2="36.995476"
       x2="6.101758"
       y1="154.58195"
       x1="6.101758"
       gradientUnits="userSpaceOnUse"
       id="linearGradient4127"
       xlink:href="#linearGradient4081"
       inkscape:collect="always" />
    <linearGradient
       y2="36.995476"
       x2="6.101758"
       y1="154.58195"
       x1="6.101758"
       gradientUnits="userSpaceOnUse"
       id="linearGradient4125"
       xlink:href="#linearGradient4081"
       inkscape:collect="always" />
    <linearGradient
       y2="36.995476"
       x2="6.101758"
       y1="154.58195"
       x1="6.101758"
       gradientUnits="userSpaceOnUse"
       id="linearGradient4123"
       xlink:href="#linearGradient4081"
       inkscape:collect="always" />
    <linearGradient
       y2="36.995476"
       x2="6.101758"
       y1="154.58195"
       x1="6.101758"
       gradientUnits="userSpaceOnUse"
       id="linearGradient4121"
       xlink:href="#linearGradient4081"
       inkscape:collect="always" />
    <linearGradient
       y2="36.995476"
       x2="6.101758"
       y1="154.58195"
       x1="6.101758"
       gradientUnits="userSpaceOnUse"
       id="linearGradient4119"
       xlink:href="#linearGradient4081"
       inkscape:collect="always" />
    <linearGradient
       y2="36.995476"
       x2="6.101758"
       y1="154.58195"
       x1="6.101758"
       gradientUnits="userSpaceOnUse"
       id="linearGradient4117"
       xlink:href="#linearGradient4081"
       inkscape:collect="always" />
    <linearGradient
       y2="36.995476"
       x2="6.101758"
       y1="154.58195"
       x1="6.101758"
       gradientUnits="userSpaceOnUse"
       id="linearGradient4115"
       xlink:href="#linearGradient4081"
       inkscape:collect="always" />
    <linearGradient
       y2="36.995476"
       x2="6.101758"
       y1="154.58195"
       x1="6.101758"
       gradientUnits="userSpaceOnUse"
       id="linearGradient4113"
       xlink:href="#linearGradient4081"
       inkscape:collect="always" />
    <linearGradient
       y2="36.995476"
       x2="6.101758"
       y1="154.58195"
       x1="6.101758"
       gradientUnits="userSpaceOnUse"
       id="linearGradient4111"
       xlink:href="#linearGradient4081"
       inkscape:collect="always" />
    <linearGradient
       y2="36.995476"
       x2="6.101758"
       y1="154.58195"
       x1="6.101758"
       gradientUnits="userSpaceOnUse"
       id="linearGradient4109"
       xlink:href="#linearGradient4081"
       inkscape:collect="always" />
    <linearGradient
       y2="36.995476"
       x2="6.101758"
       y1="154.58195"
       x1="6.101758"
       gradientUnits="userSpaceOnUse"
       id="linearGradient4107"
       xlink:href="#linearGradient4081"
       inkscape:collect="always" />
    <linearGradient
       y2="36.995476"
       x2="6.101758"
       y1="154.58195"
       x1="6.101758"
       gradientUnits="userSpaceOnUse"
       id="linearGradient4105"
       xlink:href="#linearGradient4081"
       inkscape:collect="always" />
    <linearGradient
       y2="36.995476"
       x2="6.101758"
       y1="154.58195"
       x1="6.101758"
       gradientUnits="userSpaceOnUse"
       id="linearGradient4103"
       xlink:href="#linearGradient4081"
       inkscape:collect="always" />
    <linearGradient
       gradientUnits="userSpaceOnUse"
       y2="36.995476"
       x2="6.101758"
       y1="154.58195"
       x1="6.101758"
       id="linearGradient4089"
       xlink:href="#linearGradient4081"
       inkscape:collect="always" />
    <linearGradient
       gradientUnits="userSpaceOnUse"
       y2="0.97239029"
       x2="9.17138"
       y1="21.000002"
       x1="9.17138"
       id="linearGradient4063"
       xlink:href="#linearGradient4057"
       inkscape:collect="always" />
    <linearGradient
       gradientUnits="userSpaceOnUse"
       y2="-4.1786065"
       x2="9.494998"
       y1="15.516565"
       x1="9.494998"
       id="linearGradient4051"
       xlink:href="#linearGradient3929"
       inkscape:collect="always" />
    <linearGradient
       id="linearGradient3929">
      <stop
         id="stop3931"
         offset="0"
         style="stop-color:#000000;stop-opacity:1;" />
      <stop
         id="stop3933"
         offset="1"
         style="stop-color:#000000;stop-opacity:0;" />
    </linearGradient>
    <linearGradient
       id="linearGradient4057">
      <stop
         id="stop4059"
         offset="0"
         style="stop-color:#816647;stop-opacity:1;" />
      <stop
         id="stop4061"
         offset="1"
         style="stop-color:#a6845d;stop-opacity:1;" />
    </linearGradient>
    <linearGradient
       id="linearGradient4081">
      <stop
         id="stop4083"
         offset="0"
         style="stop-color:#aaaaaa;stop-opacity:1;" />
      <stop
         id="stop4085"
         offset="1"
         style="stop-color:#f0f0f0;stop-opacity:1;" />
    </linearGradient>
    <inkscape:perspective
       id="perspective102"
       inkscape:persp3d-origin="11 : 7.3333333 : 1"
       inkscape:vp_z="22 : 11 : 1"
       inkscape:vp_y="0 : 1000 : 0"
       inkscape:vp_x="0 : 11 : 1"
       sodipodi:type="inkscape:persp3d" />
    <linearGradient
       gradientUnits="userSpaceOnUse"
       y2="-9.817296"
       x2="11.375"
       y1="22"
       x1="11.375"
       id="linearGradient3335"
       xlink:href="#linearGradient3327"
       inkscape:collect="always" />
    <linearGradient
       id="linearGradient3327"
       inkscape:collect="always">
      <stop
         id="stop3330"
         offset="0"
         style="stop-color:#000000;stop-opacity:1;" />
      <stop
         id="stop3333"
         offset="1"
         style="stop-color:#000000;stop-opacity:0;" />
    </linearGradient>
    <linearGradient
       id="linearGradient3271">
      <stop
         id="stop3273"
         offset="0"
         style="stop-color:#395d93;stop-opacity:1;" />
      <stop
         id="stop3275"
         offset="1"
         style="stop-color:#6e92c7;stop-opacity:1;" />
    </linearGradient>
    <linearGradient
       id="linearGradient3279">
      <stop
         id="stop3281"
         offset="0"
         style="stop-color:#f08e00;stop-opacity:1;" />
      <stop
         id="stop3283"
         offset="1"
         style="stop-color:#ffd200;stop-opacity:1;" />
    </linearGradient>
    <linearGradient
       id="linearGradient3287">
      <stop
         id="stop3289"
         offset="0"
         style="stop-color:#cd0000;stop-opacity:1;" />
      <stop
         id="stop3291"
         offset="1"
         style="stop-color:#e55300;stop-opacity:1;" />
    </linearGradient>
    <linearGradient
       id="linearGradient3295">
      <stop
         id="stop3297"
         offset="0"
         style="stop-color:#559829;stop-opacity:1;" />
      <stop
         id="stop3299"
         offset="1"
         style="stop-color:#86c837;stop-opacity:1;" />
    </linearGradient>
  </defs>
  <metadata
     id="metadata2413">
    <rdf:RDF>
      <cc:Work
         rdf:about="">
        <dc:format>image/svg+xml</dc:format>
        <dc:type
           rdf:resource="http://purl.org/dc/dcmitype/StillImage" />
        <dc:title />
      </cc:Work>
    </rdf:RDF>
  </metadata>
  <g
     id="layer2"
     style="display:none">
    <rect
       width="86"
       height="85"
       rx="6"
       ry="6"
       x="5"
       y="7"
       id="rect3745"
       style="opacity:0.9;fill:url(#ButtonShadow);fill-opacity:1;fill-rule:nonzero;stroke:none;filter:url(#filter3174)" />
  </g>
  <g
     id="layer7"
     style="display:inline" />
  <g
     id="layer5"
     style="display:inline" />
  <path
     inkscape:connector-curvature="0"
     id="path3740"
     d="m 44.934726,6 0,33.6 L 29.907432,25.411764 24.524521,30.564708 42.91614,47.929408 24.375,65.435292 29.832671,70.517654 44.934731,56.258827 44.934731,90 71.625,64.8 53.532434,47.717645 71.550235,30.776472 44.934726,6 z m 6.952937,16.094119 9.195798,8.823531 -9.195798,8.68235 0,-17.505881 z m 0,33.529417 9.195798,8.894109 -9.195798,8.682355 0,-17.576464 z"
     style="fill:#cbcbcb;fill-opacity:1;fill-rule:evenodd;display:inline;overflow:visible" />
</svg>
