<?xml version="1.0" encoding="UTF-8" standalone="no"?>
<!-- Created with Inkscape (http://www.inkscape.org/) -->

<svg
   xmlns:dc="http://purl.org/dc/elements/1.1/"
   xmlns:cc="http://creativecommons.org/ns#"
   xmlns:rdf="http://www.w3.org/1999/02/22-rdf-syntax-ns#"
   xmlns:svg="http://www.w3.org/2000/svg"
   xmlns="http://www.w3.org/2000/svg"
   xmlns:sodipodi="http://sodipodi.sourceforge.net/DTD/sodipodi-0.dtd"
   xmlns:inkscape="http://www.inkscape.org/namespaces/inkscape"
   id="svg7384"
   version="1.1"
   inkscape:version="0.48.4 r9939"
   height="16"
   sodipodi:docname="user-trash-full.svg"
   width="16.000002">
  <metadata
     id="metadata90">
    <rdf:RDF>
      <cc:Work
         rdf:about="">
        <dc:format>image/svg+xml</dc:format>
        <dc:type
           rdf:resource="http://purl.org/dc/dcmitype/StillImage" />
        <dc:title>Gnome Symbolic Icon Theme</dc:title>
      </cc:Work>
    </rdf:RDF>
  </metadata>
  <sodipodi:namedview
     inkscape:cy="6.5821436"
     inkscape:current-layer="layer13"
     inkscape:window-width="1920"
     pagecolor="#555753"
     showborder="true"
     showguides="true"
     inkscape:snap-nodes="true"
     objecttolerance="10"
     showgrid="true"
     inkscape:object-nodes="true"
     inkscape:pageshadow="2"
     inkscape:guide-bbox="true"
     inkscape:window-x="0"
     inkscape:snap-bbox="true"
     bordercolor="#a0a0a0"
     id="namedview88"
     inkscape:window-maximized="1"
     inkscape:snap-global="true"
     inkscape:window-y="25"
     gridtolerance="10"
     inkscape:zoom="38.141077"
     inkscape:window-height="1005"
     borderopacity="1"
     guidetolerance="10"
     inkscape:cx="3.1361633"
     inkscape:bbox-paths="false"
     inkscape:snap-grids="true"
     inkscape:pageopacity="1"
     inkscape:snap-to-guides="true">
    <inkscape:grid
       visible="true"
       spacingx="1px"
       type="xygrid"
       spacingy="1px"
       id="grid4866"
       empspacing="2"
       enabled="true"
       snapvisiblegridlinesonly="true" />
  </sodipodi:namedview>
  <title
     id="title9167">Gnome Symbolic Icon Theme</title>
  <defs
     id="defs7386" />
  <g
     transform="translate(-482,-176)"
     inkscape:groupmode="layer"
     id="layer9"
     inkscape:label="status"
     style="display:inline" />
  <g
     transform="translate(-482,-176)"
     inkscape:groupmode="layer"
     id="layer10"
     inkscape:label="devices" />
  <g
     transform="translate(-482,-176)"
     inkscape:groupmode="layer"
     id="layer11"
     inkscape:label="apps" />
  <g
     transform="translate(-482,-176)"
     inkscape:groupmode="layer"
     id="layer12"
     inkscape:label="actions" />
  <g
     transform="translate(-482,-176)"
     inkscape:groupmode="layer"
     id="layer13"
     inkscape:label="places">
    <path
       style="color:#000000;fill:#a0a0a0;fill-opacity:1;fill-rule:nonzero;stroke:none;stroke-width:1.5;marker:none;visibility:visible;display:inline;overflow:visible;enable-background:accumulate"
       d="m 456.99999,174.75 c -0.48476,0 -0.875,0.39024 -0.875,0.875 l 0,0.875 -3.5,0 c -0.48475,0 -0.87501,0.39025 -0.87501,0.875 l 0,0.875 13.12501,0 0,-0.875 c 0,-0.48475 -0.39025,-0.875 -0.87499,-0.875 l -3.50002,0 0,-0.875 c 0,-0.48476 -0.39024,-0.875 -0.87499,-0.875 l -2.625,0 z m 0,0.875 2.625,0 0,0.875 -2.625,0 0,-0.875 z m -4.375,3.5 0,7.875 c 0,0.9695 0.78049,1.75 1.74999,1.75 l 7.87501,0 c 0.9695,0 1.62975,-0.78798 1.75001,-1.75 l 0,-7.875 -1.75001,0 0,7 c 0,0.48476 -0.39025,0.875 -0.87499,0.875 l -6.12501,0 c -0.48474,0 -0.87501,-0.39024 -0.87501,-0.875 l 0,-7 -1.74999,0 z m 2.625,0 0,5.6875 c 0,0.24237 0.19513,0.43751 0.43749,0.43751 0.24238,0 0.43751,-0.19514 0.43751,-0.43751 l 0,-5.6875 -0.875,0 z m 1.75,0 0,5.6875 c 0,0.24237 0.19512,0.43751 0.4375,0.43751 0.24238,0 0.43749,-0.19514 0.43749,-0.43751 l 0,-5.6875 -0.87499,0 z m 1.75001,0 0,5.6875 c 0,0.24237 0.19511,0.43751 0.43748,0.43751 0.24238,0 0.43751,-0.19514 0.43751,-0.43751 l 0,-5.6875 -0.87499,0 z m 1.74998,0 0,5.6875 c 0,0.24237 0.19514,0.43751 0.43751,0.43751 0.24238,0 0.43751,-0.19514 0.43751,-0.43751 l 0,-5.6875 -0.87502,0 z"
       id="rect2993"
       inkscape:connector-curvature="0" />
    <rect
       style="color:#000000;fill:#b3b3b3;fill-opacity:1;fill-rule:nonzero;stroke:none;stroke-width:1px;marker:none;visibility:visible;display:inline;overflow:visible;enable-background:accumulate"
       id="rect3014"
       width="4"
       height="2"
       x="488"
       y="177" />
    <path
       inkscape:connector-curvature="0"
       style="color:#000000;fill:#b3b3b3;fill-opacity:1;fill-rule:nonzero;stroke:none;stroke-width:1px;marker:none;visibility:visible;display:inline;overflow:visible;enable-background:accumulate"
       d="m 484,178 0,2 1,0 0,-1 10,0 0,1 1,0 0,-2 -12,0 z"
       id="rect3016" />
    <path
       inkscape:connector-curvature="0"
       style="color:#000000;fill:#b3b3b3;fill-opacity:1;fill-rule:nonzero;stroke:none;stroke-width:1px;marker:none;visibility:visible;display:inline;overflow:visible;enable-background:accumulate"
       d="m 485,180 1,11 8,0 1,-11 -10,0 z m 1,1 8,0 -0.8125,9 -6.375,0 L 486,181 z"
       id="path3030" />
    <path
       inkscape:connector-curvature="0"
       style="opacity:1;color:#000000;fill:#b3b3b3;fill-opacity:1;fill-rule:nonzero;stroke:none;stroke-width:1px;marker:none;visibility:visible;display:inline;overflow:visible;enable-background:accumulate"
       d="m 486,181 8,0 -0.8125,9 -6.375,0 L 486,181 z"
       id="rect3018" />
  </g>
  <g
     transform="translate(-482,-176)"
     inkscape:groupmode="layer"
     id="layer14"
     inkscape:label="mimetypes" />
  <g
     transform="translate(-482,-176)"
     inkscape:groupmode="layer"
     id="layer15"
     inkscape:label="emblems"
     style="display:inline" />
</svg>
