<?xml version="1.0" encoding="UTF-8" standalone="no"?>
<!-- Created with Inkscape (http://www.inkscape.org/) -->

<svg
   xmlns:dc="http://purl.org/dc/elements/1.1/"
   xmlns:cc="http://creativecommons.org/ns#"
   xmlns:rdf="http://www.w3.org/1999/02/22-rdf-syntax-ns#"
   xmlns:svg="http://www.w3.org/2000/svg"
   xmlns="http://www.w3.org/2000/svg"
   xmlns:xlink="http://www.w3.org/1999/xlink"
   xmlns:sodipodi="http://sodipodi.sourceforge.net/DTD/sodipodi-0.dtd"
   xmlns:inkscape="http://www.inkscape.org/namespaces/inkscape"
   version="1.0"
   width="96"
   height="96"
   id="svg2408"
   inkscape:version="0.48.4 r9939"
   sodipodi:docname="network-error.svg">
  <sodipodi:namedview
     pagecolor="#ffffff"
     bordercolor="#666666"
     borderopacity="1"
     objecttolerance="10"
     gridtolerance="10"
     guidetolerance="10"
     inkscape:pageopacity="0"
     inkscape:pageshadow="2"
     inkscape:window-width="1920"
     inkscape:window-height="1005"
     id="namedview64"
     showgrid="false"
     inkscape:zoom="3.4766083"
     inkscape:cx="117.85951"
     inkscape:cy="84.162318"
     inkscape:window-x="0"
     inkscape:window-y="25"
     inkscape:window-maximized="1"
     inkscape:current-layer="svg2408" />
  <defs
     id="defs2410">
    <linearGradient
       x1="45.447727"
       y1="92.539597"
       x2="45.447727"
       y2="7.0165396"
       id="ButtonShadow"
       gradientUnits="userSpaceOnUse"
       gradientTransform="scale(1.0058652,0.994169)">
      <stop
         id="stop3750"
         style="stop-color:#000000;stop-opacity:1"
         offset="0" />
      <stop
         id="stop3752"
         style="stop-color:#000000;stop-opacity:0.58823532"
         offset="1" />
    </linearGradient>
    <linearGradient
       id="linearGradient3737">
      <stop
         id="stop3739"
         style="stop-color:#ffffff;stop-opacity:1"
         offset="0" />
      <stop
         id="stop3741"
         style="stop-color:#ffffff;stop-opacity:0"
         offset="1" />
    </linearGradient>
    <filter
       color-interpolation-filters="sRGB"
       id="filter3174">
      <feGaussianBlur
         id="feGaussianBlur3176"
         stdDeviation="1.71" />
    </filter>
    <linearGradient
       x1="36.357143"
       y1="6"
       x2="36.357143"
       y2="63.893143"
       id="linearGradient3188"
       xlink:href="#linearGradient3737"
       gradientUnits="userSpaceOnUse" />
    <filter
       x="-0.192"
       y="-0.192"
       width="1.3839999"
       height="1.3839999"
       color-interpolation-filters="sRGB"
       id="filter3794">
      <feGaussianBlur
         id="feGaussianBlur3796"
         stdDeviation="5.28" />
    </filter>
    <linearGradient
       x1="48"
       y1="20.220806"
       x2="48"
       y2="138.66119"
       id="linearGradient3613"
       xlink:href="#linearGradient3737"
       gradientUnits="userSpaceOnUse" />
    <radialGradient
       cx="48"
       cy="90.171875"
       r="42"
       fx="48"
       fy="90.171875"
       id="radialGradient3619"
       xlink:href="#linearGradient3737"
       gradientUnits="userSpaceOnUse"
       gradientTransform="matrix(1.1573129,0,0,0.99590774,-7.5510206,0.19713193)" />
    <clipPath
       id="clipPath3613">
      <rect
         width="84"
         height="84"
         rx="6"
         ry="6"
         x="6"
         y="6"
         id="rect3615"
         style="fill:#ffffff;fill-opacity:1;fill-rule:nonzero;stroke:none" />
    </clipPath>
    <linearGradient
       id="linearGradient4081">
      <stop
         id="stop4083"
         style="stop-color:#aaaaaa;stop-opacity:1"
         offset="0" />
      <stop
         id="stop4085-9"
         style="stop-color:#f0f0f0;stop-opacity:1"
         offset="1" />
    </linearGradient>
    <linearGradient
       x1="45.447727"
       y1="92.539597"
       x2="45.447727"
       y2="7.0165396"
       id="ButtonShadow-0"
       gradientUnits="userSpaceOnUse"
       gradientTransform="matrix(1.0058652,0,0,0.994169,100,0)">
      <stop
         id="stop3750-8"
         style="stop-color:#000000;stop-opacity:1"
         offset="0" />
      <stop
         id="stop3752-5"
         style="stop-color:#000000;stop-opacity:0.58823532"
         offset="1" />
    </linearGradient>
    <linearGradient
       x1="32.251034"
       y1="6.1317081"
       x2="32.251034"
       y2="90.238609"
       id="linearGradient3780"
       xlink:href="#ButtonShadow-0"
       gradientUnits="userSpaceOnUse"
       gradientTransform="matrix(1.0238095,0,0,-1.0119048,-1.1428571,98.071429)" />
    <linearGradient
       x1="32.251034"
       y1="6.1317081"
       x2="32.251034"
       y2="90.238609"
       id="linearGradient3772"
       xlink:href="#ButtonShadow-0"
       gradientUnits="userSpaceOnUse"
       gradientTransform="matrix(1.0238095,0,0,-1.0119048,-1.1428571,98.071429)" />
    <linearGradient
       x1="32.251034"
       y1="6.1317081"
       x2="32.251034"
       y2="90.238609"
       id="linearGradient3725"
       xlink:href="#ButtonShadow-0"
       gradientUnits="userSpaceOnUse"
       gradientTransform="matrix(1.0238095,0,0,-1.0119048,-1.1428571,98.071429)" />
    <linearGradient
       x1="32.251034"
       y1="6.1317081"
       x2="32.251034"
       y2="90.238609"
       id="linearGradient3721"
       xlink:href="#ButtonShadow-0"
       gradientUnits="userSpaceOnUse"
       gradientTransform="matrix(1,0,0,-1,0,97)" />
    <linearGradient
       x1="32.251034"
       y1="6.1317081"
       x2="32.251034"
       y2="90.238609"
       id="linearGradient3016"
       xlink:href="#ButtonShadow-0"
       gradientUnits="userSpaceOnUse"
       gradientTransform="matrix(1.0238095,0,0,-1.0119048,-1.1428571,98.071429)" />
    <linearGradient
       x1="16"
       y1="48"
       x2="80"
       y2="48"
       id="linearGradient3773"
       xlink:href="#linearGradient4081"
       gradientUnits="userSpaceOnUse"
       gradientTransform="matrix(0.875,0,0,0.875,-90,-84)" />
    <linearGradient
       x1="11"
       y1="11.015625"
       x2="19"
       y2="11.015625"
       id="linearGradient2927-4"
       xlink:href="#linearGradient3183-0"
       gradientUnits="userSpaceOnUse"
       gradientTransform="matrix(0,-3.0000004,2.9652505,0,33.335916,111.00001)" />
    <linearGradient
       id="linearGradient3183-0">
      <stop
         id="stop3185-9"
         style="stop-color:#c80000;stop-opacity:1"
         offset="0" />
      <stop
         id="stop3187-6"
         style="stop-color:#f3604d;stop-opacity:1"
         offset="1" />
    </linearGradient>
    <linearGradient
       gradientTransform="matrix(1.0238095,0,0,-1.0119048,-1.1428571,98.071429)"
       gradientUnits="userSpaceOnUse"
       xlink:href="#ButtonShadow-0-3"
       id="linearGradient3016-2"
       y2="90.238609"
       x2="32.251034"
       y1="6.1317081"
       x1="32.251034" />
    <linearGradient
       gradientTransform="matrix(1,0,0,-1,0,97)"
       gradientUnits="userSpaceOnUse"
       xlink:href="#ButtonShadow-0-3"
       id="linearGradient3721-2"
       y2="90.238609"
       x2="32.251034"
       y1="6.1317081"
       x1="32.251034" />
    <linearGradient
       gradientTransform="matrix(1.0238095,0,0,-1.0119048,-1.1428571,98.071429)"
       gradientUnits="userSpaceOnUse"
       xlink:href="#ButtonShadow-0-3"
       id="linearGradient3725-1"
       y2="90.238609"
       x2="32.251034"
       y1="6.1317081"
       x1="32.251034" />
    <linearGradient
       gradientTransform="matrix(1.0238095,0,0,-1.0119048,-1.1428571,98.071429)"
       gradientUnits="userSpaceOnUse"
       xlink:href="#ButtonShadow-0-3"
       id="linearGradient3772-3"
       y2="90.238609"
       x2="32.251034"
       y1="6.1317081"
       x1="32.251034" />
    <linearGradient
       gradientTransform="matrix(1.0238095,0,0,-1.0119048,-1.1428571,98.071429)"
       gradientUnits="userSpaceOnUse"
       xlink:href="#ButtonShadow-0-3"
       id="linearGradient3780-4"
       y2="90.238609"
       x2="32.251034"
       y1="6.1317081"
       x1="32.251034" />
    <linearGradient
       gradientTransform="matrix(1.0058652,0,0,0.994169,100,0)"
       gradientUnits="userSpaceOnUse"
       id="ButtonShadow-0-3"
       y2="7.0165396"
       x2="45.447727"
       y1="92.539597"
       x1="45.447727">
      <stop
         offset="0"
         style="stop-color:#000000;stop-opacity:1"
         id="stop3750-8-2" />
      <stop
         offset="1"
         style="stop-color:#000000;stop-opacity:0.58823532"
         id="stop3752-5-5" />
    </linearGradient>
    <clipPath
       id="clipPath3613-3">
      <rect
         style="fill:#ffffff;fill-opacity:1;fill-rule:nonzero;stroke:none"
         id="rect3615-1"
         y="6"
         x="6"
         ry="6"
         rx="6"
         height="84"
         width="84" />
    </clipPath>
    <radialGradient
       gradientTransform="matrix(1.1573129,0,0,0.99590774,-7.5510206,0.19713193)"
       gradientUnits="userSpaceOnUse"
       xlink:href="#linearGradient3737-8"
       id="radialGradient3619-2"
       fy="90.171875"
       fx="48"
       r="42"
       cy="90.171875"
       cx="48" />
    <linearGradient
       gradientUnits="userSpaceOnUse"
       xlink:href="#linearGradient3737-8"
       id="linearGradient3613-8"
       y2="138.66119"
       x2="48"
       y1="20.220806"
       x1="48" />
    <filter
       id="filter3794-7"
       color-interpolation-filters="sRGB"
       height="1.3839999"
       width="1.3839999"
       y="-0.192"
       x="-0.192">
      <feGaussianBlur
         stdDeviation="5.28"
         id="feGaussianBlur3796-3" />
    </filter>
    <linearGradient
       gradientUnits="userSpaceOnUse"
       xlink:href="#linearGradient3737-8"
       id="linearGradient3188-2"
       y2="63.893143"
       x2="36.357143"
       y1="6"
       x1="36.357143" />
    <filter
       id="filter3174-9"
       color-interpolation-filters="sRGB">
      <feGaussianBlur
         stdDeviation="1.71"
         id="feGaussianBlur3176-6" />
    </filter>
    <linearGradient
       id="linearGradient3737-8">
      <stop
         offset="0"
         style="stop-color:#ffffff;stop-opacity:1"
         id="stop3739-1" />
      <stop
         offset="1"
         style="stop-color:#ffffff;stop-opacity:0"
         id="stop3741-6" />
    </linearGradient>
    <linearGradient
       gradientTransform="scale(1.0058652,0.994169)"
       gradientUnits="userSpaceOnUse"
       id="ButtonShadow-3"
       y2="7.0165396"
       x2="45.447727"
       y1="92.539597"
       x1="45.447727">
      <stop
         offset="0"
         style="stop-color:#000000;stop-opacity:1"
         id="stop3750-3" />
      <stop
         offset="1"
         style="stop-color:#000000;stop-opacity:0.58823532"
         id="stop3752-9" />
    </linearGradient>
    <linearGradient
       id="linearGradient4081-6">
      <stop
         id="stop4083-6"
         style="stop-color:#aaaaaa;stop-opacity:1"
         offset="0" />
      <stop
         id="stop4085-56"
         style="stop-color:#f0f0f0;stop-opacity:1"
         offset="1" />
    </linearGradient>
    <linearGradient
       id="linearGradient3295-9">
      <stop
         id="stop3297-2"
         style="stop-color:#559829;stop-opacity:1"
         offset="0" />
      <stop
         id="stop3299-0"
         style="stop-color:#86c837;stop-opacity:1"
         offset="1" />
    </linearGradient>
    <linearGradient
       x1="39"
       y1="72"
       x2="39.196381"
       y2="24.266857"
       id="linearGradient3763-96"
       xlink:href="#linearGradient4081-6"
       gradientUnits="userSpaceOnUse" />
    <linearGradient
       x1="39"
       y1="68"
       x2="39"
       y2="28"
       id="linearGradient3807"
       xlink:href="#linearGradient3295-9"
       gradientUnits="userSpaceOnUse"
       gradientTransform="matrix(0.77142857,0,0,0.9,4.2857143,-69.2)" />
    <linearGradient
       id="linearGradient4081-10">
      <stop
         id="stop4083-3"
         style="stop-color:#aaaaaa;stop-opacity:1"
         offset="0" />
      <stop
         id="stop4085-5"
         style="stop-color:#f0f0f0;stop-opacity:1"
         offset="1" />
    </linearGradient>
    <linearGradient
       x1="39"
       y1="72"
       x2="39.196381"
       y2="24.266857"
       id="linearGradient3763-9"
       xlink:href="#linearGradient4081-10"
       gradientUnits="userSpaceOnUse" />
    <linearGradient
       x1="44"
       y1="66"
       x2="44"
       y2="30.942904"
       id="linearGradient3636-3"
       xlink:href="#linearGradient4081-10"
       gradientUnits="userSpaceOnUse" />
    <linearGradient
       id="linearGradient4081-17">
      <stop
         id="stop4083-01"
         style="stop-color:#aaaaaa;stop-opacity:1"
         offset="0" />
      <stop
         id="stop4085-61"
         style="stop-color:#f0f0f0;stop-opacity:1"
         offset="1" />
    </linearGradient>
    <linearGradient
       x1="39"
       y1="72"
       x2="39.196381"
       y2="24.266857"
       id="linearGradient3763-3"
       xlink:href="#linearGradient4081-17"
       gradientUnits="userSpaceOnUse" />
    <linearGradient
       x1="11"
       y1="11.015625"
       x2="19"
       y2="11.015625"
       id="linearGradient2927"
       xlink:href="#linearGradient3183"
       gradientUnits="userSpaceOnUse"
       gradientTransform="matrix(0,-3.0000004,2.9652505,0,13.335916,19.000009)" />
    <linearGradient
       id="linearGradient3183">
      <stop
         id="stop3185"
         style="stop-color:#c80000;stop-opacity:1"
         offset="0" />
      <stop
         id="stop3187"
         style="stop-color:#f3604d;stop-opacity:1"
         offset="1" />
    </linearGradient>
    <linearGradient
       id="linearGradient4081-4">
      <stop
         id="stop4083-1"
         style="stop-color:#aaaaaa;stop-opacity:1"
         offset="0" />
      <stop
         id="stop4085-4"
         style="stop-color:#f0f0f0;stop-opacity:1"
         offset="1" />
    </linearGradient>
    <linearGradient
       x1="4.882854"
       y1="-33.967701"
       x2="4.882854"
       y2="-43.829292"
       id="linearGradient2955-0"
       xlink:href="#linearGradient4081-4"
       gradientUnits="userSpaceOnUse"
       gradientTransform="matrix(4.4444444,0,0,4.4444444,3.555556,147.04167)" />
    <linearGradient
       id="linearGradient4081-7-1">
      <stop
         id="stop4083-8-6"
         style="stop-color:#aaaaaa;stop-opacity:1"
         offset="0" />
      <stop
         id="stop4085-6-7"
         style="stop-color:#f0f0f0;stop-opacity:1"
         offset="1" />
    </linearGradient>
    <linearGradient
       x1="16.5"
       y1="19.542921"
       x2="16.5"
       y2="2.5"
       id="linearGradient2993-4"
       xlink:href="#linearGradient4081-7-1"
       gradientUnits="userSpaceOnUse"
       gradientTransform="matrix(4.4444444,0,0,4.4444444,3.555556,-0.958333)" />
    <linearGradient
       gradientTransform="matrix(4.4444444,0,0,4.4444444,3.555556,-0.958333)"
       gradientUnits="userSpaceOnUse"
       xlink:href="#linearGradient4081-7"
       id="linearGradient2993"
       y2="2.5"
       x2="16.5"
       y1="19.542921"
       x1="16.5" />
    <linearGradient
       id="linearGradient4081-7">
      <stop
         offset="0"
         style="stop-color:#aaaaaa;stop-opacity:1"
         id="stop4083-8" />
      <stop
         offset="1"
         style="stop-color:#f0f0f0;stop-opacity:1"
         id="stop4085-6" />
    </linearGradient>
    <linearGradient
       gradientTransform="matrix(4.4444444,0,0,4.4444444,3.555556,147.04167)"
       gradientUnits="userSpaceOnUse"
       xlink:href="#linearGradient4081-1"
       id="linearGradient2955"
       y2="-43.829292"
       x2="4.882854"
       y1="-33.967701"
       x1="4.882854" />
    <linearGradient
       id="linearGradient4081-1">
      <stop
         offset="0"
         style="stop-color:#aaaaaa;stop-opacity:1"
         id="stop4083-0" />
      <stop
         offset="1"
         style="stop-color:#f0f0f0;stop-opacity:1"
         id="stop4085-9-8" />
    </linearGradient>
    <linearGradient
       gradientUnits="userSpaceOnUse"
       xlink:href="#linearGradient4081-8"
       id="linearGradient3636-4"
       y2="30.942904"
       x2="44"
       y1="66"
       x1="44" />
    <linearGradient
       gradientUnits="userSpaceOnUse"
       xlink:href="#linearGradient4081-8"
       id="linearGradient3763-1"
       y2="24.266857"
       x2="39.196381"
       y1="72"
       x1="39" />
    <linearGradient
       id="linearGradient4081-8">
      <stop
         offset="0"
         style="stop-color:#aaaaaa;stop-opacity:1"
         id="stop4083-09" />
      <stop
         offset="1"
         style="stop-color:#f0f0f0;stop-opacity:1"
         id="stop4085-2" />
    </linearGradient>
    <linearGradient
       id="linearGradient3279">
      <stop
         offset="0"
         style="stop-color:#f08e00;stop-opacity:1"
         id="stop3281" />
      <stop
         offset="1"
         style="stop-color:#ffd200;stop-opacity:1"
         id="stop3283" />
    </linearGradient>
    <linearGradient
       gradientTransform="matrix(0.4,0,0,0.9,8,-69.2)"
       gradientUnits="userSpaceOnUse"
       xlink:href="#linearGradient3279"
       id="linearGradient3807-3"
       y2="28"
       x2="39"
       y1="68"
       x1="39" />
    <linearGradient
       gradientUnits="userSpaceOnUse"
       xlink:href="#linearGradient4081-0"
       id="linearGradient3763-4"
       y2="24.266857"
       x2="39.196381"
       y1="72"
       x1="39" />
    <linearGradient
       id="linearGradient4081-0">
      <stop
         offset="0"
         style="stop-color:#aaaaaa;stop-opacity:1"
         id="stop4083-39" />
      <stop
         offset="1"
         style="stop-color:#f0f0f0;stop-opacity:1"
         id="stop4085-3" />
    </linearGradient>
    <linearGradient
       gradientUnits="userSpaceOnUse"
       xlink:href="#linearGradient4081-70"
       id="linearGradient3636"
       y2="30.942904"
       x2="44"
       y1="66"
       x1="44" />
    <linearGradient
       gradientUnits="userSpaceOnUse"
       xlink:href="#linearGradient4081-70"
       id="linearGradient3763"
       y2="24.266857"
       x2="39.196381"
       y1="72"
       x1="39" />
    <linearGradient
       id="linearGradient4081-70">
      <stop
         offset="0"
         style="stop-color:#aaaaaa;stop-opacity:1"
         id="stop4083-9" />
      <stop
         offset="1"
         style="stop-color:#f0f0f0;stop-opacity:1"
         id="stop4085" />
    </linearGradient>
  </defs>
  <metadata
     id="metadata2413">
    <rdf:RDF>
      <cc:Work
         rdf:about="">
        <dc:format>image/svg+xml</dc:format>
        <dc:type
           rdf:resource="http://purl.org/dc/dcmitype/StillImage" />
        <dc:title />
      </cc:Work>
    </rdf:RDF>
  </metadata>
  <g
     id="layer2"
     style="display:none">
    <rect
       width="86"
       height="85"
       rx="6"
       ry="6"
       x="5"
       y="7"
       id="rect3745"
       style="opacity:0.9;fill:url(#ButtonShadow);fill-opacity:1;fill-rule:nonzero;stroke:none;filter:url(#filter3174)" />
  </g>
  <g
     id="layer3"
     style="display:inline" />
  <g
     id="layer5"
     style="display:none">
    <rect
       width="66"
       height="66"
       rx="12"
       ry="12"
       x="15"
       y="15"
       clip-path="url(#clipPath3613)"
       id="rect3171"
       style="opacity:0.1;fill:url(#linearGradient3613);fill-opacity:1;fill-rule:nonzero;stroke:#ffffff;stroke-width:0.5;stroke-linecap:round;stroke-linejoin:miter;stroke-miterlimit:4;stroke-opacity:1;stroke-dasharray:none;stroke-dashoffset:0;filter:url(#filter3794)" />
  </g>
  <g
     id="g3218">
    <g
       transform="matrix(1,0,0,1.0041091,0,-0.02465555)"
       style="display:inline"
       id="layer1">
      <path
         style="opacity:0.01000001;fill:url(#linearGradient3188);fill-opacity:1;fill-rule:nonzero;stroke:none"
         id="rect3728"
         inkscape:connector-curvature="0"
         d="M 12,6 C 8.676,6 6,8.676 6,12 l 0,2 0,68 0,2 c 0,0.334721 0.04135,0.6507 0.09375,0.96875 0.0487,0.295596 0.09704,0.596915 0.1875,0.875 0.00988,0.03038 0.020892,0.0636 0.03125,0.09375 0.098865,0.287771 0.2348802,0.547452 0.375,0.8125 0.1445918,0.273507 0.3156161,0.535615 0.5,0.78125 0.1843839,0.245635 0.3737765,0.473472 0.59375,0.6875 0.439947,0.428056 0.94291,0.814526 1.5,1.09375 0.278545,0.139612 0.5734731,0.246947 0.875,0.34375 -0.2562018,-0.100222 -0.4867109,-0.236272 -0.71875,-0.375 -0.00741,-0.0044 -0.023866,0.0045 -0.03125,0 -0.031933,-0.0193 -0.062293,-0.04251 -0.09375,-0.0625 -0.120395,-0.0767 -0.2310226,-0.163513 -0.34375,-0.25 -0.1061728,-0.0808 -0.2132809,-0.161112 -0.3125,-0.25 C 8.4783201,88.557317 8.3087904,88.373362 8.15625,88.1875 8.0486711,88.057245 7.9378561,87.922215 7.84375,87.78125 7.818661,87.74287 7.805304,87.69538 7.78125,87.65625 7.716487,87.553218 7.6510225,87.451733 7.59375,87.34375 7.4927417,87.149044 7.3880752,86.928049 7.3125,86.71875 7.30454,86.69694 7.288911,86.6782 7.28125,86.65625 7.2494249,86.5643 7.2454455,86.469419 7.21875,86.375 7.1884177,86.268382 7.1483606,86.171969 7.125,86.0625 7.0521214,85.720988 7,85.364295 7,85 L 7,83 7,15 7,13 C 7,10.218152 9.2181517,8 12,8 l 2,0 68,0 2,0 c 2.781848,0 5,2.218152 5,5 l 0,2 0,68 0,2 c 0,0.364295 -0.05212,0.720988 -0.125,1.0625 -0.04415,0.206893 -0.08838,0.397658 -0.15625,0.59375 -0.0077,0.02195 -0.0233,0.04069 -0.03125,0.0625 -0.06274,0.173739 -0.138383,0.367449 -0.21875,0.53125 -0.04158,0.0828 -0.07904,0.169954 -0.125,0.25 -0.0546,0.09721 -0.126774,0.18835 -0.1875,0.28125 -0.09411,0.140965 -0.204921,0.275995 -0.3125,0.40625 -0.143174,0.17445 -0.303141,0.346998 -0.46875,0.5 -0.01117,0.0102 -0.01998,0.02115 -0.03125,0.03125 -0.138386,0.125556 -0.285091,0.234436 -0.4375,0.34375 -0.102571,0.07315 -0.204318,0.153364 -0.3125,0.21875 -0.0074,0.0045 -0.02384,-0.0044 -0.03125,0 -0.232039,0.138728 -0.462548,0.274778 -0.71875,0.375 0.301527,-0.0968 0.596455,-0.204138 0.875,-0.34375 0.55709,-0.279224 1.060053,-0.665694 1.5,-1.09375 0.219973,-0.214028 0.409366,-0.441865 0.59375,-0.6875 0.184384,-0.245635 0.355408,-0.507743 0.5,-0.78125 0.14012,-0.265048 0.276135,-0.524729 0.375,-0.8125 0.01041,-0.03078 0.02133,-0.06274 0.03125,-0.09375 0.09046,-0.278085 0.1388,-0.579404 0.1875,-0.875 C 89.95865,84.6507 90,84.334721 90,84 l 0,-2 0,-68 0,-2 C 90,8.676 87.324,6 84,6 L 12,6 z" />
    </g>
    <g
       id="g3203"
       transform="translate(-124.24495,77.486075)">
      <g
         transform="translate(210.55003,-77.553874)"
         id="g3205">
        <path
           id="rect3209"
           transform="translate(-86.30508,0.067799)"
           d="M 21.90625 17.90625 C 19.686326 17.90625 17.90625 19.686326 17.90625 21.90625 L 17.90625 40.75 C 17.90625 42.969924 19.686326 44.75 21.90625 44.75 L 27.5625 44.75 L 27.5625 51.25 L 35.09375 51.25 L 35.09375 44.75 L 40.75 44.75 C 42.969924 44.75 44.75 42.969924 44.75 40.75 L 44.75 21.90625 C 44.75 19.686326 42.969924 17.90625 40.75 17.90625 L 21.90625 17.90625 z M 55.25 51.25 C 53.030076 51.25 51.25 53.030076 51.25 55.25 L 51.25 60.90625 L 44.75 60.90625 L 44.75 68.4375 L 51.25 68.4375 L 51.25 74.09375 C 51.25 76.313674 53.030076 78.09375 55.25 78.09375 L 74.09375 78.09375 C 76.313674 78.09375 78.09375 76.313674 78.09375 74.09375 L 78.09375 55.25 C 78.09375 53.030076 76.313674 51.25 74.09375 51.25 L 55.25 51.25 z "
           style="color:#000000;fill:#cccccc;fill-opacity:1;fill-rule:nonzero;stroke:none;stroke-width:1px;marker:none;visibility:visible;display:inline;overflow:visible;enable-background:accumulate;opacity:0.3" />
      </g>
    </g>
    <g
       id="g3186">
      <path
         style="fill:#d40000;fill-opacity:1;fill-rule:evenodd;stroke:none;display:inline"
         id="path7165"
         inkscape:connector-curvature="0"
         d="m 19.050852,70.652018 6.023165,6.093748 5.930499,-5.906248 5.837833,5.906248 6.208498,-6.281248 -5.83784,-5.71875 5.83784,-5.71875 -6.208498,-6.281252 -5.837833,5.90625 -5.930499,-5.90625 -6.023165,6.093751 5.837841,5.906251 -5.837841,5.90625 z" />
    </g>
  </g>
  <g
     id="g3382"
     transform="translate(-112.75357,83.414631)">
    <path
       id="path3380"
       d="m 243.28125,-41.53125 0,6.5 7.53125,0 0,-6.5 -7.53125,0 z"
       style="color:#000000;fill:#cbcbcb;fill-opacity:0.6;fill-rule:nonzero;stroke:none;stroke-width:1px;marker:none;visibility:visible;display:inline;overflow:visible;enable-background:accumulate"
       inkscape:connector-curvature="0" />
    <path
       id="path3363"
       d="m 260.46875,-25.375 0,7.53125 6.5,0 0,-7.53125 -6.5,0 z"
       style="color:#000000;fill:#cbcbcb;fill-opacity:0.6;fill-rule:nonzero;stroke:none;stroke-width:1px;marker:none;visibility:visible;display:inline;overflow:visible;enable-background:accumulate"
       inkscape:connector-curvature="0" />
    <path
       id="path3376"
       d="m 237.63451,-68.40625 c -2.21992,0 -4,1.811326 -4,4.03125 l 0,18.8125 c 0,2.219924 1.78008,4.03125 4,4.03125 l 18.84375,0 c 2.21992,0 4,-1.811326 4,-4.03125 l 0,-18.8125 c 0,-2.219924 -1.78008,-4.03125 -4,-4.03125 l -18.84375,0 z"
       style="color:#000000;fill:#cbcbcb;fill-opacity:0.6;fill-rule:nonzero;stroke:none;stroke-width:1px;marker:none;visibility:visible;display:inline;overflow:visible;enable-background:accumulate"
       inkscape:connector-curvature="0" />
    <path
       id="path3374"
       d="m 237.63451,-35.03125 c -2.21992,0 -4,1.780076 -4,4 l 0,18.84375 c 0,2.2199242 1.78008,4 4,4 l 18.84375,0 c 2.21992,0 4,-1.7800758 4,-4 l 0,-18.84375 c 0,-2.219924 -1.78008,-4 -4,-4 l -18.84375,0 z"
       style="color:#000000;fill:#cbcbcb;fill-opacity:0.6;fill-rule:nonzero;stroke:none;stroke-width:1px;marker:none;visibility:visible;display:inline;overflow:visible;enable-background:accumulate"
       inkscape:connector-curvature="0" />
    <path
       id="path3361"
       d="m 270.97826,-35.03125 c -2.21992,0 -4,1.780076 -4,4 l 0,18.84375 c 0,2.2199242 1.78008,4 4,4 l 18.84375,0 c 2.21992,0 4,-1.7800758 4,-4 l 0,-18.84375 c 0,-2.219924 -1.78008,-4 -4,-4 l -18.84375,0 z"
       style="color:#000000;fill:#cbcbcb;fill-opacity:0.6;fill-rule:nonzero;stroke:none;stroke-width:1px;marker:none;visibility:visible;display:inline;overflow:visible;enable-background:accumulate"
       inkscape:connector-curvature="0" />
  </g>
  <g
     id="g3406">
    <path
       inkscape:connector-curvature="0"
       style="color:#000000;fill:#cbcbcb;fill-opacity:0.59999999999999998;fill-rule:nonzero;stroke:none;stroke-width:1px;marker:none;visibility:visible;display:inline;overflow:visible;enable-background:accumulate;opacity:0.3"
       d="m 130.52768,-29.45051 0,6.5 7.53125,0 0,-6.5 -7.53125,0 z"
       id="path3391" />
    <path
       inkscape:connector-curvature="0"
       style="color:#000000;fill:#cbcbcb;fill-opacity:0.59999999999999998;fill-rule:nonzero;stroke:none;stroke-width:1px;marker:none;visibility:visible;display:inline;overflow:visible;enable-background:accumulate;opacity:0.3"
       d="m 147.71518,-13.29426 0,7.53125 6.5,0 0,-7.53125 -6.5,0 z"
       id="path3393" />
    <path
       inkscape:connector-curvature="0"
       style="color:#000000;fill:#cbcbcb;fill-opacity:0.59999999999999998;fill-rule:nonzero;stroke:none;stroke-width:1px;marker:none;visibility:visible;display:inline;overflow:visible;enable-background:accumulate;opacity:0.3"
       d="m 124.88094,-56.32551 c -2.21992,0 -4,1.811326 -4,4.03125 l 0,18.8125 c 0,2.219924 1.78008,4.03125 4,4.03125 l 18.84375,0 c 2.21992,0 4,-1.811326 4,-4.03125 l 0,-18.8125 c 0,-2.219924 -1.78008,-4.03125 -4,-4.03125 l -18.84375,0 z"
       id="path3395" />
    <path
       inkscape:connector-curvature="0"
       style="color:#000000;fill:#cbcbcb;fill-opacity:0.59999999999999998;fill-rule:nonzero;stroke:none;stroke-width:1px;marker:none;visibility:visible;display:inline;overflow:visible;enable-background:accumulate;opacity:0.3"
       d="m 124.88094,-22.95051 c -2.21992,0 -4,1.780076 -4,4 l 0,18.84375 c 0,2.2199242 1.78008,4 4,4 l 18.84375,0 c 2.21992,0 4,-1.7800758 4,-4 l 0,-18.84375 c 0,-2.219924 -1.78008,-4 -4,-4 l -18.84375,0 z"
       id="path3397" />
    <path
       inkscape:connector-curvature="0"
       style="color:#000000;fill:#cbcbcb;fill-opacity:0.59999999999999998;fill-rule:nonzero;stroke:none;stroke-width:1px;marker:none;visibility:visible;display:inline;overflow:visible;enable-background:accumulate;opacity:0.3"
       d="m 158.22469,-22.95051 c -2.21992,0 -4,1.780076 -4,4 l 0,18.84375 c 0,2.2199242 1.78008,4 4,4 l 18.84375,0 c 2.21992,0 4,-1.7800758 4,-4 l 0,-18.84375 c 0,-2.219924 -1.78008,-4 -4,-4 l -18.84375,0 z"
       id="path3399" />
  </g>
</svg>
