<?xml version="1.0" encoding="UTF-8" standalone="no"?>
<!-- Created with Inkscape (http://www.inkscape.org/) -->

<svg
   xmlns:dc="http://purl.org/dc/elements/1.1/"
   xmlns:cc="http://creativecommons.org/ns#"
   xmlns:rdf="http://www.w3.org/1999/02/22-rdf-syntax-ns#"
   xmlns:svg="http://www.w3.org/2000/svg"
   xmlns="http://www.w3.org/2000/svg"
   xmlns:xlink="http://www.w3.org/1999/xlink"
   xmlns:sodipodi="http://sodipodi.sourceforge.net/DTD/sodipodi-0.dtd"
   xmlns:inkscape="http://www.inkscape.org/namespaces/inkscape"
   version="1.0"
   width="96"
   height="96"
   id="svg2408"
   inkscape:version="0.48.4 r9939"
   sodipodi:docname="distributor-logo-lacios.svg">
  <sodipodi:namedview
     pagecolor="#ffffff"
     bordercolor="#666666"
     borderopacity="1"
     objecttolerance="10"
     gridtolerance="10"
     guidetolerance="10"
     inkscape:pageopacity="0"
     inkscape:pageshadow="2"
     inkscape:window-width="1920"
     inkscape:window-height="1005"
     id="namedview62"
     showgrid="false"
     inkscape:zoom="2.4583333"
     inkscape:cx="122.84564"
     inkscape:cy="56.345913"
     inkscape:window-x="0"
     inkscape:window-y="25"
     inkscape:window-maximized="1"
     inkscape:current-layer="svg2408" />
  <defs
     id="defs2410">
    <linearGradient
       inkscape:collect="always"
       id="linearGradient3479">
      <stop
         style="stop-color:#ffffff;stop-opacity:1"
         offset="0"
         id="stop3481" />
      <stop
         style="stop-color:#cccccc;stop-opacity:1"
         offset="1"
         id="stop3483" />
    </linearGradient>
    <linearGradient
       id="linearGradient3925">
      <stop
         id="stop3927"
         style="stop-color:#3c6eb4;stop-opacity:1"
         offset="0" />
      <stop
         id="stop3929"
         style="stop-color:#81a4d5;stop-opacity:1"
         offset="1" />
    </linearGradient>
    <radialGradient
       cx="115.8989"
       cy="133.10451"
       r="154.62019"
       fx="115.8989"
       fy="133.10451"
       id="radialGradient3897"
       gradientUnits="userSpaceOnUse">
      <stop
         id="stop3899"
         style="stop-color:#294172;stop-opacity:0.37404579"
         offset="0" />
      <stop
         id="stop3901"
         style="stop-color:#294172;stop-opacity:1"
         offset="1" />
    </radialGradient>
    <linearGradient
       x1="45.447727"
       y1="92.539597"
       x2="45.447727"
       y2="7.0165396"
       id="ButtonShadow"
       gradientUnits="userSpaceOnUse"
       gradientTransform="scale(1.0058652,0.994169)">
      <stop
         id="stop3750"
         style="stop-color:#000000;stop-opacity:1"
         offset="0" />
      <stop
         id="stop3752"
         style="stop-color:#000000;stop-opacity:0.58823532"
         offset="1" />
    </linearGradient>
    <linearGradient
       id="linearGradient3737">
      <stop
         id="stop3739"
         style="stop-color:#ffffff;stop-opacity:1"
         offset="0" />
      <stop
         id="stop3741"
         style="stop-color:#ffffff;stop-opacity:0"
         offset="1" />
    </linearGradient>
    <filter
       color-interpolation-filters="sRGB"
       id="filter3174">
      <feGaussianBlur
         id="feGaussianBlur3176"
         stdDeviation="1.71" />
    </filter>
    <linearGradient
       x1="36.357143"
       y1="6"
       x2="36.357143"
       y2="63.893143"
       id="linearGradient3188"
       xlink:href="#linearGradient3737"
       gradientUnits="userSpaceOnUse" />
    <radialGradient
       cx="48"
       cy="90.171875"
       r="42"
       fx="48"
       fy="90.171875"
       id="radialGradient3619"
       xlink:href="#linearGradient3737"
       gradientUnits="userSpaceOnUse"
       gradientTransform="matrix(1.1573129,0,0,0.99590774,-7.5510206,0.19713193)" />
    <linearGradient
       x1="45.447727"
       y1="92.539597"
       x2="45.447727"
       y2="7.0165396"
       id="ButtonShadow-0"
       gradientUnits="userSpaceOnUse"
       gradientTransform="matrix(1.0058652,0,0,0.994169,100,0)">
      <stop
         id="stop3750-8"
         style="stop-color:#000000;stop-opacity:1"
         offset="0" />
      <stop
         id="stop3752-5"
         style="stop-color:#000000;stop-opacity:0.58823532"
         offset="1" />
    </linearGradient>
    <linearGradient
       x1="32.251034"
       y1="6.1317081"
       x2="32.251034"
       y2="90.238609"
       id="linearGradient3780"
       xlink:href="#ButtonShadow-0"
       gradientUnits="userSpaceOnUse"
       gradientTransform="matrix(1.0238095,0,0,1.0119048,-1.1428571,-98.071429)" />
    <linearGradient
       x1="32.251034"
       y1="6.1317081"
       x2="32.251034"
       y2="90.238609"
       id="linearGradient3772"
       xlink:href="#ButtonShadow-0"
       gradientUnits="userSpaceOnUse"
       gradientTransform="matrix(1.0238095,0,0,1.0119048,-1.1428571,-98.071429)" />
    <linearGradient
       x1="32.251034"
       y1="6.1317081"
       x2="32.251034"
       y2="90.238609"
       id="linearGradient3725"
       xlink:href="#ButtonShadow-0"
       gradientUnits="userSpaceOnUse"
       gradientTransform="matrix(1.0238095,0,0,1.0119048,-1.1428571,-98.071429)" />
    <linearGradient
       x1="32.251034"
       y1="6.1317081"
       x2="32.251034"
       y2="90.238609"
       id="linearGradient3721"
       xlink:href="#ButtonShadow-0"
       gradientUnits="userSpaceOnUse"
       gradientTransform="translate(0,-97)" />
    <linearGradient
       x1="32.251034"
       y1="6.1317081"
       x2="32.251034"
       y2="90.238609"
       id="linearGradient3026"
       xlink:href="#ButtonShadow-0"
       gradientUnits="userSpaceOnUse"
       gradientTransform="matrix(1.0238095,0,0,1.0119048,-1.1428571,-98.071429)" />
    <radialGradient
       cx="115.8989"
       cy="133.10451"
       r="154.62019"
       fx="115.8989"
       fy="133.10451"
       id="radialGradient2877"
       xlink:href="#radialGradient3897"
       gradientUnits="userSpaceOnUse"
       gradientTransform="matrix(0.25364919,0,0,0.25365619,16,16.000007)" />
    <linearGradient
       x1="64"
       y1="88"
       x2="64"
       y2="8"
       id="linearGradient3931"
       xlink:href="#linearGradient3925"
       gradientUnits="userSpaceOnUse" />
    <radialGradient
       cx="115.8989"
       cy="133.10451"
       r="154.62019"
       fx="115.8989"
       fy="133.10451"
       id="radialGradient2877-6"
       xlink:href="#radialGradient3897-3"
       gradientUnits="userSpaceOnUse"
       gradientTransform="matrix(0.25364919,0,0,0.25365619,16,16.000007)" />
    <radialGradient
       cx="115.8989"
       cy="133.10451"
       r="154.62019"
       fx="115.8989"
       fy="133.10451"
       id="radialGradient3897-3"
       gradientUnits="userSpaceOnUse">
      <stop
         id="stop3899-4"
         style="stop-color:#294172;stop-opacity:0.37404579"
         offset="0" />
      <stop
         id="stop3901-7"
         style="stop-color:#294172;stop-opacity:1"
         offset="1" />
    </radialGradient>
    <linearGradient
       id="linearGradient3925-3">
      <stop
         id="stop3927-9"
         style="stop-color:#4382e0;stop-opacity:1"
         offset="0" />
      <stop
         id="stop3929-8"
         style="stop-color:#80b3ff;stop-opacity:1"
         offset="1" />
    </linearGradient>
    <linearGradient
       x1="64"
       y1="74.071381"
       x2="64"
       y2="0.71849656"
       id="linearGradient3983"
       xlink:href="#linearGradient3925-3"
       gradientUnits="userSpaceOnUse" />
    <linearGradient
       gradientUnits="userSpaceOnUse"
       y2="569.64459"
       x2="411.37518"
       y1="418.03671"
       x1="370.75195"
       id="linearGradient3066"
       xlink:href="#linearGradient3060"
       inkscape:collect="always" />
    <linearGradient
       gradientTransform="translate(-5.723633e-6,-4.9267578e-6)"
       y2="552.03979"
       x2="421.33994"
       y1="393.92642"
       x1="339.99817"
       gradientUnits="userSpaceOnUse"
       id="linearGradient3039"
       xlink:href="#linearGradient3027"
       inkscape:collect="always" />
    <linearGradient
       gradientTransform="translate(337.39095,121.21831)"
       gradientUnits="userSpaceOnUse"
       y2="521.73523"
       x2="423.36023"
       y1="438.37314"
       x1="339.99817"
       id="linearGradient3033"
       xlink:href="#linearGradient3027"
       inkscape:collect="always" />
    <linearGradient
       inkscape:collect="always"
       id="linearGradient3759">
      <stop
         style="stop-color:#ffffff;stop-opacity:1"
         offset="0"
         id="stop3761" />
      <stop
         style="stop-color:#cccccc;stop-opacity:1"
         offset="1"
         id="stop3763" />
    </linearGradient>
    <linearGradient
       y2="439.61621"
       x2="312.85715"
       y1="116.81958"
       x1="312.85715"
       gradientTransform="matrix(1.5234672,0,0,1.5234672,2873.4766,121.74603)"
       gradientUnits="userSpaceOnUse"
       id="linearGradient3757"
       xlink:href="#linearGradient3759"
       inkscape:collect="always" />
    <linearGradient
       id="linearGradient3027"
       inkscape:collect="always">
      <stop
         id="stop3029"
         offset="0"
         style="stop-color:#ffffff;stop-opacity:1;" />
      <stop
         id="stop3031"
         offset="1"
         style="stop-color:#ffffff;stop-opacity:0;" />
    </linearGradient>
    <linearGradient
       id="linearGradient3060"
       inkscape:collect="always">
      <stop
         id="stop3062"
         offset="0"
         style="stop-color:#ffffff;stop-opacity:1;" />
      <stop
         id="stop3064"
         offset="1"
         style="stop-color:#ffffff;stop-opacity:0;" />
    </linearGradient>
    <linearGradient
       inkscape:collect="always"
       xlink:href="#linearGradient3027"
       id="linearGradient3456"
       gradientUnits="userSpaceOnUse"
       gradientTransform="translate(-755.37374,-778.88282)"
       x1="339.99817"
       y1="393.92642"
       x2="421.33994"
       y2="552.03979" />
    <linearGradient
       inkscape:collect="always"
       xlink:href="#linearGradient3479"
       id="linearGradient3485"
       x1="48.179138"
       y1="36.311832"
       x2="48.179138"
       y2="82.76931"
       gradientUnits="userSpaceOnUse" />
  </defs>
  <metadata
     id="metadata2413">
    <rdf:RDF>
      <cc:Work
         rdf:about="">
        <dc:format>image/svg+xml</dc:format>
        <dc:type
           rdf:resource="http://purl.org/dc/dcmitype/StillImage" />
        <dc:title></dc:title>
      </cc:Work>
    </rdf:RDF>
  </metadata>
  <g
     id="layer2"
     style="display:none">
    <rect
       width="86"
       height="85"
       rx="6"
       ry="6"
       x="5"
       y="7"
       id="rect3745"
       style="opacity:0.9;fill:url(#ButtonShadow);fill-opacity:1;fill-rule:nonzero;stroke:none;filter:url(#filter3174)" />
  </g>
  <g
     id="layer3">
    <path
       d="m 12,-95.03125 c -5.5110903,0 -10.03125,4.52016 -10.03125,10.03125 l 0,71 c 0,5.5110902 4.5201598,10.03125 10.03125,10.03125 l 72,0 c 5.51109,0 10.03125,-4.5201597 10.03125,-10.03125 l 0,-71 c 0,-5.51109 -4.52016,-10.03125 -10.03125,-10.03125 l -72,0 z"
       transform="scale(1,-1)"
       id="path3786"
       style="opacity:0.07999998;fill:url(#linearGradient3026);fill-opacity:1;fill-rule:nonzero;stroke:none;display:inline" />
    <path
       d="m 12,-94.03125 c -4.971633,0 -9.03125,4.059617 -9.03125,9.03125 l 0,71 c 0,4.9716329 4.0596171,9.03125 9.03125,9.03125 l 72,0 c 4.971633,0 9.03125,-4.059617 9.03125,-9.03125 l 0,-71 c 0,-4.971633 -4.059617,-9.03125 -9.03125,-9.03125 l -72,0 z"
       transform="scale(1,-1)"
       id="path3778"
       style="opacity:0.1;fill:url(#linearGradient3780);fill-opacity:1;fill-rule:nonzero;stroke:none;display:inline" />
    <path
       d="m 12,-93 c -4.4091333,0 -8,3.590867 -8,8 l 0,71 c 0,4.4091333 3.5908667,8 8,8 l 72,0 c 4.409133,0 8,-3.5908667 8,-8 l 0,-71 c 0,-4.409133 -3.590867,-8 -8,-8 l -72,0 z"
       transform="scale(1,-1)"
       id="path3770"
       style="opacity:0.2;fill:url(#linearGradient3772);fill-opacity:1;fill-rule:nonzero;stroke:none;display:inline" />
    <rect
       width="86"
       height="85"
       rx="7"
       ry="7"
       x="5"
       y="-92"
       transform="scale(1,-1)"
       id="rect3723"
       style="opacity:0.3;fill:url(#linearGradient3725);fill-opacity:1;fill-rule:nonzero;stroke:none;display:inline" />
    <rect
       width="84"
       height="84"
       rx="6"
       ry="6"
       x="6"
       y="-91"
       transform="scale(1,-1)"
       id="rect3716"
       style="opacity:0.45;fill:url(#linearGradient3721);fill-opacity:1;fill-rule:nonzero;stroke:none;display:inline" />
  </g>
  <g
     id="layer1">
    <rect
       width="84"
       height="84"
       rx="6"
       ry="6"
       x="6"
       y="6"
       id="rect2419-5"
       style="fill:url(#linearGradient3931);fill-opacity:1;fill-rule:nonzero;stroke:none;display:inline" />
    <rect
       width="84"
       height="84"
       rx="6"
       ry="6"
       x="6"
       y="6"
       id="rect2419-5-1"
       style="fill:url(#linearGradient3983);fill-opacity:1;fill-rule:nonzero;stroke:none;display:inline" />
  </g>
  <g
     id="layer5"
     style="display:inline">
    <path
       d="M 12,6 C 8.676,6 6,8.676 6,12 l 0,2 0,68 0,2 c 0,0.334721 0.04135,0.6507 0.09375,0.96875 0.0487,0.295596 0.09704,0.596915 0.1875,0.875 0.00988,0.03038 0.020892,0.0636 0.03125,0.09375 0.098865,0.287771 0.2348802,0.547452 0.375,0.8125 0.1445918,0.273507 0.3156161,0.535615 0.5,0.78125 0.1843839,0.245635 0.3737765,0.473472 0.59375,0.6875 0.439947,0.428056 0.94291,0.814526 1.5,1.09375 0.278545,0.139612 0.5734731,0.246947 0.875,0.34375 -0.2562018,-0.100222 -0.4867109,-0.236272 -0.71875,-0.375 -0.00741,-0.0044 -0.023866,0.0045 -0.03125,0 -0.031933,-0.0193 -0.062293,-0.04251 -0.09375,-0.0625 -0.120395,-0.0767 -0.2310226,-0.163513 -0.34375,-0.25 -0.1061728,-0.0808 -0.2132809,-0.161112 -0.3125,-0.25 C 8.4783201,88.557317 8.3087904,88.373362 8.15625,88.1875 8.0486711,88.057245 7.9378561,87.922215 7.84375,87.78125 7.818661,87.74287 7.805304,87.69538 7.78125,87.65625 7.716487,87.553218 7.6510225,87.451733 7.59375,87.34375 7.4927417,87.149044 7.3880752,86.928049 7.3125,86.71875 7.30454,86.69694 7.288911,86.6782 7.28125,86.65625 7.2494249,86.5643 7.2454455,86.469419 7.21875,86.375 7.1884177,86.268382 7.1483606,86.171969 7.125,86.0625 7.0521214,85.720988 7,85.364295 7,85 L 7,83 7,15 7,13 C 7,10.218152 9.2181517,8 12,8 l 2,0 68,0 2,0 c 2.781848,0 5,2.218152 5,5 l 0,2 0,68 0,2 c 0,0.364295 -0.05212,0.720988 -0.125,1.0625 -0.04415,0.206893 -0.08838,0.397658 -0.15625,0.59375 -0.0077,0.02195 -0.0233,0.04069 -0.03125,0.0625 -0.06274,0.173739 -0.138383,0.367449 -0.21875,0.53125 -0.04158,0.0828 -0.07904,0.169954 -0.125,0.25 -0.0546,0.09721 -0.126774,0.18835 -0.1875,0.28125 -0.09411,0.140965 -0.204921,0.275995 -0.3125,0.40625 -0.143174,0.17445 -0.303141,0.346998 -0.46875,0.5 -0.01117,0.0102 -0.01998,0.02115 -0.03125,0.03125 -0.138386,0.125556 -0.285091,0.234436 -0.4375,0.34375 -0.102571,0.07315 -0.204318,0.153364 -0.3125,0.21875 -0.0074,0.0045 -0.02384,-0.0044 -0.03125,0 -0.232039,0.138728 -0.462548,0.274778 -0.71875,0.375 0.301527,-0.0968 0.596455,-0.204138 0.875,-0.34375 0.55709,-0.279224 1.060053,-0.665694 1.5,-1.09375 0.219973,-0.214028 0.409366,-0.441865 0.59375,-0.6875 0.184384,-0.245635 0.355408,-0.507743 0.5,-0.78125 0.14012,-0.265048 0.276135,-0.524729 0.375,-0.8125 0.01041,-0.03078 0.02133,-0.06274 0.03125,-0.09375 0.09046,-0.278085 0.1388,-0.579404 0.1875,-0.875 C 89.95865,84.6507 90,84.334721 90,84 l 0,-2 0,-68 0,-2 C 90,8.676 87.324,6 84,6 L 12,6 z"
       inkscape:connector-curvature="0"
       id="rect3728"
       style="opacity:0.3;fill:url(#linearGradient3188);fill-opacity:1;fill-rule:nonzero;stroke:none" />
    <path
       d="M 12,90 C 8.676,90 6,87.324 6,84 L 6,82 6,14 6,12 c 0,-0.334721 0.04135,-0.6507 0.09375,-0.96875 0.0487,-0.295596 0.09704,-0.596915 0.1875,-0.875 C 6.29113,10.12587 6.302142,10.09265 6.3125,10.0625 6.411365,9.774729 6.5473802,9.515048 6.6875,9.25 6.8320918,8.976493 7.0031161,8.714385 7.1875,8.46875 7.3718839,8.223115 7.5612765,7.995278 7.78125,7.78125 8.221197,7.353194 8.72416,6.966724 9.28125,6.6875 9.559795,6.547888 9.8547231,6.440553 10.15625,6.34375 9.9000482,6.443972 9.6695391,6.580022 9.4375,6.71875 c -0.00741,0.0044 -0.023866,-0.0045 -0.03125,0 -0.031933,0.0193 -0.062293,0.04251 -0.09375,0.0625 -0.120395,0.0767 -0.2310226,0.163513 -0.34375,0.25 -0.1061728,0.0808 -0.2132809,0.161112 -0.3125,0.25 C 8.4783201,7.442683 8.3087904,7.626638 8.15625,7.8125 8.0486711,7.942755 7.9378561,8.077785 7.84375,8.21875 7.818661,8.25713 7.805304,8.30462 7.78125,8.34375 7.716487,8.446782 7.6510225,8.548267 7.59375,8.65625 7.4927417,8.850956 7.3880752,9.071951 7.3125,9.28125 7.30454,9.30306 7.288911,9.3218 7.28125,9.34375 7.2494249,9.4357 7.2454455,9.530581 7.21875,9.625 7.1884177,9.731618 7.1483606,9.828031 7.125,9.9375 7.0521214,10.279012 7,10.635705 7,11 l 0,2 0,68 0,2 c 0,2.781848 2.2181517,5 5,5 l 2,0 68,0 2,0 c 2.781848,0 5,-2.218152 5,-5 l 0,-2 0,-68 0,-2 C 89,10.635705 88.94788,10.279012 88.875,9.9375 88.83085,9.730607 88.78662,9.539842 88.71875,9.34375 88.71105,9.3218 88.69545,9.30306 88.6875,9.28125 88.62476,9.107511 88.549117,8.913801 88.46875,8.75 88.42717,8.6672 88.38971,8.580046 88.34375,8.5 88.28915,8.40279 88.216976,8.31165 88.15625,8.21875 88.06214,8.077785 87.951329,7.942755 87.84375,7.8125 87.700576,7.63805 87.540609,7.465502 87.375,7.3125 87.36383,7.3023 87.35502,7.29135 87.34375,7.28125 87.205364,7.155694 87.058659,7.046814 86.90625,6.9375 86.803679,6.86435 86.701932,6.784136 86.59375,6.71875 c -0.0074,-0.0045 -0.02384,0.0044 -0.03125,0 -0.232039,-0.138728 -0.462548,-0.274778 -0.71875,-0.375 0.301527,0.0968 0.596455,0.204138 0.875,0.34375 0.55709,0.279224 1.060053,0.665694 1.5,1.09375 0.219973,0.214028 0.409366,0.441865 0.59375,0.6875 0.184384,0.245635 0.355408,0.507743 0.5,0.78125 0.14012,0.265048 0.276135,0.524729 0.375,0.8125 0.01041,0.03078 0.02133,0.06274 0.03125,0.09375 0.09046,0.278085 0.1388,0.579404 0.1875,0.875 C 89.95865,11.3493 90,11.665279 90,12 l 0,2 0,68 0,2 c 0,3.324 -2.676,6 -6,6 l -72,0 z"
       inkscape:connector-curvature="0"
       id="path3615"
       style="opacity:0.2;fill:url(#radialGradient3619);fill-opacity:1;fill-rule:nonzero;stroke:none" />
  </g>
  <path
     inkscape:connector-curvature="0"
     id="path3475"
     d="M 48.500478,10.473692 44.651126,21.194731 C 32.384911,22.893217 22.682144,32.596076 20.983636,44.862223 l -10.736088,3.864387 10.736088,3.849351 c 0.751976,5.406524 3.06993,10.325138 6.465703,14.269663 l -6.751396,9.683521 9.668484,-6.751399 c 3.948685,3.405453 8.867545,5.71519 14.284699,6.465705 l 3.849352,10.721043 3.864387,-10.721043 C 64.6214,74.537733 74.315297,64.833688 76.01731,52.575961 L 86.768432,48.72661 76.01731,44.862223 C 75.513294,41.231927 74.309578,37.828094 72.543872,34.787754 l -5.11241,7.35286 c 0.04635,0.13285 0.09179,0.25674 0.135328,0.390948 0.0011,0.0058 0.01507,0.02432 0.01507,0.03002 0.20813,0.642494 0.383003,1.2858 0.526277,1.954746 0.04213,0.198151 0.08414,0.416213 0.120294,0.6165 0.01142,0.06244 0.01997,0.11778 0.03002,0.180444 0.0379,0.221155 0.07512,0.453089 0.105258,0.676642 0,0.008 0,0.0058 0,0.01507 0.0011,0.0202 0.01507,0.03984 0.01507,0.06017 0.03631,0.276136 0.06519,0.547501 0.09019,0.827016 0.02226,0.248966 0.03196,0.500351 0.0451,0.751829 0.0011,0.05137 0.01507,0.09886 0.01507,0.150362 0.008,0.126023 0,0.249252 0,0.375915 0.0011,0.17944 0.01507,0.375719 0.01507,0.556347 0,0.343058 -0.01313,0.683627 -0.03002,1.022484 l 0,0.01507 c -0.01336,0.263281 -0.02146,0.521402 -0.0451,0.781898 -0.01552,0.177419 -0.03949,0.350251 -0.06016,0.526278 -0.02283,0.20032 -0.04578,0.402981 -0.07523,0.601465 -0.0046,0.03426 -0.008,0.05605 -0.01507,0.09019 -0.01142,0.07192 -0.03322,0.153891 -0.0451,0.22554 -0.03962,0.241293 -0.07226,0.48342 -0.120294,0.721758 -0.0011,0.01718 -0.008,0.02817 -0.01507,0.04511 -0.0011,0.0088 0,0.006 0,0.01504 -0.06554,0.317307 -0.145364,0.635678 -0.225551,0.947301 -0.05936,0.230561 -0.128217,0.4644 -0.195469,0.69168 -0.0428,0.144832 -0.08951,0.292646 -0.135328,0.436059 -0.0011,0.01119 0.008,0.0189 0,0.03007 -0.07866,0.243722 -0.152864,0.49723 -0.240586,0.736789 -0.01187,0.03139 -0.03322,0.05874 -0.0451,0.09023 -2.026382,5.447288 -6.357877,9.774454 -11.803675,11.803672 -0.178424,0.06649 -0.360513,0.133905 -0.541312,0.195475 -0.122748,0.04175 -0.237024,0.08084 -0.36088,0.120292 -0.182659,0.05823 -0.371461,0.112291 -0.556347,0.165402 -0.06827,0.01959 -0.141801,0.0412 -0.210516,0.06015 -0.03128,0.0088 -0.05845,0.0066 -0.09019,0.01504 -0.170114,0.04597 -0.339383,0.09371 -0.511243,0.135328 -0.161003,0.03891 -0.333639,0.08535 -0.496206,0.120293 -0.124632,0.02692 -0.235393,0.03546 -0.36088,0.06014 -0.196017,0.03827 -0.403439,0.08781 -0.601453,0.120293 -0.07214,0.01184 -0.138079,0.0189 -0.210515,0.03007 -0.03437,0.0052 -0.07056,0.0099 -0.105259,0.01504 -0.198482,0.02933 -0.386108,0.05184 -0.58643,0.07519 -0.176254,0.02072 -0.363652,0.04389 -0.541311,0.06014 -0.260839,0.02364 -0.518241,0.04663 -0.781899,0.06015 l -0.01507,0 c -0.338857,0.01693 -0.679392,0.03007 -1.022484,0.03007 -0.343058,0 -0.698731,-0.01314 -1.037519,-0.03007 -0.264161,-0.01348 -0.520513,-0.03648 -0.781899,-0.06015 -0.187352,-0.01691 -0.370412,-0.03815 -0.556348,-0.06014 -0.180492,-0.02135 -0.362283,-0.04915 -0.541324,-0.07519 -0.142966,-0.02093 -0.294037,-0.03613 -0.436055,-0.06014 -0.188643,-0.03174 -0.369567,-0.0683 -0.556347,-0.105258 -0.05983,-0.01188 -0.12059,-0.0179 -0.180446,-0.03007 -0.308947,-0.06411 -0.61368,-0.132365 -0.917226,-0.210512 -0.21635,-0.05569 -0.433099,-0.117779 -0.646571,-0.180438 -0.168617,-0.04951 -0.329507,-0.111652 -0.496206,-0.165402 -0.247778,-0.07991 -0.508503,-0.151436 -0.751817,-0.240584 -0.02876,-0.01051 -0.04635,-0.01925 -0.07523,-0.03007 -1.611299,-0.598785 -3.126029,-1.404768 -4.510968,-2.375771 l 6.826593,-4.751542 c 1.444337,0.578793 3.025202,0.887155 4.676356,0.887155 6.938484,0 12.555527,-5.617044 12.555492,-12.5555 0,-1.650743 -0.32364,-3.232257 -0.902191,-4.676355 L 76.317988,20.909032 53.176774,37.058254 c -1.441598,-0.576725 -3.013695,-0.90219 -4.661321,-0.90219 -6.938484,0 -12.570539,5.632089 -12.570539,12.570539 0,1.645399 0.311916,3.221343 0.887156,4.661323 l -4.751543,6.811547 c -0.967172,-1.380772 -1.762964,-2.890343 -2.36073,-4.495922 -0.06644,-0.17846 -0.134141,-0.345484 -0.19548,-0.526278 -0.04189,-0.123045 -0.08117,-0.251786 -0.120293,-0.375914 -0.05811,-0.182656 -0.112222,-0.371461 -0.165399,-0.556351 -0.02877,-0.09938 -0.04772,-0.200723 -0.07512,-0.300731 -0.04601,-0.170069 -0.09395,-0.339444 -0.135328,-0.511241 -0.03881,-0.161004 -0.08552,-0.318605 -0.120294,-0.481168 -0.02729,-0.124835 -0.05079,-0.250161 -0.07523,-0.375914 -0.03037,-0.156505 -0.06348,-0.323411 -0.09019,-0.481172 -0.0379,-0.222103 -0.05982,-0.437071 -0.09019,-0.661606 -0.0403,-0.296536 -0.07786,-0.586623 -0.105258,-0.887156 -0.02364,-0.260872 -0.04693,-0.533286 -0.06017,-0.796933 -0.01723,-0.338857 -0.03002,-0.679427 -0.03002,-1.022484 0,-0.343116 0.01313,-0.698698 0.03002,-1.03752 0.01324,-0.26697 0.03653,-0.532807 0.06017,-0.796934 0.0162,-0.187432 0.03779,-0.37048 0.06016,-0.556348 0.02146,-0.180536 0.04943,-0.347317 0.07523,-0.526289 0.02066,-0.143033 0.03642,-0.294001 0.06017,-0.436055 0.03174,-0.188641 0.06838,-0.369566 0.105257,-0.556347 0.01187,-0.05971 0.01758,-0.120864 0.03002,-0.180445 0.06404,-0.308913 0.132394,-0.628727 0.210515,-0.932262 0.0556,-0.216384 0.11761,-0.433099 0.180434,-0.646571 0.04943,-0.168651 0.111423,-0.329449 0.165398,-0.496206 0.0798,-0.247676 0.151483,-0.493432 0.240587,-0.736782 0.01142,-0.02912 0.01952,-0.06108 0.03002,-0.09019 2.025642,-5.455171 6.363505,-9.777978 11.818711,-11.803676 0.270416,-0.100349 0.551153,-0.196746 0.827004,-0.285691 0.166666,-0.05378 0.327589,-0.100806 0.496207,-0.150363 0.213484,-0.06268 0.430221,-0.124825 0.64657,-0.180445 0.303547,-0.07808 0.60828,-0.146425 0.917227,-0.210504 0.05959,-0.01256 0.120601,-0.03334 0.180445,-0.0451 0.18678,-0.03687 0.367706,-0.0734 0.556348,-0.105258 0.14203,-0.02397 0.292986,-0.03949 0.436065,-0.06016 0.178928,-0.02602 0.360891,-0.05389 0.541314,-0.07523 0.185935,-0.02192 0.368995,-0.04316 0.556347,-0.06016 0.260268,-0.02364 0.518925,-0.03196 0.781899,-0.0451 0.338788,-0.01689 0.694472,-0.03014 1.037519,-0.03014 0.179886,0 0.362659,-0.0046 0.541313,0 0.125488,0.0034 0.250974,0.01027 0.375914,0.01507 0.05172,0.0022 0.09863,0.01165 0.150374,0.01507 0.251797,0.01324 0.502589,0.02249 0.751818,0.0451 0.277253,0.02488 0.553185,0.05423 0.827015,0.09019 0.02294,0.0033 0.05217,0.01164 0.07523,0.01507 0.02876,0.0034 0.06141,0.01142 0.09019,0.01507 0.198049,0.02763 0.390333,0.05673 0.586417,0.09019 0.267848,0.04601 0.532888,0.09384 0.796946,0.150362 0.337978,0.07227 0.676024,0.166541 1.007437,0.255622 0.32533,0.08746 0.643717,0.167499 0.962345,0.270654 0.0058,0.0022 0.008,0.01165 0.01507,0.01507 0.134346,0.04361 0.273054,0.08893 0.405985,0.13533 l 7.337825,-5.112424 C 59.388207,22.922335 55.987982,21.699199 52.364924,21.194726 L 48.500537,10.473687 z m 0.01507,32.087941 c 3.402782,0 6.14993,2.762205 6.14993,6.164977 0,3.402781 -2.747114,6.164975 -6.14993,6.164975 -3.402817,0 -6.164943,-2.762194 -6.164977,-6.164975 0,-3.402772 2.76216,-6.164977 6.164977,-6.164977 z"
     style="opacity:0.5;color:#000000;fill:#000000;fill-opacity:1;fill-rule:nonzero;stroke:none;stroke-width:1px;marker:none;visibility:visible;display:inline;overflow:visible;enable-background:accumulate" />
  <path
     style="color:#000000;fill:url(#linearGradient3485);fill-opacity:1;fill-rule:nonzero;stroke:none;stroke-width:1px;marker:none;visibility:visible;display:inline;overflow:visible;enable-background:accumulate"
     d="M 47.992601,10.329873 44.20115,20.88965 C 32.119438,22.562588 22.562617,32.1195 20.889657,44.201145 l -10.574599,3.80626 10.574599,3.79145 c 0.740665,5.325201 3.023753,10.169831 6.368448,14.055024 l -6.649843,9.537865 9.523054,-6.649847 c 3.88929,3.35423 8.734162,5.629225 14.069834,6.368451 l 3.791451,10.559781 3.80626,-10.559781 C 63.871038,73.430286 73.419123,63.872206 75.095535,51.798855 l 10.589407,-3.79145 -10.589407,-3.80626 C 74.5991,40.625454 73.41349,37.27282 71.674343,34.278212 l -5.035511,7.242261 c 0.04565,0.130852 0.09041,0.252878 0.133293,0.385068 0.0011,0.0057 0.01484,0.02395 0.01484,0.02957 0.204999,0.63283 0.377242,1.266459 0.518361,1.925343 0.0415,0.195171 0.08287,0.409953 0.118484,0.607227 0.01125,0.0615 0.01967,0.116009 0.02957,0.17773 0.03733,0.217829 0.07399,0.446274 0.103675,0.666464 0,0.0079 0,0.0057 0,0.01484 0.0011,0.0199 0.01484,0.03924 0.01484,0.05926 0.03576,0.271982 0.06421,0.539265 0.08883,0.814576 0.02193,0.245221 0.03148,0.492825 0.04442,0.74052 0.0011,0.0506 0.01484,0.09737 0.01484,0.148101 0.0079,0.124127 0,0.245502 0,0.37026 0.0011,0.176741 0.01484,0.370068 0.01484,0.547979 0,0.337898 -0.01293,0.673344 -0.02957,1.007104 l 0,0.01484 c -0.01316,0.259321 -0.02114,0.51356 -0.04442,0.770137 -0.01529,0.174751 -0.0389,0.344983 -0.05926,0.518362 -0.02249,0.197307 -0.04509,0.39692 -0.0741,0.592418 -0.0045,0.03374 -0.0079,0.05521 -0.01484,0.08883 -0.01125,0.07084 -0.03272,0.151576 -0.04442,0.222147 -0.03902,0.237664 -0.07117,0.476149 -0.118484,0.710902 -0.0011,0.01692 -0.0079,0.02775 -0.01484,0.04443 -0.0011,0.0087 0,0.0059 0,0.01481 -0.06455,0.312534 -0.143177,0.626116 -0.222158,0.933052 -0.05847,0.227093 -0.126288,0.457415 -0.192529,0.681276 -0.04216,0.142654 -0.08816,0.288244 -0.133292,0.4295 -0.0011,0.01102 0.0079,0.01862 0,0.02962 -0.07748,0.240056 -0.150565,0.489751 -0.236967,0.725706 -0.01169,0.03092 -0.03272,0.05786 -0.04442,0.08887 -1.995902,5.365352 -6.262244,9.62743 -11.626129,11.626126 -0.17574,0.06549 -0.35509,0.13189 -0.533169,0.192534 -0.120902,0.04112 -0.233459,0.07962 -0.355452,0.118483 -0.179912,0.05735 -0.365874,0.110602 -0.547979,0.162914 -0.06724,0.0193 -0.139668,0.04058 -0.207349,0.05924 -0.03081,0.0087 -0.05757,0.0065 -0.08883,0.01481 -0.167555,0.04528 -0.334278,0.0923 -0.503553,0.133293 -0.158581,0.03832 -0.32862,0.08407 -0.488742,0.118483 -0.122757,0.02651 -0.231852,0.03493 -0.355452,0.05924 -0.193068,0.03769 -0.39737,0.08649 -0.592406,0.118483 -0.07106,0.01166 -0.136002,0.01862 -0.207349,0.02962 -0.03385,0.0051 -0.0695,0.0098 -0.103675,0.01481 -0.195497,0.02889 -0.380301,0.05106 -0.577609,0.07406 -0.173603,0.02041 -0.358182,0.04323 -0.533169,0.05924 -0.256916,0.02328 -0.510446,0.04593 -0.770138,0.05924 l -0.01484,0 c -0.33376,0.01668 -0.669172,0.02962 -1.007104,0.02962 -0.337898,0 -0.688221,-0.01294 -1.021913,-0.02962 -0.260187,-0.01328 -0.512683,-0.03593 -0.770138,-0.05924 -0.184534,-0.01666 -0.36484,-0.03758 -0.547979,-0.05924 -0.177777,-0.02103 -0.356834,-0.04841 -0.533182,-0.07406 -0.140815,-0.02062 -0.289614,-0.03559 -0.429496,-0.05924 -0.185805,-0.03126 -0.364008,-0.06727 -0.547979,-0.103674 -0.05893,-0.0117 -0.118776,-0.01763 -0.177731,-0.02962 -0.3043,-0.06315 -0.60445,-0.130374 -0.90343,-0.207346 -0.213096,-0.05485 -0.426584,-0.116007 -0.636845,-0.177724 -0.166081,-0.04876 -0.324551,-0.109972 -0.488743,-0.162914 -0.244051,-0.07871 -0.500854,-0.149158 -0.740508,-0.236965 -0.02833,-0.01035 -0.04565,-0.01896 -0.0741,-0.02962 -1.587063,-0.589778 -3.079009,-1.383638 -4.443116,-2.340035 l 6.72391,-4.680071 c 1.422612,0.570087 2.979698,0.873811 4.606016,0.873811 6.834118,0 12.366671,-5.532555 12.366637,-12.366645 0,-1.625913 -0.318772,-3.183639 -0.888621,-4.606015 L 75.39169,20.608249 52.598558,36.51456 c -1.419914,-0.56805 -2.968364,-0.88862 -4.591207,-0.88862 -6.834118,0 -12.381458,5.547374 -12.381458,12.381458 0,1.62065 0.307224,3.172889 0.873812,4.591209 l -4.680072,6.70909 c -0.952624,-1.360003 -1.736446,-2.846867 -2.325221,-4.428296 -0.06544,-0.175775 -0.132123,-0.340287 -0.19254,-0.518362 -0.04126,-0.121194 -0.07995,-0.247998 -0.118483,-0.370259 -0.05724,-0.179909 -0.110534,-0.365874 -0.162911,-0.547983 -0.02834,-0.09789 -0.047,-0.197704 -0.07399,-0.296207 -0.04532,-0.167511 -0.09254,-0.334339 -0.133293,-0.503551 -0.03823,-0.158583 -0.08423,-0.313813 -0.118484,-0.473931 -0.02688,-0.122957 -0.05003,-0.246398 -0.0741,-0.37026 -0.02991,-0.15415 -0.06252,-0.318546 -0.08883,-0.473934 -0.03733,-0.218762 -0.05892,-0.430497 -0.08883,-0.651654 -0.03969,-0.292076 -0.07669,-0.5778 -0.103674,-0.873812 -0.02328,-0.256948 -0.04622,-0.525265 -0.05926,-0.784946 -0.01697,-0.33376 -0.02957,-0.669207 -0.02957,-1.007104 0,-0.337955 0.01293,-0.688188 0.02957,-1.021914 0.01304,-0.262954 0.03598,-0.524793 0.05926,-0.784947 0.01596,-0.184613 0.03722,-0.364907 0.05926,-0.547979 0.02114,-0.177821 0.04869,-0.342093 0.0741,-0.518373 0.02035,-0.140882 0.03587,-0.289579 0.05926,-0.429496 0.03126,-0.185804 0.06735,-0.364007 0.103674,-0.547979 0.01169,-0.05881 0.01732,-0.119046 0.02957,-0.177731 0.06308,-0.304266 0.130403,-0.61927 0.207349,-0.918239 0.05476,-0.213129 0.115841,-0.426584 0.17772,-0.636845 0.04869,-0.166115 0.109747,-0.324494 0.16291,-0.488743 0.0786,-0.24395 0.149204,-0.48601 0.236968,-0.725699 0.01125,-0.02868 0.01923,-0.06016 0.02957,-0.08883 1.995173,-5.373116 6.267788,-9.630901 11.640939,-11.626129 0.266348,-0.09884 0.542862,-0.193787 0.814564,-0.281394 0.164159,-0.05297 0.322662,-0.09929 0.488743,-0.148101 0.210273,-0.06174 0.42375,-0.122948 0.636845,-0.177731 0.298981,-0.07691 0.59913,-0.144223 0.90343,-0.207338 0.05869,-0.01237 0.118787,-0.03284 0.177731,-0.04442 0.183971,-0.03632 0.362175,-0.0723 0.54798,-0.103675 0.139893,-0.02361 0.288579,-0.0389 0.429506,-0.05926 0.176236,-0.02563 0.355462,-0.05308 0.533171,-0.0741 0.183139,-0.02159 0.363445,-0.04251 0.547979,-0.05926 0.256353,-0.02328 0.51112,-0.03148 0.770138,-0.04442 0.333692,-0.01664 0.684026,-0.02969 1.021913,-0.02969 0.17718,0 0.357204,-0.0045 0.533171,0 0.1236,0.0033 0.247199,0.01012 0.370259,0.01484 0.05094,0.0022 0.09715,0.01147 0.148113,0.01484 0.248009,0.01304 0.495029,0.02215 0.740509,0.04442 0.273083,0.02451 0.544864,0.05341 0.814575,0.08883 0.0226,0.0033 0.05139,0.01147 0.0741,0.01484 0.02833,0.0033 0.06049,0.01125 0.08883,0.01484 0.19507,0.02721 0.384462,0.05588 0.577597,0.08883 0.263819,0.04532 0.524872,0.09243 0.784958,0.148101 0.332894,0.07118 0.665856,0.164036 0.992284,0.251777 0.320436,0.08614 0.634034,0.164979 0.947869,0.266583 0.0057,0.0022 0.0079,0.01147 0.01484,0.01484 0.132325,0.04295 0.268947,0.08759 0.399878,0.133294 l 7.227452,-5.035524 c -2.990471,-1.734348 -6.339551,-2.939086 -9.908113,-3.435971 l -3.80626,-10.559777 z m 0.01484,31.605286 c 3.351599,0 6.057425,2.720657 6.057425,6.072246 0,3.351598 -2.705793,6.072244 -6.057425,6.072244 -3.351633,0 -6.072212,-2.720646 -6.072245,-6.072244 0,-3.351589 2.720612,-6.072246 6.072245,-6.072246 z"
     id="path3470"
     inkscape:connector-curvature="0" />
</svg>
