<?xml version="1.0" encoding="UTF-8" standalone="no"?>
<!-- Created with Inkscape (http://www.inkscape.org/) -->

<svg
   xmlns:dc="http://purl.org/dc/elements/1.1/"
   xmlns:cc="http://creativecommons.org/ns#"
   xmlns:rdf="http://www.w3.org/1999/02/22-rdf-syntax-ns#"
   xmlns:svg="http://www.w3.org/2000/svg"
   xmlns="http://www.w3.org/2000/svg"
   xmlns:xlink="http://www.w3.org/1999/xlink"
   xmlns:sodipodi="http://sodipodi.sourceforge.net/DTD/sodipodi-0.dtd"
   xmlns:inkscape="http://www.inkscape.org/namespaces/inkscape"
   version="1.0"
   width="96"
   height="96"
   id="svg2408"
   inkscape:version="0.48.4 r9939"
   sodipodi:docname="network-server.svg">
  <sodipodi:namedview
     pagecolor="#ffffff"
     bordercolor="#666666"
     borderopacity="1"
     objecttolerance="10"
     gridtolerance="10"
     guidetolerance="10"
     inkscape:pageopacity="0"
     inkscape:pageshadow="2"
     inkscape:window-width="1920"
     inkscape:window-height="1005"
     id="namedview174"
     showgrid="false"
     inkscape:zoom="3.4766083"
     inkscape:cx="13.711414"
     inkscape:cy="111.2404"
     inkscape:window-x="0"
     inkscape:window-y="25"
     inkscape:window-maximized="1"
     inkscape:current-layer="svg2408" />
  <defs
     id="defs2410">
    <linearGradient
       id="linearGradient6159">
      <stop
         id="stop6161"
         style="stop-color:#747474;stop-opacity:1"
         offset="0" />
      <stop
         id="stop6163"
         style="stop-color:#000000;stop-opacity:1"
         offset="1" />
    </linearGradient>
    <linearGradient
       id="linearGradient6151">
      <stop
         id="stop6153"
         style="stop-color:#5b5b5b;stop-opacity:1"
         offset="0" />
      <stop
         id="stop6155"
         style="stop-color:#0a0a0a;stop-opacity:1"
         offset="1" />
    </linearGradient>
    <linearGradient
       id="linearGradient6069">
      <stop
         id="stop6071"
         style="stop-color:#ffffff;stop-opacity:1"
         offset="0" />
      <stop
         id="stop6073"
         style="stop-color:#7c7c7c;stop-opacity:1"
         offset="1" />
    </linearGradient>
    <linearGradient
       id="linearGradient6059">
      <stop
         id="stop6061"
         style="stop-color:#000000;stop-opacity:0.42629483"
         offset="0" />
      <stop
         id="stop6063"
         style="stop-color:#ffffff;stop-opacity:0.31707317"
         offset="1" />
    </linearGradient>
    <linearGradient
       id="linearGradient5910">
      <stop
         id="stop5912"
         style="stop-color:#000000;stop-opacity:1"
         offset="0" />
      <stop
         id="stop5916"
         style="stop-color:#656565;stop-opacity:1"
         offset="0.5" />
      <stop
         id="stop5914"
         style="stop-color:#000000;stop-opacity:1"
         offset="1" />
    </linearGradient>
    <linearGradient
       id="linearGradient5892">
      <stop
         id="stop5894"
         style="stop-color:#333333;stop-opacity:1"
         offset="0" />
      <stop
         id="stop5896"
         style="stop-color:#424242;stop-opacity:1"
         offset="1" />
    </linearGradient>
    <linearGradient
       id="linearGradient5847">
      <stop
         id="stop5849"
         style="stop-color:#333333;stop-opacity:1"
         offset="0" />
      <stop
         id="stop5857"
         style="stop-color:#333333;stop-opacity:1"
         offset="0.43065301" />
      <stop
         id="stop5855"
         style="stop-color:#000000;stop-opacity:1"
         offset="0.55547994" />
      <stop
         id="stop5851"
         style="stop-color:#000000;stop-opacity:1"
         offset="1" />
    </linearGradient>
    <linearGradient
       id="linearGradient3339">
      <stop
         id="stop3341"
         style="stop-color:#4f4f4f;stop-opacity:1"
         offset="0" />
      <stop
         id="stop3343"
         style="stop-color:#a2a2a2;stop-opacity:1"
         offset="1" />
    </linearGradient>
    <linearGradient
       id="linearGradient3303">
      <stop
         id="stop3305"
         style="stop-color:#1a1a1a;stop-opacity:1"
         offset="0" />
      <stop
         id="stop3313"
         style="stop-color:#1a1a1a;stop-opacity:1"
         offset="0.25049603" />
      <stop
         id="stop3311"
         style="stop-color:#cdff01;stop-opacity:1"
         offset="0.50099206" />
      <stop
         id="stop3315"
         style="stop-color:#1a1a1a;stop-opacity:1"
         offset="0.75049603" />
      <stop
         id="stop3307"
         style="stop-color:#1a1a1a;stop-opacity:1"
         offset="1" />
    </linearGradient>
    <linearGradient
       id="linearGradient3265">
      <stop
         id="stop3267"
         style="stop-color:#6262ea;stop-opacity:1"
         offset="0" />
      <stop
         id="stop3269"
         style="stop-color:#4b28d9;stop-opacity:1"
         offset="1" />
    </linearGradient>
    <linearGradient
       x1="45.447727"
       y1="92.539597"
       x2="45.447727"
       y2="7.0165396"
       id="linearGradient3175"
       gradientUnits="userSpaceOnUse"
       gradientTransform="scale(1.0058652,0.994169)">
      <stop
         id="stop3177"
         style="stop-color:#000000;stop-opacity:1"
         offset="0" />
      <stop
         id="stop3179"
         style="stop-color:#000000;stop-opacity:0"
         offset="1" />
    </linearGradient>
    <linearGradient
       x1="45.447727"
       y1="92.539597"
       x2="45.447727"
       y2="7.0165396"
       id="ButtonShadow"
       gradientUnits="userSpaceOnUse"
       gradientTransform="scale(1.0058652,0.994169)">
      <stop
         id="stop3750"
         style="stop-color:#000000;stop-opacity:1"
         offset="0" />
      <stop
         id="stop3752"
         style="stop-color:#000000;stop-opacity:0.58823532"
         offset="1" />
    </linearGradient>
    <linearGradient
       id="linearGradient3737">
      <stop
         id="stop3739"
         style="stop-color:#ffffff;stop-opacity:1"
         offset="0" />
      <stop
         id="stop3741"
         style="stop-color:#ffffff;stop-opacity:0"
         offset="1" />
    </linearGradient>
    <linearGradient
       id="linearGradient3700">
      <stop
         id="stop3702"
         style="stop-color:#0a0a0a;stop-opacity:1"
         offset="0" />
      <stop
         id="stop3704"
         style="stop-color:#3c3c3c;stop-opacity:1"
         offset="1" />
    </linearGradient>
    <linearGradient
       x1="48"
       y1="90"
       x2="48"
       y2="5.9877172"
       id="linearGradient3706"
       xlink:href="#linearGradient3700"
       gradientUnits="userSpaceOnUse" />
    <filter
       color-interpolation-filters="sRGB"
       id="filter3174">
      <feGaussianBlur
         id="feGaussianBlur3176"
         stdDeviation="1.71" />
    </filter>
    <linearGradient
       x1="36.357143"
       y1="6"
       x2="36.357143"
       y2="63.893143"
       id="linearGradient3188"
       xlink:href="#linearGradient3737"
       gradientUnits="userSpaceOnUse" />
    <linearGradient
       x1="70.714287"
       y1="5.9107141"
       x2="70.714287"
       y2="27.598066"
       id="linearGradient3261"
       xlink:href="#linearGradient3737"
       gradientUnits="userSpaceOnUse"
       gradientTransform="translate(1.999571,0)" />
    <linearGradient
       x1="70.714287"
       y1="5.9107141"
       x2="70.714287"
       y2="27.598066"
       id="linearGradient3263"
       xlink:href="#linearGradient3737"
       gradientUnits="userSpaceOnUse"
       gradientTransform="translate(1.999571,0)" />
    <radialGradient
       cx="77.203049"
       cy="-0.56155205"
       r="21"
       fx="77.203049"
       fy="-0.56155205"
       id="radialGradient3271"
       xlink:href="#linearGradient3265"
       gradientUnits="userSpaceOnUse"
       gradientTransform="matrix(-2.1665545,0,0,-0.5395886,244.46766,12.393693)" />
    <radialGradient
       cx="34.520515"
       cy="45"
       r="27"
       fx="34.520515"
       fy="45"
       id="radialGradient3275"
       xlink:href="#linearGradient3737"
       gradientUnits="userSpaceOnUse"
       gradientTransform="matrix(1.7295546,-8.1481481e-8,3.5901709e-8,0.7620623,-29.705119,-4.2927974)" />
    <linearGradient
       x1="30"
       y1="31"
       x2="48"
       y2="31"
       id="linearGradient3309"
       xlink:href="#linearGradient3303"
       gradientUnits="userSpaceOnUse" />
    <linearGradient
       x1="39"
       y1="34"
       x2="39"
       y2="32"
       id="linearGradient3337"
       xlink:href="#linearGradient3339"
       gradientUnits="userSpaceOnUse" />
    <linearGradient
       x1="38.473213"
       y1="72"
       x2="38.473213"
       y2="82.013863"
       id="linearGradient5875"
       xlink:href="#linearGradient5847"
       gradientUnits="userSpaceOnUse" />
    <linearGradient
       x1="33"
       y1="76.5"
       x2="34"
       y2="76.5"
       id="linearGradient5886"
       xlink:href="#linearGradient3175"
       gradientUnits="userSpaceOnUse" />
    <linearGradient
       x1="33"
       y1="76.5"
       x2="34"
       y2="76.5"
       id="linearGradient5890"
       xlink:href="#linearGradient3175"
       gradientUnits="userSpaceOnUse"
       gradientTransform="translate(-78,0)" />
    <linearGradient
       x1="39"
       y1="73"
       x2="39"
       y2="83.043022"
       id="linearGradient5898"
       xlink:href="#linearGradient5892"
       gradientUnits="userSpaceOnUse" />
    <linearGradient
       x1="39"
       y1="34"
       x2="39"
       y2="32"
       id="linearGradient5904"
       xlink:href="#linearGradient3339"
       gradientUnits="userSpaceOnUse"
       gradientTransform="translate(0,4)" />
    <linearGradient
       x1="39"
       y1="34"
       x2="39"
       y2="32"
       id="linearGradient5908"
       xlink:href="#linearGradient5910"
       gradientUnits="userSpaceOnUse"
       gradientTransform="matrix(1,0,0,0.9107143,0,9.9285719)" />
    <linearGradient
       x1="33"
       y1="76.5"
       x2="34"
       y2="76.5"
       id="linearGradient5934"
       xlink:href="#linearGradient3175"
       gradientUnits="userSpaceOnUse"
       gradientTransform="matrix(2,0,0,1.3333334,6,-141)" />
    <linearGradient
       x1="39"
       y1="72"
       x2="39"
       y2="42"
       id="linearGradient6026"
       xlink:href="#linearGradient5892"
       gradientUnits="userSpaceOnUse" />
    <filter
       color-interpolation-filters="sRGB"
       id="filter6036">
      <feGaussianBlur
         id="feGaussianBlur6038"
         stdDeviation="0.285" />
    </filter>
    <filter
       color-interpolation-filters="sRGB"
       id="filter6045">
      <feGaussianBlur
         id="feGaussianBlur6047"
         stdDeviation="0.1903125" />
    </filter>
    <linearGradient
       x1="36.925404"
       y1="48"
       x2="42.850594"
       y2="48"
       id="linearGradient6065"
       xlink:href="#linearGradient6059"
       gradientUnits="userSpaceOnUse" />
    <linearGradient
       x1="34.139206"
       y1="48"
       x2="43.64254"
       y2="48"
       id="linearGradient6075"
       xlink:href="#linearGradient6069"
       gradientUnits="userSpaceOnUse" />
    <linearGradient
       x1="36.925404"
       y1="48"
       x2="42.850594"
       y2="48"
       id="linearGradient6142"
       xlink:href="#linearGradient6059"
       gradientUnits="userSpaceOnUse" />
    <linearGradient
       x1="34.139206"
       y1="48"
       x2="43.64254"
       y2="48"
       id="linearGradient6149"
       xlink:href="#linearGradient6159"
       gradientUnits="userSpaceOnUse" />
    <linearGradient
       x1="34.571178"
       y1="48"
       x2="43.210567"
       y2="48"
       id="linearGradient6157"
       xlink:href="#linearGradient6151"
       gradientUnits="userSpaceOnUse" />
    <linearGradient
       x1="36.925404"
       y1="48"
       x2="42.850594"
       y2="48"
       id="linearGradient6196"
       xlink:href="#linearGradient6059"
       gradientUnits="userSpaceOnUse" />
    <linearGradient
       x1="34.139206"
       y1="48"
       x2="43.64254"
       y2="48"
       id="linearGradient6198"
       xlink:href="#linearGradient6159"
       gradientUnits="userSpaceOnUse" />
    <linearGradient
       x1="34.365479"
       y1="48"
       x2="43.416267"
       y2="48"
       id="linearGradient6214"
       xlink:href="#linearGradient6151"
       gradientUnits="userSpaceOnUse" />
    <linearGradient
       id="linearGradient3737-2">
      <stop
         id="stop3739-2"
         style="stop-color:#ffffff;stop-opacity:1"
         offset="0" />
      <stop
         id="stop3741-6"
         style="stop-color:#ffffff;stop-opacity:0"
         offset="1" />
    </linearGradient>
    <radialGradient
       cx="48"
       cy="90.171875"
       r="42"
       fx="48"
       fy="90.171875"
       id="radialGradient2893"
       xlink:href="#linearGradient3737-2"
       gradientUnits="userSpaceOnUse"
       gradientTransform="matrix(1.1573129,0,0,0.99590774,-7.551021,0.1971319)" />
    <linearGradient
       x1="45.447727"
       y1="92.539597"
       x2="45.447727"
       y2="7.0165396"
       id="ButtonShadow-0"
       gradientUnits="userSpaceOnUse"
       gradientTransform="matrix(1.0058652,0,0,0.994169,100,0)">
      <stop
         id="stop3750-8"
         style="stop-color:#000000;stop-opacity:1"
         offset="0" />
      <stop
         id="stop3752-5"
         style="stop-color:#000000;stop-opacity:0.58823532"
         offset="1" />
    </linearGradient>
    <linearGradient
       x1="32.251034"
       y1="6.1317081"
       x2="32.251034"
       y2="90.238609"
       id="linearGradient3780"
       xlink:href="#ButtonShadow-0"
       gradientUnits="userSpaceOnUse"
       gradientTransform="matrix(1.0238095,0,0,1.0119048,-1.1428571,-98.071429)" />
    <linearGradient
       x1="32.251034"
       y1="6.1317081"
       x2="32.251034"
       y2="90.238609"
       id="linearGradient3772"
       xlink:href="#ButtonShadow-0"
       gradientUnits="userSpaceOnUse"
       gradientTransform="matrix(1.0238095,0,0,1.0119048,-1.1428571,-98.071429)" />
    <linearGradient
       x1="32.251034"
       y1="6.1317081"
       x2="32.251034"
       y2="90.238609"
       id="linearGradient3725"
       xlink:href="#ButtonShadow-0"
       gradientUnits="userSpaceOnUse"
       gradientTransform="matrix(1.0238095,0,0,1.0119048,-1.1428571,-98.071429)" />
    <linearGradient
       x1="32.251034"
       y1="6.1317081"
       x2="32.251034"
       y2="90.238609"
       id="linearGradient3721"
       xlink:href="#ButtonShadow-0"
       gradientUnits="userSpaceOnUse"
       gradientTransform="translate(0,-97)" />
    <linearGradient
       x1="32.251034"
       y1="6.1317081"
       x2="32.251034"
       y2="90.238609"
       id="linearGradient2918"
       xlink:href="#ButtonShadow-0"
       gradientUnits="userSpaceOnUse"
       gradientTransform="matrix(1.0238095,0,0,1.0119048,-1.1428571,-98.071429)" />
  </defs>
  <metadata
     id="metadata2413">
    <rdf:RDF>
      <cc:Work
         rdf:about="">
        <dc:format>image/svg+xml</dc:format>
        <dc:type
           rdf:resource="http://purl.org/dc/dcmitype/StillImage" />
      </cc:Work>
    </rdf:RDF>
  </metadata>
  <g
     id="layer2"
     style="display:none">
    <rect
       width="86"
       height="85"
       rx="6"
       ry="6"
       x="5"
       y="7"
       id="rect3745"
       style="opacity:0.9;fill:url(#ButtonShadow);fill-opacity:1;fill-rule:nonzero;stroke:none;filter:url(#filter3174)" />
  </g>
  <g
     id="layer5" />
  <g
     id="g3289">
    <g
       id="layer1">
      <rect
         style="fill:#333333;fill-opacity:1;fill-rule:nonzero;stroke:none"
         id="rect2419"
         y="6"
         x="6"
         ry="6"
         rx="6"
         height="84"
         width="84" />
    </g>
    <g
       style="display:inline"
       id="layer6">
      <path
         style="fill:#666666;fill-opacity:1;fill-rule:nonzero;stroke:none"
         id="path6127"
         transform="matrix(0,1.767801,-1.767801,0,102.85445,9.248673)"
         d="m 42.850595,48 a 3.9597216,3.9597216 0 1 1 -7.919444,0 3.9597216,3.9597216 0 1 1 7.919444,0 z" />
      <path
         style="fill:#c6c6c6;fill-opacity:1;fill-rule:nonzero;stroke:#000000;stroke-width:0.71994935999999998;stroke-linecap:square;stroke-linejoin:miter;stroke-miterlimit:4;stroke-opacity:1;stroke-dasharray:none;stroke-dashoffset:0"
         id="path6129"
         transform="matrix(0,1.3889865,-1.3889866,0,84.671354,23.981104)"
         d="m 42.850595,48 a 3.9597216,3.9597216 0 1 1 -7.919444,0 3.9597216,3.9597216 0 1 1 7.919444,0 z" />
      <text
         style="font-size:3px;font-style:normal;font-variant:normal;font-weight:normal;font-stretch:semi-condensed;text-align:start;line-height:120.00000476999998966%;writing-mode:lr-tb;text-anchor:start;fill:#cccccc;fill-opacity:1;stroke:none;font-family:DejaVu Sans;-inkscape-font-specification:DejaVu Sans Semi-Condensed"
         xml:space="preserve"
         id="text6177"
         y="70"
         x="13.787839"><tspan
           style="fill:#cccccc"
           id="tspan6179"
           y="70"
           x="13.787839">Power</tspan></text>
      <g
         id="g6191"
         transform="matrix(1.0227125,0,0,1.0227125,-0.2952619,-1.4763096)">
        <path
           style="fill:#666666;fill-opacity:1;fill-rule:nonzero;stroke:none"
           id="path6181"
           transform="matrix(0,1.2346726,-1.2346726,0,77.153245,12.093545)"
           d="m 42.850595,48 a 3.9597216,3.9597216 0 1 1 -7.919444,0 3.9597216,3.9597216 0 1 1 7.919444,0 z" />
        <path
           style="fill:#c6c6c6;fill-opacity:1;fill-rule:nonzero;stroke:#000000;stroke-width:1.13134921000000022;stroke-linecap:square;stroke-linejoin:miter;stroke-miterlimit:4;stroke-opacity:1;stroke-dasharray:none;stroke-dashoffset:0"
           id="path6183"
           transform="matrix(0,0.8642708,-0.8642708,0,59.373958,26.498794)"
           d="m 42.850595,48 a 3.9597216,3.9597216 0 1 1 -7.919444,0 3.9597216,3.9597216 0 1 1 7.919444,0 z" />
      </g>
      <text
         style="font-size:3px;font-style:normal;font-variant:normal;font-weight:normal;font-stretch:semi-condensed;text-align:start;line-height:120.00000476999998966%;writing-mode:lr-tb;text-anchor:start;fill:#cccccc;fill-opacity:1;stroke:none;font-family:DejaVu Sans;-inkscape-font-specification:DejaVu Sans Semi-Condensed"
         xml:space="preserve"
         id="text6216"
         y="54"
         x="14.132813"><tspan
           style="fill:#cccccc"
           id="tspan6218"
           y="54"
           x="14.132813">Reset</tspan></text>
      <text
         sodipodi:linespacing="120%"
         style="font-size:2.98561859000000007px;font-style:normal;font-variant:normal;font-weight:normal;font-stretch:normal;text-align:start;line-height:120.00000476999998966%;writing-mode:lr-tb;text-anchor:start;fill:#cccccc;fill-opacity:1;stroke:none;font-family:Contour Generator;-inkscape-font-specification:Contour Generator"
         xml:space="preserve"
         id="text6220"
         transform="scale(0.89721467,1.1145605)"
         y="14.355434"
         x="11.078692"><tspan
           style="fill:#cccccc"
           id="tspan6222"
           y="14.355434"
           x="11.078692">FLATTENZA</tspan></text>
      <text
         style="font-size:2px;font-style:normal;font-variant:normal;font-weight:bold;font-stretch:semi-condensed;text-align:start;line-height:120.00000476999998966%;writing-mode:lr-tb;text-anchor:start;fill:#cccccc;fill-opacity:1;stroke:none;font-family:DejaVu Sans;-inkscape-font-specification:DejaVu Sans Bold Semi-Condensed"
         xml:space="preserve"
         id="text6224"
         y="18.975868"
         x="9.8489876"><tspan
           style="fill:#cccccc"
           id="tspan6226"
           y="18.975868"
           x="9.8489876">Icon Server</tspan></text>
    </g>
    <rect
       width="54"
       height="26.013456"
       x="30"
       y="6"
       id="rect3189"
       style="fill:#4d4d4d;fill-opacity:1;fill-rule:nonzero;stroke:none" />
    <rect
       width="1"
       height="84"
       x="29"
       y="6"
       id="rect3200"
       style="fill:#000000;fill-opacity:1;fill-rule:nonzero;stroke:none" />
    <rect
       width="1"
       height="84"
       x="84"
       y="6"
       id="rect3210"
       style="fill:#000000;fill-opacity:1;fill-rule:nonzero;stroke:none" />
    <g
       id="g3285">
      <rect
         ry="1.8305085"
         rx="1.8305085"
         style="fill:#0088aa;fill-opacity:1;fill-rule:nonzero;stroke:none"
         id="rect3255"
         y="12.5"
         x="36.5"
         height="11"
         width="41" />
      <path
         style="font-size:4px;font-style:normal;font-variant:normal;font-weight:normal;font-stretch:normal;text-align:start;line-height:120.00000477000000387%;writing-mode:lr-tb;text-anchor:start;fill:#ffffff;fill-opacity:1;stroke:none;font-family:Minisystem;-inkscape-font-specification:Minisystem"
         id="path3290"
         inkscape:connector-curvature="0"
         d="m 41.166725,14.024744 c -0.151503,0.27927 0.0462,0.47655 0.376294,0.375 0.226264,0.08174 -0.01602,0.522414 0.02996,0.75 -0.0083,0.304282 -0.07639,0.628078 -0.0625,0.96875 -0.02655,0.26168 -0.01046,0.646459 -0.440087,0.5 -0.271385,-0.06571 -0.206637,0.513823 0.09634,0.34375 0.36359,-0.02183 0.813764,0.04293 1.125,-0.03125 0.179262,-0.390774 -0.202718,-0.317916 -0.471337,-0.3125 -0.004,-0.198881 0.03243,-0.578889 0.06509,-0.78125 0.03062,-0.506668 0.07797,-0.954558 0.125,-1.4375 0.272482,3.29e-4 0.618782,0.0859 0.53125,-0.3125 -0.148351,-0.143315 -0.560372,-0.02296 -0.8125,-0.0625 -0.1875,0 -0.375,0 -0.5625,0 z m 10.875,0 c 0.0507,0.359636 -0.392621,0.165289 -0.34375,0.53125 -0.0029,0.288304 -0.04313,0.535318 -0.0625,0.84375 0.332925,-0.07251 0.134597,0.386236 0.5,0.28125 0.333333,0 0.666667,0 1,0 0.01325,0.315324 -0.08857,0.620655 -0.0625,0.9375 -0.415918,0.02158 -0.91713,-0.04213 -1.28125,0.03125 -0.185381,0.405019 0.229444,0.31152 0.5,0.3125 0.271141,-0.02053 0.624285,0.04095 0.84375,-0.03125 -0.02711,-0.344411 0.446569,-0.117086 0.3125,-0.5625 0.04089,-0.276595 0.05212,-0.486858 0.0625,-0.75 -0.332925,0.07251 -0.134597,-0.386236 -0.5,-0.28125 -0.333333,0 -0.666667,0 -1,0 -0.02119,-0.316661 0.08944,-0.62027 0.0625,-0.9375 0.427209,-0.02071 0.936259,0.04043 1.3125,-0.03125 0.124844,-0.396539 -0.180237,-0.363154 -0.471337,-0.34375 -0.290804,0 -0.581609,0 -0.872413,0 z m 2.40625,0 c 0.0507,0.359636 -0.392621,0.165289 -0.34375,0.53125 -0.0029,0.288304 -0.04313,0.535318 -0.0625,0.84375 0.390367,0.04063 0.192115,0.191364 -0.03125,0.25 -0.01489,0.323903 -0.06053,0.673831 -0.09375,1.03125 0.332925,-0.07251 0.134597,0.386236 0.5,0.28125 0.363661,-0.02175 0.812827,0.04199 1.125,-0.03125 0.179262,-0.390774 -0.202718,-0.317916 -0.471337,-0.3125 -0.259554,0 -0.519109,0 -0.778663,0 0.03374,-0.280582 0.03309,-0.670683 0.09375,-0.9375 0.417724,-0.01978 0.915512,0.04051 1.28125,-0.03125 0.119742,-0.381021 -0.201985,-0.320573 -0.471337,-0.3125 -0.243756,-0.03892 -0.679519,0.07956 -0.797402,-0.06255 0.0483,-0.308198 0.06006,-0.595328 0.08124,-0.874945 0.415693,-0.02181 0.916972,0.04197 1.28125,-0.03125 0.190689,-0.425471 -0.2068,-0.352393 -0.5,-0.34375 -0.270833,0 -0.541667,0 -0.8125,0 z m 2.40625,0 c 0.0199,0.332692 -0.442734,0.145333 -0.34375,0.5625 -0.0056,0.262339 -0.04448,0.495631 -0.0625,0.78125 0.432942,0.06539 0.12108,0.153666 -0.03125,0.28125 0.03265,0.336034 -0.137809,0.744292 -0.03125,1.03125 0.362253,0.111822 0.318796,-0.182066 0.34375,-0.407544 0.03747,-0.243565 -0.05668,-0.696931 0.3125,-0.592456 0.367324,-0.08521 0.449904,0.11432 0.46875,0.377587 0.03521,0.203514 0.125435,0.352007 0.125,0.591163 0.194393,0.156163 0.495921,-0.06643 0.34375,-0.28125 -0.02573,-0.169395 -0.115616,-0.279162 -0.09375,-0.5 -0.308731,-0.215415 0.386601,-0.09771 0.1875,-0.46875 0.384085,0.113252 0.273859,-0.267808 0.3125,-0.5 -0.02737,-0.239532 0.244413,-0.740075 -0.1875,-0.625 0.11383,-0.416344 -0.411162,-0.193867 -0.657544,-0.25 -0.228735,0 -0.457471,0 -0.686206,0 z m 4.78125,0 c 0.08602,0.367265 -0.412467,0.150033 -0.3125,0.53125 -0.02936,0.309549 -0.05888,0.549154 -0.0625,0.84375 0.376943,0.03183 0.173707,0.187789 -0.03125,0.25 -0.0545,0.365595 -0.05203,0.658264 -0.09375,1.03125 0.332925,-0.07251 0.134597,0.386236 0.5,0.28125 0.365694,-0.01972 0.811928,0.0411 1.125,-0.03125 0.119742,-0.381021 -0.201985,-0.320573 -0.471337,-0.3125 -0.241364,-0.03945 -0.643697,0.08206 -0.778663,-0.06379 -0.01031,-0.294319 0.08934,-0.57775 0.0625,-0.873706 0.415693,-0.02181 0.916972,0.04197 1.28125,-0.03125 0.172286,-0.37458 -0.175262,-0.323871 -0.440087,-0.3125 -0.243001,-0.03954 -0.678085,0.07838 -0.797402,-0.06255 0.03776,-0.31431 0.03392,-0.555352 0.08124,-0.874945 0.416707,-0.02079 0.917432,0.04243 1.28125,-0.03125 0.183653,-0.410261 -0.180439,-0.358582 -0.471337,-0.34375 -0.290804,0 -0.581609,0 -0.872413,0 z m 2.40625,0 c 0.05997,0.336735 -0.387312,0.138207 -0.3125,0.53125 -0.0175,0.255784 -0.07597,0.609128 -0.03125,0.8125 0.469616,0.107562 -0.07276,0.112458 -0.0625,0.345044 -0.02417,0.280497 -0.0613,0.61722 -0.09375,0.936206 0.26781,0.141102 0.459705,-0.0246 0.387511,-0.343805 0.109567,-0.220161 -0.103108,-0.720825 0.268739,-0.624945 0.298904,-0.02685 0.50236,-0.02527 0.46875,0.25 0.05916,0.130375 0.07557,0.312967 0.125,0.46875 -0.01137,0.162389 0.112602,0.418767 0.375,0.25 0.07458,-0.170901 -0.0091,-0.448019 -0.09375,-0.5625 -0.0719,-0.326584 -0.05474,-0.394516 0.21875,-0.46875 -0.03029,-0.331235 0.436768,-0.1319 0.293761,-0.593805 0.0082,-0.230446 0.137537,-0.618563 -0.01251,-0.749945 -0.290783,0.04303 -0.04461,-0.422385 -0.5,-0.25 -0.34375,0 -0.6875,0 -1.03125,0 z m -25.5625,0.28125 c -0.03976,0.308692 -0.102666,0.733548 -0.09375,1.09375 0.21926,0.131295 0.449864,-0.02037 0.375,-0.3125 -0.0059,-0.225326 0.09286,-0.547749 0.03125,-0.75 -0.01516,-0.07517 -0.237812,-0.01085 -0.3125,-0.03125 z m 4.84375,0 c -0.0921,0.238876 -0.06974,0.543586 -0.09375,0.8125 -0.200109,0.31356 0.219517,0.416841 0.34375,0.25 -0.05401,-0.270922 0.109411,-0.765379 0.09375,-0.21875 0.02278,0.174124 0.156189,0.404908 0.40625,0.25 0.07327,-0.290364 -0.04805,-0.376357 -0.0625,-0.59375 -0.157555,-0.102532 -0.01954,-0.398715 -0.15625,-0.5 -0.177083,0 -0.354167,0 -0.53125,0 z m 1.53125,0 c -0.07285,0.299608 -0.07193,0.71682 -0.125,1.09375 0.250391,0.143428 0.446293,-0.03209 0.40625,-0.28125 -0.04932,-0.263544 0.111833,-0.602361 0.03125,-0.8125 -0.104167,0 -0.208333,0 -0.3125,0 z m 0.875,0 c -0.07343,0.300053 -0.0702,0.716978 -0.125,1.09375 0.250391,0.143428 0.446293,-0.03209 0.40625,-0.28125 -0.04598,-0.253727 0.134946,-0.661314 -0.03125,-0.8125 -0.08333,0 -0.166667,0 -0.25,0 z m 1.53125,0 c -0.03976,0.308692 -0.102666,0.733548 -0.09375,1.09375 0.21926,0.131295 0.449864,-0.02037 0.375,-0.3125 -0.0059,-0.225326 0.09286,-0.547749 0.03125,-0.75 -0.02879,-0.07721 -0.224913,-0.0097 -0.3125,-0.03125 z m 1.15625,0 c -0.158508,0.235434 0.05644,0.33201 0,0.5625 0.102561,0.111768 0.103181,0.320759 0.125,0.5 0.148916,0.178132 0.53034,0.048 0.375,-0.28125 -0.125132,-0.114452 -0.05313,-0.426041 -0.1875,-0.53125 0.04777,-0.287059 -0.06309,-0.261156 -0.3125,-0.25 z m 1,0 c -0.04001,0.186285 -0.112945,0.382206 -0.21875,0.53125 -0.02676,0.180958 -0.214435,0.367599 -0.09375,0.59375 0.365325,0.105063 0.347856,-0.215661 0.427225,-0.438351 0.100455,-0.181932 0.151398,-0.328978 0.229025,-0.561649 0.03896,-0.20018 -0.203542,-0.103088 -0.34375,-0.125 z m 9.5625,0 c -0.124491,0.302325 -0.07255,0.738546 -0.125,1.09375 0.271778,0.158139 0.428497,-0.07654 0.387511,-0.375055 0.002,-0.259317 0.09303,-0.514208 0.01874,-0.718695 -0.09375,0 -0.1875,0 -0.28125,0 z m 1.28125,0 c -0.07597,0.19283 -0.146228,0.369482 -0.21875,0.53125 -0.05919,0.152261 -0.282952,0.434569 -0.09375,0.59375 0.328611,0.08799 0.339151,-0.225754 0.40625,-0.407544 0.02857,-0.218151 0.234163,-0.339312 0.21875,-0.595043 0.03708,-0.186644 -0.178309,-0.106614 -0.3125,-0.122413 z m -3.375,0.09375 c 0.395833,0 0.791667,0 1.1875,0 -0.03244,0.271317 -0.03993,0.59844 -0.09375,0.90625 -0.385417,0 -0.770833,0 -1.15625,0 -0.01478,-0.304904 0.08554,-0.600027 0.0625,-0.90625 z m 7.21875,0 c 0.395833,0 0.791667,0 1.1875,0 -0.06399,0.322565 -0.03756,0.577923 -0.09375,0.90625 -0.395833,0 -0.791667,0 -1.1875,0 0.07061,-0.311523 0.06686,-0.622142 0.09375,-0.90625 z m -25.71875,1.1875 c -0.105206,0.294724 -0.05447,0.636199 -0.118772,0.968859 0.01676,0.216788 0.310325,0.187934 0.306272,0.437391 0.428064,-0.01985 0.936358,0.04053 1.3125,-0.03125 0.124844,-0.396539 -0.180237,-0.363154 -0.471337,-0.34375 -0.241914,-0.03851 -0.683285,0.07871 -0.794441,-0.06189 0.04812,-0.33585 0.06886,-0.620097 0.07828,-0.938111 -0.05995,-0.05428 -0.204046,-0.02486 -0.3125,-0.03125 z m 4.8125,0 c -0.04553,0.307052 -0.102411,0.734786 -0.09375,1.09375 0.248716,0.148683 0.402535,-0.05352 0.375,-0.28125 -0.04932,-0.263544 0.111833,-0.602361 0.03125,-0.8125 -0.104167,0 -0.208333,0 -0.3125,0 z m 1.03125,0 c -0.09469,0.196077 0.03645,0.417571 0.0625,0.59375 0.107662,0.153186 -0.02775,0.549449 0.251294,0.53125 0.289401,0.03492 0.546163,0.02366 0.467456,-0.34375 0.04089,-0.276595 0.05212,-0.486858 0.0625,-0.75 -0.26781,-0.141102 -0.459705,0.0246 -0.387511,0.343805 -0.04606,0.299932 -0.10166,-0.208375 -0.112489,-0.281305 0.02051,-0.159104 -0.224166,-0.07265 -0.34375,-0.09375 z m 1.375,0 c -0.06354,0.257969 -0.04469,0.673994 -0.09375,0.938794 -0.01362,0.281517 0.327689,0.148628 0.25,0.467456 0.448513,-0.02024 0.977708,0.04021 1.375,-0.03125 -0.114627,-0.395877 0.453947,-0.108553 0.28125,-0.5625 0.01945,-0.249825 0.150961,-0.660817 0,-0.8125 -0.400105,-0.126632 -0.290916,0.336455 -0.34375,0.59375 0.02475,0.306861 -0.03779,0.526438 -0.408837,0.4375 -0.229447,-0.06485 -0.803711,0.139533 -0.778969,-0.123778 0.01503,-0.277444 0.07686,-0.652233 0.03156,-0.876222 -0.01516,-0.07517 -0.237812,-0.01085 -0.3125,-0.03125 z m 2.9375,0 c -0.04001,0.186285 -0.112945,0.382206 -0.21875,0.53125 -0.0085,0.180527 -0.237443,0.373592 -0.125,0.59375 0.381526,0.131526 0.309986,-0.190014 0.4375,-0.3125 0.06692,-0.253852 0.140039,-0.388618 0.231261,-0.593805 0.100891,-0.285086 -0.114126,-0.213405 -0.325011,-0.218695 z m 0.53125,0 c -0.158508,0.235434 0.05644,0.33201 0,0.5625 0.102561,0.111768 0.103181,0.320759 0.125,0.5 0.148916,0.178132 0.53034,0.048 0.375,-0.28125 -0.125132,-0.114452 -0.05313,-0.426041 -0.1875,-0.53125 0.04777,-0.287059 -0.06309,-0.261156 -0.3125,-0.25 z m 9.78125,0 c -0.07285,0.299608 -0.07193,0.71682 -0.125,1.09375 0.137767,0.01072 0.62742,0.145705 0.635488,-0.09418 0.05805,-0.251622 0.195116,-0.390201 0.239512,-0.655824 0.202858,-0.153799 0.07487,-0.483111 -0.25,-0.34375 -0.05146,0.188121 -0.104864,0.374303 -0.1875,0.53125 -0.05146,-0.15838 0.147506,-0.667172 -0.25,-0.53125 l -0.03125,0 -0.03125,0 z m -17.5625,3.25 c 0.07708,0.358329 -0.448006,0.114494 -0.3125,0.53125 0.0016,0.259989 -0.160957,0.68084 0,0.84375 0.310665,-0.04854 0.01946,0.468249 0.5,0.28125 0.3125,0 0.625,0 0.9375,0 -0.06208,0.323878 -0.03783,0.577839 -0.09375,0.90625 -0.417724,0.01978 -0.915512,-0.04051 -1.28125,0.03125 -0.124844,0.396539 0.180237,0.363154 0.471337,0.34375 0.291017,-0.02062 0.664783,0.04151 0.903663,-0.03125 -0.114627,-0.395877 0.453947,-0.108553 0.28125,-0.5625 0.02134,-0.248796 0.150942,-0.659738 0,-0.8125 -0.496034,-0.103896 0.22129,-0.08649 0.125,-0.375 0.01318,-0.289814 0.08068,-0.667289 0.03125,-0.90625 -0.347672,0.08726 -0.105124,-0.41571 -0.53125,-0.25 -0.34375,0 -0.6875,0 -1.03125,0 z m 2.40625,0 c -0.151503,0.27927 0.0462,0.47655 0.376294,0.375 0.291235,0 0.582471,0 0.873706,0 -0.06208,0.323878 -0.03783,0.577839 -0.09375,0.90625 -0.417137,0.02036 -0.917249,-0.04225 -1.28125,0.03125 -0.02855,0.299861 -0.405,0.18215 -0.3125,0.5625 0.06402,0.245241 -0.157772,0.640333 0,0.78125 0.310508,-0.03967 0.086,0.455664 0.53125,0.28125 0.332578,-0.02159 0.750092,0.04176 1.03125,-0.03125 0.183653,-0.410261 -0.180439,-0.358582 -0.471337,-0.34375 -0.241364,-0.03945 -0.643697,0.08206 -0.778663,-0.06379 -0.004,-0.283275 0.08858,-0.556992 0.0625,-0.842456 0.427591,-0.02033 0.936696,0.04086 1.3125,-0.03125 -0.114627,-0.395877 0.453947,-0.108553 0.28125,-0.5625 0.02134,-0.248796 0.150942,-0.659738 0,-0.8125 -0.290783,0.04303 -0.04462,-0.422385 -0.5,-0.25 -0.34375,0 -0.6875,0 -1.03125,0 z m 5.59375,0 c 0.0199,0.332692 -0.442734,0.145333 -0.34375,0.5625 0.02164,0.249357 -0.09789,0.561234 -0.03125,0.78125 0.469616,0.107562 -0.07276,0.112458 -0.0625,0.345044 -0.02417,0.280497 -0.0613,0.61722 -0.09375,0.936206 0.35417,-0.08334 0.114442,0.427225 0.5,0.3125 0.363661,-0.02175 0.812827,0.04199 1.125,-0.03125 -0.06493,-0.379039 0.43182,-0.133162 0.3125,-0.5625 0.01042,-0.256626 0.04574,-0.496291 0.0625,-0.78125 -0.332925,0.07251 -0.134597,-0.386236 -0.5,-0.28125 -0.34375,0 -0.6875,0 -1.03125,0 0.07001,-0.313969 0.06672,-0.618897 0.09375,-0.90625 0.415693,-0.02181 0.916972,0.04197 1.28125,-0.03125 0.190689,-0.425471 -0.2068,-0.352393 -0.5,-0.34375 -0.270833,0 -0.541667,0 -0.8125,0 z m 2.40625,0 c 0.0199,0.332692 -0.442734,0.145333 -0.34375,0.5625 0.02164,0.249357 -0.09789,0.561234 -0.03125,0.78125 0.490008,0.124939 -0.06181,0.103848 -0.0625,0.345044 0.01935,0.313992 -0.13476,0.701629 -0.03125,0.967456 0.373468,-0.101341 0.01733,0.466678 0.5,0.28125 0.343247,-0.02134 0.770812,0.04165 1.0625,-0.03125 -0.06493,-0.379039 0.43182,-0.133162 0.3125,-0.5625 0.04121,-0.287856 0.05523,-0.503371 0.0625,-0.78125 -0.432942,-0.06539 -0.12108,-0.153666 0.03125,-0.28125 0.0179,-0.308493 0.06591,-0.654666 0.09375,-1 -0.332925,0.07251 -0.134597,-0.386236 -0.5,-0.28125 -0.364583,0 -0.729167,0 -1.09375,0 z m 5.5625,0 c 0.09446,0.355739 -0.406852,0.115706 -0.3125,0.471337 -0.03632,0.246068 -0.0596,0.582738 -0.09375,0.872413 0.250391,0.143428 0.446293,-0.03209 0.40625,-0.28125 0.06469,-0.212977 -0.10297,-0.719694 0.190087,-0.6875 0.342888,0 0.685775,0 1.028663,0 0.02625,0.326008 -0.136427,0.722877 -0.03125,1 0.356864,0.117715 0.363333,-0.202233 0.34375,-0.471337 0.004,-0.151964 0.132293,-0.558299 0,-0.653663 -0.292282,0.03187 -0.111491,-0.409343 -0.53125,-0.25 -0.333333,0 -0.666667,0 -1,0 z m 2.40625,0 c 0.07708,0.358329 -0.448006,0.114494 -0.3125,0.53125 -0.02919,0.297969 -0.05547,0.532722 -0.0625,0.8125 0.21926,0.131295 0.449864,-0.02037 0.375,-0.3125 0.07552,-0.203983 -0.100071,-0.701443 0.25,-0.65625 0.322917,0 0.645833,0 0.96875,0 -2.41e-4,0.348238 -0.06284,0.647672 -0.0625,0.96875 0.250853,0.147101 0.431275,-0.05169 0.387511,-0.343805 0.0033,-0.269313 0.09469,-0.531978 0.01874,-0.749945 -0.347672,0.08726 -0.105124,-0.41571 -0.53125,-0.25 -0.34375,0 -0.6875,0 -1.03125,0 z m 3.0625,0 c -0.151503,0.27927 0.0462,0.47655 0.376294,0.375 0.291235,0 0.582471,0 0.873706,0 -0.06208,0.323878 -0.03783,0.577839 -0.09375,0.90625 -0.417137,0.02036 -0.917249,-0.04225 -1.28125,0.03125 -0.02855,0.299861 -0.405,0.18215 -0.3125,0.5625 0.06402,0.245241 -0.157772,0.640333 0,0.78125 0.310508,-0.03967 0.086,0.455664 0.53125,0.28125 0.332578,-0.02159 0.750092,0.04176 1.03125,-0.03125 0.183653,-0.410261 -0.180439,-0.358582 -0.471337,-0.34375 -0.241364,-0.03945 -0.643697,0.08206 -0.778663,-0.06379 -0.004,-0.283275 0.08858,-0.556992 0.0625,-0.842456 0.427591,-0.02033 0.936696,0.04086 1.3125,-0.03125 -0.114627,-0.395877 0.453947,-0.108553 0.28125,-0.5625 0.02134,-0.248796 0.150942,-0.659738 0,-0.8125 -0.290783,0.04303 -0.04461,-0.422385 -0.5,-0.25 -0.34375,0 -0.6875,0 -1.03125,0 z m 2.4375,0 c 0.0199,0.332692 -0.442734,0.145333 -0.34375,0.5625 0.02165,0.249357 -0.09789,0.561234 -0.03125,0.78125 0.320195,0.182211 0.38439,-0.114802 0.368772,-0.406359 0.08338,-0.226622 -0.09897,-0.681795 0.287478,-0.562391 0.3125,0 0.625,0 0.9375,0 -0.01712,0.299588 -0.06272,0.634028 -0.09375,0.96875 0.250391,0.143428 0.446293,-0.03209 0.40625,-0.28125 -0.04218,-0.263764 0.113631,-0.601525 0.03125,-0.8125 -0.347672,0.08726 -0.105124,-0.41571 -0.53125,-0.25 -0.34375,0 -0.6875,0 -1.03125,0 z m 2.40625,0 c 0.09446,0.355739 -0.406852,0.115706 -0.3125,0.471337 -0.03632,0.246068 -0.0596,0.582738 -0.09375,0.872413 0.250391,0.143428 0.446293,-0.03209 0.40625,-0.28125 0.06469,-0.212977 -0.10297,-0.719694 0.190087,-0.6875 0.342888,0 0.685775,0 1.028663,0 0.02625,0.326008 -0.136427,0.722877 -0.03125,1 0.356864,0.117715 0.363333,-0.202233 0.34375,-0.471337 0.004,-0.151964 0.132293,-0.558299 0,-0.653663 -0.292282,0.03187 -0.111491,-0.409343 -0.53125,-0.25 -0.333333,0 -0.666667,0 -1,0 z m -27.4375,0.25 c -0.06769,0.304435 -0.07241,0.715112 -0.125,1.09375 0.221971,0.126192 0.490891,7.93e-4 0.40625,-0.3125 -0.05688,-0.244034 0.159539,-0.641285 0,-0.78125 -0.09375,0 -0.1875,0 -0.28125,0 z m 8,0 c -0.08865,0.237981 -0.06607,0.550155 -0.09375,0.8125 -0.200109,0.31356 0.219517,0.416841 0.34375,0.25 -0.02967,-0.347934 0.138607,-0.76305 0.03125,-1.0625 -0.09375,0 -0.1875,0 -0.28125,0 z m 7.96875,0 c -0.06769,0.304435 -0.07241,0.715112 -0.125,1.09375 0.221971,0.126192 0.490891,7.93e-4 0.40625,-0.3125 -0.05688,-0.244034 0.159539,-0.641285 0,-0.78125 -0.09375,0 -0.1875,0 -0.28125,0 z m -14.75,0.125 c 0.385417,0 0.770833,0 1.15625,0 -0.0015,0.321896 -0.05333,0.617317 -0.0625,0.90625 -0.395833,0 -0.791667,0 -1.1875,0 0.06513,-0.320533 0.03394,-0.581243 0.09375,-0.90625 z m 10.375,0 c 0.395833,0 0.791667,0 1.1875,0 -0.0224,0.281377 -0.04597,0.592151 -0.09375,0.90625 -0.385417,0 -0.770833,0 -1.15625,0 -0.01632,-0.305789 0.08971,-0.599326 0.0625,-0.90625 z m -11.71875,1.15625 c -0.06354,0.257969 -0.04469,0.673994 -0.09375,0.938794 -0.100436,0.291067 0.467664,0.261293 0.375,-0.03254 0.01318,-0.289814 0.08068,-0.667289 0.03125,-0.90625 -0.104167,0 -0.208333,0 -0.3125,0 z m 8,0 c -0.06089,0.304218 -0.09355,0.710928 -0.09375,1.09375 0.21926,0.131295 0.449864,-0.02037 0.375,-0.3125 -0.0076,-0.225326 0.09544,-0.545401 0.03125,-0.75 -0.01516,-0.07517 -0.237812,-0.01085 -0.3125,-0.03125 z m 7.96875,0 c -0.06354,0.257969 -0.04469,0.673994 -0.09375,0.938794 -0.100436,0.291067 0.467664,0.261293 0.375,-0.03254 0.01318,-0.289814 0.08068,-0.667289 0.03125,-0.90625 -0.104167,0 -0.208333,0 -0.3125,0 z m 0.875,0 c -0.06354,0.257969 -0.04469,0.673994 -0.09375,0.938794 -0.01362,0.281517 0.327689,0.148628 0.25,0.467456 0.448513,-0.02024 0.977708,0.04021 1.375,-0.03125 -0.114627,-0.395877 0.453947,-0.108553 0.28125,-0.5625 0.02134,-0.248796 0.150942,-0.659738 0,-0.8125 -0.400105,-0.126632 -0.290916,0.336455 -0.34375,0.59375 0.02475,0.306861 -0.03779,0.526438 -0.408837,0.4375 -0.229447,-0.06485 -0.803711,0.139533 -0.778969,-0.123778 0.01428,-0.27767 0.07701,-0.650172 0.03156,-0.876222 -0.02879,-0.07721 -0.224913,-0.0097 -0.3125,-0.03125 z m 2.4375,0 c -0.08865,0.237981 -0.06607,0.550155 -0.09375,0.8125 -0.219764,0.430032 0.340751,0.178962 0.21875,0.5625 0.385836,0.0725 0.90678,0.0099 1.34375,0.03125 -0.08601,-0.367265 0.412467,-0.150033 0.3125,-0.53125 0.0048,-0.281195 0.134134,-0.642955 0.0625,-0.875 -0.395651,-0.124386 -0.354093,0.188436 -0.375,0.438794 -0.04664,0.220551 0.0684,0.690562 -0.28125,0.592456 -0.3125,0 -0.625,0 -0.9375,0 -0.02009,-0.352018 0.110901,-0.720983 0.03125,-1 -0.02058,-0.07497 -0.200806,-0.01247 -0.28125,-0.03125 z m 5.46875,0 c -0.03976,0.308692 -0.102666,0.733548 -0.09375,1.09375 0.365523,-0.08667 0.06284,0.402344 0.440087,0.3125 0.373359,-0.02161 0.831764,0.04182 1.153663,-0.03125 -0.06493,-0.379039 0.43182,-0.133162 0.3125,-0.5625 0.04121,-0.287856 0.05523,-0.503371 0.0625,-0.78125 -0.288128,-0.15238 -0.459855,0.04785 -0.387511,0.375055 -0.109567,0.220161 0.103108,0.720825 -0.268739,0.624945 -0.322917,0 -0.645833,0 -0.96875,0 0.01789,-0.308493 0.06591,-0.654666 0.09375,-1 -0.06737,-0.0578 -0.226813,-0.02235 -0.34375,-0.03125 z m 2.40625,0 c -0.06354,0.257969 -0.04469,0.673994 -0.09375,0.938794 -0.01362,0.281517 0.327689,0.148628 0.25,0.467456 0.448513,-0.02024 0.977708,0.04021 1.375,-0.03125 -0.114627,-0.395877 0.453947,-0.108553 0.28125,-0.5625 0.02134,-0.248796 0.150942,-0.659738 0,-0.8125 -0.400105,-0.126632 -0.290916,0.336455 -0.34375,0.59375 0.02475,0.306861 -0.03779,0.526438 -0.408837,0.4375 -0.229447,-0.06485 -0.803711,0.139533 -0.778969,-0.123778 0.01428,-0.27767 0.07701,-0.650172 0.03156,-0.876222 -0.02879,-0.07721 -0.224913,-0.0097 -0.3125,-0.03125 z m -17.96875,0.125 c 0.395833,0 0.791667,0 1.1875,0 0.01629,0.305759 -0.08968,0.599412 -0.0625,0.90625 -0.395833,0 -0.791667,0 -1.1875,0 0.01166,-0.282786 0.07295,-0.585249 0.0625,-0.90625 z m 2.4375,0 c 0.385417,0 0.770833,0 1.15625,0 0.01629,0.305759 -0.08968,0.599412 -0.0625,0.90625 -0.395833,0 -0.791667,0 -1.1875,0 0.02368,-0.282918 0.04326,-0.58892 0.09375,-0.90625 z m -6.09375,1.0625 c -0.153119,0.204443 0.05936,0.486018 0.28125,0.3125 0.162099,-0.273044 0.03353,-0.3644 -0.28125,-0.3125 z m 7.96875,0 c -0.153119,0.204443 0.05936,0.486018 0.28125,0.3125 0.162099,-0.273044 0.03353,-0.3644 -0.28125,-0.3125 z m 8,0 c -0.153119,0.204443 0.05936,0.486018 0.28125,0.3125 0.112268,-0.242123 0.01785,-0.37398 -0.28125,-0.3125 z" />
    </g>
    <g
       id="g6120">
      <path
         d="m 38.512066,27.246492 a 1.1364216,1.0732871 0 1 1 -2.272843,0 1.1364216,1.0732871 0 1 1 2.272843,0 z"
         transform="matrix(0.8799551,0,0,0.9317171,4.1111084,1.6139764)"
         id="path3293"
         style="fill:#d4ff2a;fill-opacity:1;fill-rule:nonzero;stroke:none"
         inkscape:connector-curvature="0" />
      <path
         d="m 38.512066,27.246492 a 1.1364216,1.0732871 0 1 1 -2.272843,0 1.1364216,1.0732871 0 1 1 2.272843,0 z"
         transform="matrix(0.8799551,0,0,0.9317171,8.111108,1.6139764)"
         id="path3295"
         style="fill:#ffa000;fill-opacity:1;fill-rule:nonzero;stroke:none"
         inkscape:connector-curvature="0" />
      <path
         d="m 38.512066,27.246492 a 1.1364216,1.0732871 0 1 1 -2.272843,0 1.1364216,1.0732871 0 1 1 2.272843,0 z"
         transform="matrix(0.8799551,0,0,0.9317171,12.111108,1.6139764)"
         id="path3297"
         style="fill:#d4ff2a;fill-opacity:1;fill-rule:nonzero;stroke:none"
         inkscape:connector-curvature="0" />
      <path
         d="m 38.512066,27.246492 a 1.1364216,1.0732871 0 1 1 -2.272843,0 1.1364216,1.0732871 0 1 1 2.272843,0 z"
         transform="matrix(0.8799551,0,0,0.9317171,16.111108,1.6139764)"
         id="path3299"
         style="fill:#ff4d2a;fill-opacity:1;fill-rule:nonzero;stroke:none"
         inkscape:connector-curvature="0" />
    </g>
    <g
       id="g3255">
      <rect
         width="18"
         height="1"
         x="30"
         y="31.999998"
         id="rect3325"
         style="fill:#000000;fill-opacity:1;fill-rule:nonzero;stroke:none" />
      <rect
         width="17"
         height="49"
         x="30.5"
         y="34.5"
         id="rect3191"
         style="fill:none;stroke:#000000;stroke-width:0.99999988;stroke-linecap:square;stroke-linejoin:miter;stroke-miterlimit:4;stroke-opacity:1;stroke-dasharray:none;stroke-dashoffset:0" />
      <path
         d="m 31,73 0,8 0,2 2,0 12,0 1.09375,0 0.90625,0 0,-10 -2,0 0,8 -12,0 0,-8 -2,0 z"
         inkscape:connector-curvature="0"
         id="rect5834"
         style="fill:#4d4d4d;fill-opacity:1;fill-rule:nonzero;stroke:none" />
      <rect
         width="2"
         height="1"
         x="31"
         y="72"
         id="rect5841"
         style="fill:#000000;fill-opacity:1;fill-rule:nonzero;stroke:none" />
      <rect
         width="15.220339"
         height="1"
         x="31.779661"
         y="72"
         id="rect5843"
         style="fill:#000000;fill-opacity:1;fill-rule:nonzero;stroke:none" />
      <rect
         width="16.875"
         height="7.1875"
         x="30.535715"
         y="34.8125"
         id="rect5900"
         style="fill:#000000;fill-opacity:1;fill-rule:nonzero;stroke:none" />
      <path
         d="m 31,36 0,35.79661 16,0 L 47,36 31,36 z m 3,11.335593 c 0.518369,0.880792 1.212562,1.591475 2,2.125425 l 0,16.369491 c 0,0.661044 -0.446,1.19322 -1,1.19322 -0.554,0 -1,-0.532176 -1,-1.19322 l 0,-18.494916 z m 10,0 0,18.494916 c 0,0.661044 -0.446,1.19322 -1,1.19322 -0.554,0 -1,-0.532176 -1,-1.19322 l 0,-16.369491 c 0.787438,-0.53395 1.481631,-1.244633 2,-2.125425 z m -6,2.983051 c 0.327492,0.0651 0.657101,0.111867 1,0.111867 0.342899,0 0.672509,-0.04676 1,-0.111867 l 0,15.511865 c 0,0.661044 -0.446,1.19322 -1,1.19322 -0.554,0 -1,-0.532176 -1,-1.19322 l 0,-15.511865 z"
         inkscape:connector-curvature="0"
         id="rect5922"
         style="fill:#4d4d4d;fill-opacity:1;fill-rule:nonzero;stroke:none" />
      <path
         d="m 39,47.888961 a 4.8889603,4.8889603 0 1 1 0,-9.77792 4.8889603,4.8889603 0 1 1 0,9.77792 z"
         id="path6049"
         style="fill:#333333;fill-opacity:1;fill-rule:nonzero;stroke:none"
         inkscape:connector-curvature="0" />
      <path
         d="m 42.499999,43 a 3.5000003,3.5000003 0 1 1 -7,0 3.5000003,3.5000003 0 1 1 7,0 z"
         id="path5936"
         style="fill:#c6c6c6;fill-opacity:1;fill-rule:nonzero;stroke:#000000;stroke-width:1;stroke-linecap:square;stroke-linejoin:miter;stroke-miterlimit:4;stroke-opacity:1;stroke-dasharray:none;stroke-dashoffset:0"
         inkscape:connector-curvature="0" />
      <path
         d="m 39,41.5 c -0.832271,0 -1.531249,0.698979 -1.53125,1.53125 0,0.69356 0.512811,1.263667 1.15625,1.4375 l 0,0.5 0.6875,0 0,-0.46875 C 39.997864,44.360814 40.499999,43.759487 40.5,43.03125 40.5,42.198979 39.832271,41.500001 39,41.5 z m 0,0.5 c 0.56174,10e-7 1,0.46951 1,1.03125 -10e-7,0.56174 -0.43826,1 -1,1 -0.56174,-10e-7 -1.03125,-0.43826 -1.03125,-1 C 37.968751,42.46951 38.43826,42 39,42 z"
         inkscape:connector-curvature="0"
         id="path6077"
         style="opacity:1;fill:#000000;fill-opacity:1;fill-rule:nonzero;stroke:none" />
    </g>
    <use
       height="96"
       width="96"
       transform="translate(18,0)"
       id="use3268"
       xlink:href="#g3255"
       y="0"
       x="0" />
    <use
       height="96"
       width="96"
       transform="translate(36,0)"
       id="use3270"
       xlink:href="#g3255"
       y="0"
       x="0" />
  </g>
</svg>
