<?xml version="1.0" encoding="UTF-8" standalone="no"?>
<!-- Created with Inkscape (http://www.inkscape.org/) -->

<svg
   xmlns:dc="http://purl.org/dc/elements/1.1/"
   xmlns:cc="http://creativecommons.org/ns#"
   xmlns:rdf="http://www.w3.org/1999/02/22-rdf-syntax-ns#"
   xmlns:svg="http://www.w3.org/2000/svg"
   xmlns="http://www.w3.org/2000/svg"
   xmlns:xlink="http://www.w3.org/1999/xlink"
   xmlns:sodipodi="http://sodipodi.sourceforge.net/DTD/sodipodi-0.dtd"
   xmlns:inkscape="http://www.inkscape.org/namespaces/inkscape"
   version="1.0"
   width="96"
   height="96"
   id="svg2408"
   inkscape:version="0.48.4 r9939"
   sodipodi:docname="distributor-logo-fedora.svg">
  <sodipodi:namedview
     pagecolor="#ffffff"
     bordercolor="#666666"
     borderopacity="1"
     objecttolerance="10"
     gridtolerance="10"
     guidetolerance="10"
     inkscape:pageopacity="0"
     inkscape:pageshadow="2"
     inkscape:window-width="958"
     inkscape:window-height="1004"
     id="namedview62"
     showgrid="false"
     inkscape:zoom="3.4766083"
     inkscape:cx="32.977791"
     inkscape:cy="24.678788"
     inkscape:window-x="960"
     inkscape:window-y="25"
     inkscape:window-maximized="0"
     inkscape:current-layer="svg2408" />
  <defs
     id="defs2410">
    <linearGradient
       id="linearGradient3925">
      <stop
         id="stop3927"
         style="stop-color:#3c6eb4;stop-opacity:1"
         offset="0" />
      <stop
         id="stop3929"
         style="stop-color:#81a4d5;stop-opacity:1"
         offset="1" />
    </linearGradient>
    <radialGradient
       cx="115.8989"
       cy="133.10451"
       r="154.62019"
       fx="115.8989"
       fy="133.10451"
       id="radialGradient3897"
       gradientUnits="userSpaceOnUse">
      <stop
         id="stop3899"
         style="stop-color:#294172;stop-opacity:0.37404579"
         offset="0" />
      <stop
         id="stop3901"
         style="stop-color:#294172;stop-opacity:1"
         offset="1" />
    </radialGradient>
    <linearGradient
       x1="45.447727"
       y1="92.539597"
       x2="45.447727"
       y2="7.0165396"
       id="ButtonShadow"
       gradientUnits="userSpaceOnUse"
       gradientTransform="scale(1.0058652,0.994169)">
      <stop
         id="stop3750"
         style="stop-color:#000000;stop-opacity:1"
         offset="0" />
      <stop
         id="stop3752"
         style="stop-color:#000000;stop-opacity:0.58823532"
         offset="1" />
    </linearGradient>
    <linearGradient
       id="linearGradient3737">
      <stop
         id="stop3739"
         style="stop-color:#ffffff;stop-opacity:1"
         offset="0" />
      <stop
         id="stop3741"
         style="stop-color:#ffffff;stop-opacity:0"
         offset="1" />
    </linearGradient>
    <filter
       color-interpolation-filters="sRGB"
       id="filter3174">
      <feGaussianBlur
         id="feGaussianBlur3176"
         stdDeviation="1.71" />
    </filter>
    <linearGradient
       x1="36.357143"
       y1="6"
       x2="36.357143"
       y2="63.893143"
       id="linearGradient3188"
       xlink:href="#linearGradient3737"
       gradientUnits="userSpaceOnUse" />
    <radialGradient
       cx="48"
       cy="90.171875"
       r="42"
       fx="48"
       fy="90.171875"
       id="radialGradient3619"
       xlink:href="#linearGradient3737"
       gradientUnits="userSpaceOnUse"
       gradientTransform="matrix(1.1573129,0,0,0.99590774,-7.5510206,0.19713193)" />
    <linearGradient
       x1="45.447727"
       y1="92.539597"
       x2="45.447727"
       y2="7.0165396"
       id="ButtonShadow-0"
       gradientUnits="userSpaceOnUse"
       gradientTransform="matrix(1.0058652,0,0,0.994169,100,0)">
      <stop
         id="stop3750-8"
         style="stop-color:#000000;stop-opacity:1"
         offset="0" />
      <stop
         id="stop3752-5"
         style="stop-color:#000000;stop-opacity:0.58823532"
         offset="1" />
    </linearGradient>
    <linearGradient
       x1="32.251034"
       y1="6.1317081"
       x2="32.251034"
       y2="90.238609"
       id="linearGradient3780"
       xlink:href="#ButtonShadow-0"
       gradientUnits="userSpaceOnUse"
       gradientTransform="matrix(1.0238095,0,0,1.0119048,-1.1428571,-98.071429)" />
    <linearGradient
       x1="32.251034"
       y1="6.1317081"
       x2="32.251034"
       y2="90.238609"
       id="linearGradient3772"
       xlink:href="#ButtonShadow-0"
       gradientUnits="userSpaceOnUse"
       gradientTransform="matrix(1.0238095,0,0,1.0119048,-1.1428571,-98.071429)" />
    <linearGradient
       x1="32.251034"
       y1="6.1317081"
       x2="32.251034"
       y2="90.238609"
       id="linearGradient3725"
       xlink:href="#ButtonShadow-0"
       gradientUnits="userSpaceOnUse"
       gradientTransform="matrix(1.0238095,0,0,1.0119048,-1.1428571,-98.071429)" />
    <linearGradient
       x1="32.251034"
       y1="6.1317081"
       x2="32.251034"
       y2="90.238609"
       id="linearGradient3721"
       xlink:href="#ButtonShadow-0"
       gradientUnits="userSpaceOnUse"
       gradientTransform="translate(0,-97)" />
    <linearGradient
       x1="32.251034"
       y1="6.1317081"
       x2="32.251034"
       y2="90.238609"
       id="linearGradient3026"
       xlink:href="#ButtonShadow-0"
       gradientUnits="userSpaceOnUse"
       gradientTransform="matrix(1.0238095,0,0,1.0119048,-1.1428571,-98.071429)" />
    <radialGradient
       cx="115.8989"
       cy="133.10451"
       r="154.62019"
       fx="115.8989"
       fy="133.10451"
       id="radialGradient2877"
       xlink:href="#radialGradient3897"
       gradientUnits="userSpaceOnUse"
       gradientTransform="matrix(0.25364919,0,0,0.25365619,16,16.000007)" />
    <linearGradient
       x1="64"
       y1="88"
       x2="64"
       y2="8"
       id="linearGradient3931"
       xlink:href="#linearGradient3925"
       gradientUnits="userSpaceOnUse" />
    <radialGradient
       cx="115.8989"
       cy="133.10451"
       r="154.62019"
       fx="115.8989"
       fy="133.10451"
       id="radialGradient2877-6"
       xlink:href="#radialGradient3897-3"
       gradientUnits="userSpaceOnUse"
       gradientTransform="matrix(0.25364919,0,0,0.25365619,16,16.000007)" />
    <radialGradient
       cx="115.8989"
       cy="133.10451"
       r="154.62019"
       fx="115.8989"
       fy="133.10451"
       id="radialGradient3897-3"
       gradientUnits="userSpaceOnUse">
      <stop
         id="stop3899-4"
         style="stop-color:#294172;stop-opacity:0.37404579"
         offset="0" />
      <stop
         id="stop3901-7"
         style="stop-color:#294172;stop-opacity:1"
         offset="1" />
    </radialGradient>
    <linearGradient
       id="linearGradient3925-3">
      <stop
         id="stop3927-9"
         style="stop-color:#3c6eb4;stop-opacity:1"
         offset="0" />
      <stop
         id="stop3929-8"
         style="stop-color:#81a4d5;stop-opacity:1"
         offset="1" />
    </linearGradient>
    <linearGradient
       x1="64"
       y1="88"
       x2="64"
       y2="8"
       id="linearGradient3983"
       xlink:href="#linearGradient3925-3"
       gradientUnits="userSpaceOnUse" />
    <radialGradient
       inkscape:collect="always"
       xlink:href="#linearGradient3737"
       id="radialGradient3040"
       gradientUnits="userSpaceOnUse"
       gradientTransform="matrix(1.1573129,0,0,0.99590774,-7.5510206,0.19713193)"
       cx="48"
       cy="90.171875"
       fx="48"
       fy="90.171875"
       r="42" />
    <linearGradient
       inkscape:collect="always"
       xlink:href="#linearGradient3737"
       id="linearGradient3043"
       gradientUnits="userSpaceOnUse"
       x1="36.357143"
       y1="6"
       x2="36.357143"
       y2="63.893143" />
    <linearGradient
       inkscape:collect="always"
       xlink:href="#linearGradient3925"
       id="linearGradient3045"
       gradientUnits="userSpaceOnUse"
       x1="64"
       y1="88"
       x2="64"
       y2="8" />
    <linearGradient
       inkscape:collect="always"
       xlink:href="#linearGradient3925-3"
       id="linearGradient3047"
       gradientUnits="userSpaceOnUse"
       x1="64"
       y1="88"
       x2="64"
       y2="8" />
    <radialGradient
       inkscape:collect="always"
       xlink:href="#radialGradient3897-3"
       id="radialGradient3049"
       gradientUnits="userSpaceOnUse"
       gradientTransform="matrix(0.25364919,0,0,0.25365619,16,16.000007)"
       cx="115.8989"
       cy="133.10451"
       fx="115.8989"
       fy="133.10451"
       r="154.62019" />
    <radialGradient
       inkscape:collect="always"
       xlink:href="#radialGradient3897-3"
       id="radialGradient3052"
       gradientUnits="userSpaceOnUse"
       gradientTransform="matrix(0.25364919,0,0,0.25365619,16,16.000007)"
       cx="115.8989"
       cy="133.10451"
       fx="115.8989"
       fy="133.10451"
       r="154.62019" />
    <linearGradient
       inkscape:collect="always"
       xlink:href="#linearGradient3925"
       id="linearGradient3058"
       gradientUnits="userSpaceOnUse"
       x1="64"
       y1="88"
       x2="64"
       y2="8" />
    <radialGradient
       inkscape:collect="always"
       xlink:href="#radialGradient3897"
       id="radialGradient3065"
       gradientUnits="userSpaceOnUse"
       gradientTransform="matrix(0.25364919,0,0,0.25365619,16,16.000007)"
       cx="115.8989"
       cy="133.10451"
       fx="115.8989"
       fy="133.10451"
       r="154.62019" />
  </defs>
  <metadata
     id="metadata2413">
    <rdf:RDF>
      <cc:Work
         rdf:about="">
        <dc:format>image/svg+xml</dc:format>
        <dc:type
           rdf:resource="http://purl.org/dc/dcmitype/StillImage" />
        <dc:title />
      </cc:Work>
    </rdf:RDF>
  </metadata>
  <g
     id="layer2"
     style="display:none">
    <rect
       width="86"
       height="85"
       rx="6"
       ry="6"
       x="5"
       y="7"
       id="rect3745"
       style="opacity:0.9;fill:url(#ButtonShadow);fill-opacity:1;fill-rule:nonzero;stroke:none;filter:url(#filter3174)" />
  </g>
  <g
     id="g3067">
    <rect
       width="84"
       height="84"
       rx="6"
       ry="6"
       x="6"
       y="6"
       id="rect2419-5"
       style="fill:url(#linearGradient3058);fill-opacity:1;fill-rule:nonzero;stroke:none;display:inline" />
    <rect
       width="84"
       height="84"
       rx="6"
       ry="6"
       x="6"
       y="6"
       id="rect2419-5-1"
       style="fill:#5481bf;fill-opacity:1;fill-rule:nonzero;stroke:none;display:inline" />
    <path
       d="M 48,16 C 30.335111,16 16.012175,30.319702 16,47.983051 l 0,20.355932 0,4.40678 0,2.288135 C 16,77.784792 18.215207,80 20.966102,80 l 2.305084,0 16.033898,0 8.711865,0 C 65.683614,79.9926 80,65.668929 80,48 80,30.325744 65.673007,16 48,16 z"
       inkscape:connector-curvature="0"
       id="speech-bubble-7"
       style="fill:url(#radialGradient3052);fill-opacity:1;display:inline" />
    <path
       d="M 48,16 C 30.335111,16 16.012175,30.319702 16,47.983051 l 0,20.355932 0,4.40678 0,2.288135 C 16,77.784792 18.215207,80 20.966102,80 l 2.305084,0 16.033898,0 8.711865,0 C 65.683614,79.9926 80,65.668929 80,48 80,30.325744 65.673007,16 48,16 z"
       inkscape:connector-curvature="0"
       id="speech-bubble"
       style="fill:url(#radialGradient3065);fill-opacity:1;display:inline" />
    <path
       d="m 57.644224,23.01231 c -8.474771,0 -15.344197,6.869874 -15.344197,15.34436 0,0.0029 0,0.0067 0,0.01062 l 0,8.121275 -8.096172,0 c -0.0012,0 -0.0012,0 -0.002,0 -8.474511,0 -15.343932,6.836444 -15.343932,15.310411 0,8.475266 6.869681,15.344878 15.343932,15.344878 8.473474,0 15.343158,-6.869612 15.343158,-15.344878 0,-0.0032 0,-0.0059 0,-0.01062 l 0,-8.154962 8.095914,0 c 0.0018,0 0.0026,0 0.0034,0 8.473474,0 15.343159,-6.802757 15.343159,-15.276723 0,-8.474486 -6.869685,-15.344361 -15.343159,-15.344361 z M 42.300027,61.813493 c -0.0064,4.465288 -3.630489,8.085251 -8.098244,8.085251 -4.472422,0 -8.131676,-3.625923 -8.131676,-8.098467 0,-4.4741 3.659254,-8.167142 8.131676,-8.167142 0.0036,0 0.0073,0 0.01063,0 l 6.939393,0 c 0.0023,0 0.0036,0 0.0052,0 0.631773,0 1.144085,0.511288 1.144085,1.142041 0,0.0012 -7.78e-4,0.0012 -7.78e-4,0.0029 l 0,7.035466 -2.58e-4,0 z M 57.643446,46.488569 c -0.0026,0 -0.0052,0 -0.0076,0 l -6.944055,0 c -0.0015,0 -0.0034,0 -0.0041,0 -0.631773,0 -1.142789,-0.51103 -1.142789,-1.143338 l 0,-2.59e-4 0,-7.001518 c 0.0076,-4.46788 3.63049,-8.086549 8.098507,-8.086549 4.47242,0 8.13245,3.626184 8.13245,8.099506 0,4.472803 -3.66003,8.132158 -8.13245,8.132158 z"
       inkscape:connector-curvature="0"
       id="f-script-path"
       style="fill:#5484c6;fill-opacity:1;display:inline" />
    <path
       d="m 42.300027,46.488569 0,-8.121532 c 0,-0.0036 0,-0.0076 0,-0.01063 0,-8.474485 6.869426,-15.344359 15.344197,-15.344359 1.285571,0 2.199023,0.144861 3.388975,0.456349 1.735431,0.455056 3.152643,1.876713 3.153421,3.531598 7.74e-4,2.000581 -1.451418,3.454892 -3.621679,3.454892 -1.033951,0 -1.407625,-0.197986 -2.921495,-0.197986 -4.468015,0 -8.090991,3.61867 -8.098505,8.086549 l 0,7.001259 0,2.6e-4 c 0,0.632308 0.511015,1.143336 1.142789,1.143336 7.74e-4,0 0.0026,0 0.0041,0 l 5.31798,0 c 1.98187,0 3.582291,1.586732 3.583846,3.573838 0,1.987885 -1.602754,3.570988 -3.583846,3.570988 l -6.464914,0 0,8.154963 c 0,0.0046 0,0.0076 0,0.01218 0,8.473703 -6.869685,15.343321 -15.343158,15.343321 -1.285832,0 -2.199284,-0.144864 -3.389235,-0.456609 -1.735431,-0.454797 -3.153161,-1.877233 -3.15394,-3.531601 0,-2.000061 1.45116,-3.454889 3.622458,-3.454889 1.032913,0 1.407624,0.198242 2.920717,0.198242 4.468015,0 8.092026,-3.618925 8.099023,-8.08525 0,0 0,-7.036761 0,-7.038056 0,-0.631013 -0.512311,-1.142042 -1.144084,-1.142042 -7.75e-4,0 -0.0015,0 -0.0029,0 l -5.317722,0 c -1.982388,0 -3.584104,-1.581548 -3.584104,-3.569951 -5.19e-4,-1.999545 1.618301,-3.574615 3.621679,-3.574615 l 6.426303,0 0,-2.59e-4 z"
       inkscape:connector-curvature="0"
       id="blue-inifity-connectors"
       style="fill:#ffffff;display:inline" />
  </g>
</svg>
