<?xml version="1.0" encoding="UTF-8" standalone="no"?>
<!-- Created with Inkscape (http://www.inkscape.org/) -->

<svg
   xmlns:dc="http://purl.org/dc/elements/1.1/"
   xmlns:cc="http://creativecommons.org/ns#"
   xmlns:rdf="http://www.w3.org/1999/02/22-rdf-syntax-ns#"
   xmlns:svg="http://www.w3.org/2000/svg"
   xmlns="http://www.w3.org/2000/svg"
   xmlns:xlink="http://www.w3.org/1999/xlink"
   xmlns:sodipodi="http://sodipodi.sourceforge.net/DTD/sodipodi-0.dtd"
   xmlns:inkscape="http://www.inkscape.org/namespaces/inkscape"
   version="1.0"
   width="96"
   height="96"
   id="svg2408"
   inkscape:version="0.48.4 r9939"
   sodipodi:docname="distributor-logo-lacios.svg">
  <sodipodi:namedview
     pagecolor="#ffffff"
     bordercolor="#666666"
     borderopacity="1"
     objecttolerance="10"
     gridtolerance="10"
     guidetolerance="10"
     inkscape:pageopacity="0"
     inkscape:pageshadow="2"
     inkscape:window-width="1920"
     inkscape:window-height="1005"
     id="namedview62"
     showgrid="false"
     inkscape:zoom="4.9166667"
     inkscape:cx="97.280065"
     inkscape:cy="42.20728"
     inkscape:window-x="0"
     inkscape:window-y="25"
     inkscape:window-maximized="1"
     inkscape:current-layer="svg2408" />
  <defs
     id="defs2410">
    <linearGradient
       id="linearGradient3925">
      <stop
         id="stop3927"
         style="stop-color:#3c6eb4;stop-opacity:1"
         offset="0" />
      <stop
         id="stop3929"
         style="stop-color:#81a4d5;stop-opacity:1"
         offset="1" />
    </linearGradient>
    <radialGradient
       cx="115.8989"
       cy="133.10451"
       r="154.62019"
       fx="115.8989"
       fy="133.10451"
       id="radialGradient3897"
       gradientUnits="userSpaceOnUse">
      <stop
         id="stop3899"
         style="stop-color:#294172;stop-opacity:0.37404579"
         offset="0" />
      <stop
         id="stop3901"
         style="stop-color:#294172;stop-opacity:1"
         offset="1" />
    </radialGradient>
    <linearGradient
       x1="45.447727"
       y1="92.539597"
       x2="45.447727"
       y2="7.0165396"
       id="ButtonShadow"
       gradientUnits="userSpaceOnUse"
       gradientTransform="scale(1.0058652,0.994169)">
      <stop
         id="stop3750"
         style="stop-color:#000000;stop-opacity:1"
         offset="0" />
      <stop
         id="stop3752"
         style="stop-color:#000000;stop-opacity:0.58823532"
         offset="1" />
    </linearGradient>
    <linearGradient
       id="linearGradient3737">
      <stop
         id="stop3739"
         style="stop-color:#ffffff;stop-opacity:1"
         offset="0" />
      <stop
         id="stop3741"
         style="stop-color:#ffffff;stop-opacity:0"
         offset="1" />
    </linearGradient>
    <filter
       color-interpolation-filters="sRGB"
       id="filter3174">
      <feGaussianBlur
         id="feGaussianBlur3176"
         stdDeviation="1.71" />
    </filter>
    <linearGradient
       x1="36.357143"
       y1="6"
       x2="36.357143"
       y2="63.893143"
       id="linearGradient3188"
       xlink:href="#linearGradient3737"
       gradientUnits="userSpaceOnUse" />
    <radialGradient
       cx="48"
       cy="90.171875"
       r="42"
       fx="48"
       fy="90.171875"
       id="radialGradient3619"
       xlink:href="#linearGradient3737"
       gradientUnits="userSpaceOnUse"
       gradientTransform="matrix(1.1573129,0,0,0.99590774,-7.5510206,0.19713193)" />
    <linearGradient
       x1="45.447727"
       y1="92.539597"
       x2="45.447727"
       y2="7.0165396"
       id="ButtonShadow-0"
       gradientUnits="userSpaceOnUse"
       gradientTransform="matrix(1.0058652,0,0,0.994169,100,0)">
      <stop
         id="stop3750-8"
         style="stop-color:#000000;stop-opacity:1"
         offset="0" />
      <stop
         id="stop3752-5"
         style="stop-color:#000000;stop-opacity:0.58823532"
         offset="1" />
    </linearGradient>
    <linearGradient
       x1="32.251034"
       y1="6.1317081"
       x2="32.251034"
       y2="90.238609"
       id="linearGradient3780"
       xlink:href="#ButtonShadow-0"
       gradientUnits="userSpaceOnUse"
       gradientTransform="matrix(1.0238095,0,0,1.0119048,-1.1428571,-98.071429)" />
    <linearGradient
       x1="32.251034"
       y1="6.1317081"
       x2="32.251034"
       y2="90.238609"
       id="linearGradient3772"
       xlink:href="#ButtonShadow-0"
       gradientUnits="userSpaceOnUse"
       gradientTransform="matrix(1.0238095,0,0,1.0119048,-1.1428571,-98.071429)" />
    <linearGradient
       x1="32.251034"
       y1="6.1317081"
       x2="32.251034"
       y2="90.238609"
       id="linearGradient3725"
       xlink:href="#ButtonShadow-0"
       gradientUnits="userSpaceOnUse"
       gradientTransform="matrix(1.0238095,0,0,1.0119048,-1.1428571,-98.071429)" />
    <linearGradient
       x1="32.251034"
       y1="6.1317081"
       x2="32.251034"
       y2="90.238609"
       id="linearGradient3721"
       xlink:href="#ButtonShadow-0"
       gradientUnits="userSpaceOnUse"
       gradientTransform="translate(0,-97)" />
    <linearGradient
       x1="32.251034"
       y1="6.1317081"
       x2="32.251034"
       y2="90.238609"
       id="linearGradient3026"
       xlink:href="#ButtonShadow-0"
       gradientUnits="userSpaceOnUse"
       gradientTransform="matrix(1.0238095,0,0,1.0119048,-1.1428571,-98.071429)" />
    <radialGradient
       cx="115.8989"
       cy="133.10451"
       r="154.62019"
       fx="115.8989"
       fy="133.10451"
       id="radialGradient2877"
       xlink:href="#radialGradient3897"
       gradientUnits="userSpaceOnUse"
       gradientTransform="matrix(0.25364919,0,0,0.25365619,16,16.000007)" />
    <linearGradient
       x1="64"
       y1="88"
       x2="64"
       y2="8"
       id="linearGradient3931"
       xlink:href="#linearGradient3925"
       gradientUnits="userSpaceOnUse" />
    <radialGradient
       cx="115.8989"
       cy="133.10451"
       r="154.62019"
       fx="115.8989"
       fy="133.10451"
       id="radialGradient2877-6"
       xlink:href="#radialGradient3897-3"
       gradientUnits="userSpaceOnUse"
       gradientTransform="matrix(0.25364919,0,0,0.25365619,16,16.000007)" />
    <radialGradient
       cx="115.8989"
       cy="133.10451"
       r="154.62019"
       fx="115.8989"
       fy="133.10451"
       id="radialGradient3897-3"
       gradientUnits="userSpaceOnUse">
      <stop
         id="stop3899-4"
         style="stop-color:#294172;stop-opacity:0.37404579"
         offset="0" />
      <stop
         id="stop3901-7"
         style="stop-color:#294172;stop-opacity:1"
         offset="1" />
    </radialGradient>
    <linearGradient
       id="linearGradient3925-3">
      <stop
         id="stop3927-9"
         style="stop-color:#4382e0;stop-opacity:1"
         offset="0" />
      <stop
         id="stop3929-8"
         style="stop-color:#80b3ff;stop-opacity:1"
         offset="1" />
    </linearGradient>
    <linearGradient
       x1="64"
       y1="74.071381"
       x2="64"
       y2="0.71849656"
       id="linearGradient3983"
       xlink:href="#linearGradient3925-3"
       gradientUnits="userSpaceOnUse" />
    <linearGradient
       gradientUnits="userSpaceOnUse"
       y2="569.64459"
       x2="411.37518"
       y1="418.03671"
       x1="370.75195"
       id="linearGradient3066"
       xlink:href="#linearGradient3060"
       inkscape:collect="always" />
    <linearGradient
       gradientTransform="translate(-5.723633e-6,-4.9267578e-6)"
       y2="552.03979"
       x2="421.33994"
       y1="393.92642"
       x1="339.99817"
       gradientUnits="userSpaceOnUse"
       id="linearGradient3039"
       xlink:href="#linearGradient3027"
       inkscape:collect="always" />
    <linearGradient
       gradientTransform="translate(337.39095,121.21831)"
       gradientUnits="userSpaceOnUse"
       y2="521.73523"
       x2="423.36023"
       y1="438.37314"
       x1="339.99817"
       id="linearGradient3033"
       xlink:href="#linearGradient3027"
       inkscape:collect="always" />
    <linearGradient
       inkscape:collect="always"
       id="linearGradient3759">
      <stop
         style="stop-color:#ffffff;stop-opacity:1"
         offset="0"
         id="stop3761" />
      <stop
         style="stop-color:#cccccc;stop-opacity:1"
         offset="1"
         id="stop3763" />
    </linearGradient>
    <linearGradient
       y2="439.61621"
       x2="312.85715"
       y1="116.81958"
       x1="312.85715"
       gradientTransform="matrix(1.5234672,0,0,1.5234672,2873.4766,121.74603)"
       gradientUnits="userSpaceOnUse"
       id="linearGradient3757"
       xlink:href="#linearGradient3759"
       inkscape:collect="always" />
    <linearGradient
       id="linearGradient3027"
       inkscape:collect="always">
      <stop
         id="stop3029"
         offset="0"
         style="stop-color:#ffffff;stop-opacity:1;" />
      <stop
         id="stop3031"
         offset="1"
         style="stop-color:#ffffff;stop-opacity:0;" />
    </linearGradient>
    <linearGradient
       id="linearGradient3060"
       inkscape:collect="always">
      <stop
         id="stop3062"
         offset="0"
         style="stop-color:#ffffff;stop-opacity:1;" />
      <stop
         id="stop3064"
         offset="1"
         style="stop-color:#ffffff;stop-opacity:0;" />
    </linearGradient>
    <linearGradient
       inkscape:collect="always"
       xlink:href="#linearGradient3027"
       id="linearGradient3456"
       gradientUnits="userSpaceOnUse"
       gradientTransform="translate(-755.37374,-778.88282)"
       x1="339.99817"
       y1="393.92642"
       x2="421.33994"
       y2="552.03979" />
    <linearGradient
       inkscape:collect="always"
       xlink:href="#linearGradient3925-3"
       id="linearGradient3050"
       gradientUnits="userSpaceOnUse"
       x1="64"
       y1="74.071381"
       x2="64"
       y2="0.71849656" />
    <linearGradient
       inkscape:collect="always"
       xlink:href="#linearGradient3925"
       id="linearGradient3053"
       gradientUnits="userSpaceOnUse"
       x1="64"
       y1="88"
       x2="64"
       y2="8" />
  </defs>
  <metadata
     id="metadata2413">
    <rdf:RDF>
      <cc:Work
         rdf:about="">
        <dc:format>image/svg+xml</dc:format>
        <dc:type
           rdf:resource="http://purl.org/dc/dcmitype/StillImage" />
        <dc:title />
      </cc:Work>
    </rdf:RDF>
  </metadata>
  <rect
     style="fill:#639bf0;fill-opacity:1;fill-rule:nonzero;stroke:none;display:inline"
     id="rect2419-5-1"
     y="6"
     x="6"
     ry="6"
     rx="6"
     height="84"
     width="84" />
  <g
     id="layer2"
     style="display:none">
    <rect
       width="86"
       height="85"
       rx="6"
       ry="6"
       x="5"
       y="7"
       id="rect3745"
       style="opacity:0.9;fill:url(#ButtonShadow);fill-opacity:1;fill-rule:nonzero;stroke:none;filter:url(#filter3174)" />
  </g>
  <g
     id="layer5"
     style="display:inline" />
  <path
     style="color:#000000;fill:#ffffff;fill-opacity:1;fill-rule:nonzero;stroke:none;stroke-width:1px;marker:none;visibility:visible;display:inline;overflow:visible;enable-background:accumulate"
     d="M 47.992601,10.329873 44.20115,20.88965 C 32.119438,22.562588 22.562617,32.1195 20.889657,44.201145 l -10.574599,3.80626 10.574599,3.79145 c 0.740665,5.325201 3.023753,10.169831 6.368448,14.055024 l -6.649843,9.537865 9.523054,-6.649847 c 3.88929,3.35423 8.734162,5.629225 14.069834,6.368451 l 3.791451,10.559781 3.80626,-10.559781 C 63.871038,73.430286 73.419123,63.872206 75.095535,51.798855 l 10.589407,-3.79145 -10.589407,-3.80626 C 74.5991,40.625454 73.41349,37.27282 71.674343,34.278212 l -5.035511,7.242261 c 0.04565,0.130852 0.09041,0.252878 0.133293,0.385068 0.0011,0.0057 0.01484,0.02395 0.01484,0.02957 0.204999,0.63283 0.377242,1.266459 0.518361,1.925343 0.0415,0.195171 0.08287,0.409953 0.118484,0.607227 0.01125,0.0615 0.01967,0.116009 0.02957,0.17773 0.03733,0.217829 0.07399,0.446274 0.103675,0.666464 0,0.0079 0,0.0057 0,0.01484 0.0011,0.0199 0.01484,0.03924 0.01484,0.05926 0.03576,0.271982 0.06421,0.539265 0.08883,0.814576 0.02193,0.245221 0.03148,0.492825 0.04442,0.74052 0.0011,0.0506 0.01484,0.09737 0.01484,0.148101 0.0079,0.124127 0,0.245502 0,0.37026 0.0011,0.176741 0.01484,0.370068 0.01484,0.547979 0,0.337898 -0.01293,0.673344 -0.02957,1.007104 l 0,0.01484 c -0.01316,0.259321 -0.02114,0.51356 -0.04442,0.770137 -0.01529,0.174751 -0.0389,0.344983 -0.05926,0.518362 -0.02249,0.197307 -0.04509,0.39692 -0.0741,0.592418 -0.0045,0.03374 -0.0079,0.05521 -0.01484,0.08883 -0.01125,0.07084 -0.03272,0.151576 -0.04442,0.222147 -0.03902,0.237664 -0.07117,0.476149 -0.118484,0.710902 -0.0011,0.01692 -0.0079,0.02775 -0.01484,0.04443 -0.0011,0.0087 0,0.0059 0,0.01481 -0.06455,0.312534 -0.143177,0.626116 -0.222158,0.933052 -0.05847,0.227093 -0.126288,0.457415 -0.192529,0.681276 -0.04216,0.142654 -0.08816,0.288244 -0.133292,0.4295 -0.0011,0.01102 0.0079,0.01862 0,0.02962 -0.07748,0.240056 -0.150565,0.489751 -0.236967,0.725706 -0.01169,0.03092 -0.03272,0.05786 -0.04442,0.08887 -1.995902,5.365352 -6.262244,9.62743 -11.626129,11.626126 -0.17574,0.06549 -0.35509,0.13189 -0.533169,0.192534 -0.120902,0.04112 -0.233459,0.07962 -0.355452,0.118483 -0.179912,0.05735 -0.365874,0.110602 -0.547979,0.162914 -0.06724,0.0193 -0.139668,0.04058 -0.207349,0.05924 -0.03081,0.0087 -0.05757,0.0065 -0.08883,0.01481 -0.167555,0.04528 -0.334278,0.0923 -0.503553,0.133293 -0.158581,0.03832 -0.32862,0.08407 -0.488742,0.118483 -0.122757,0.02651 -0.231852,0.03493 -0.355452,0.05924 -0.193068,0.03769 -0.39737,0.08649 -0.592406,0.118483 -0.07106,0.01166 -0.136002,0.01862 -0.207349,0.02962 -0.03385,0.0051 -0.0695,0.0098 -0.103675,0.01481 -0.195497,0.02889 -0.380301,0.05106 -0.577609,0.07406 -0.173603,0.02041 -0.358182,0.04323 -0.533169,0.05924 -0.256916,0.02328 -0.510446,0.04593 -0.770138,0.05924 l -0.01484,0 c -0.33376,0.01668 -0.669172,0.02962 -1.007104,0.02962 -0.337898,0 -0.688221,-0.01294 -1.021913,-0.02962 -0.260187,-0.01328 -0.512683,-0.03593 -0.770138,-0.05924 -0.184534,-0.01666 -0.36484,-0.03758 -0.547979,-0.05924 -0.177777,-0.02103 -0.356834,-0.04841 -0.533182,-0.07406 -0.140815,-0.02062 -0.289614,-0.03559 -0.429496,-0.05924 -0.185805,-0.03126 -0.364008,-0.06727 -0.547979,-0.103674 -0.05893,-0.0117 -0.118776,-0.01763 -0.177731,-0.02962 -0.3043,-0.06315 -0.60445,-0.130374 -0.90343,-0.207346 -0.213096,-0.05485 -0.426584,-0.116007 -0.636845,-0.177724 -0.166081,-0.04876 -0.324551,-0.109972 -0.488743,-0.162914 -0.244051,-0.07871 -0.500854,-0.149158 -0.740508,-0.236965 -0.02833,-0.01035 -0.04565,-0.01896 -0.0741,-0.02962 -1.587063,-0.589778 -3.079009,-1.383638 -4.443116,-2.340035 l 6.72391,-4.680071 c 1.422612,0.570087 2.979698,0.873811 4.606016,0.873811 6.834118,0 12.366671,-5.532555 12.366637,-12.366645 0,-1.625913 -0.318772,-3.183639 -0.888621,-4.606015 L 75.39169,20.608249 52.598558,36.51456 c -1.419914,-0.56805 -2.968364,-0.88862 -4.591207,-0.88862 -6.834118,0 -12.381458,5.547374 -12.381458,12.381458 0,1.62065 0.307224,3.172889 0.873812,4.591209 l -4.680072,6.70909 c -0.952624,-1.360003 -1.736446,-2.846867 -2.325221,-4.428296 -0.06544,-0.175775 -0.132123,-0.340287 -0.19254,-0.518362 -0.04126,-0.121194 -0.07995,-0.247998 -0.118483,-0.370259 -0.05724,-0.179909 -0.110534,-0.365874 -0.162911,-0.547983 -0.02834,-0.09789 -0.047,-0.197704 -0.07399,-0.296207 -0.04532,-0.167511 -0.09254,-0.334339 -0.133293,-0.503551 -0.03823,-0.158583 -0.08423,-0.313813 -0.118484,-0.473931 -0.02688,-0.122957 -0.05003,-0.246398 -0.0741,-0.37026 -0.02991,-0.15415 -0.06252,-0.318546 -0.08883,-0.473934 -0.03733,-0.218762 -0.05892,-0.430497 -0.08883,-0.651654 -0.03969,-0.292076 -0.07669,-0.5778 -0.103674,-0.873812 -0.02328,-0.256948 -0.04622,-0.525265 -0.05926,-0.784946 -0.01697,-0.33376 -0.02957,-0.669207 -0.02957,-1.007104 0,-0.337955 0.01293,-0.688188 0.02957,-1.021914 0.01304,-0.262954 0.03598,-0.524793 0.05926,-0.784947 0.01596,-0.184613 0.03722,-0.364907 0.05926,-0.547979 0.02114,-0.177821 0.04869,-0.342093 0.0741,-0.518373 0.02035,-0.140882 0.03587,-0.289579 0.05926,-0.429496 0.03126,-0.185804 0.06735,-0.364007 0.103674,-0.547979 0.01169,-0.05881 0.01732,-0.119046 0.02957,-0.177731 0.06308,-0.304266 0.130403,-0.61927 0.207349,-0.918239 0.05476,-0.213129 0.115841,-0.426584 0.17772,-0.636845 0.04869,-0.166115 0.109747,-0.324494 0.16291,-0.488743 0.0786,-0.24395 0.149204,-0.48601 0.236968,-0.725699 0.01125,-0.02868 0.01923,-0.06016 0.02957,-0.08883 1.995173,-5.373116 6.267788,-9.630901 11.640939,-11.626129 0.266348,-0.09884 0.542862,-0.193787 0.814564,-0.281394 0.164159,-0.05297 0.322662,-0.09929 0.488743,-0.148101 0.210273,-0.06174 0.42375,-0.122948 0.636845,-0.177731 0.298981,-0.07691 0.59913,-0.144223 0.90343,-0.207338 0.05869,-0.01237 0.118787,-0.03284 0.177731,-0.04442 0.183971,-0.03632 0.362175,-0.0723 0.54798,-0.103675 0.139893,-0.02361 0.288579,-0.0389 0.429506,-0.05926 0.176236,-0.02563 0.355462,-0.05308 0.533171,-0.0741 0.183139,-0.02159 0.363445,-0.04251 0.547979,-0.05926 0.256353,-0.02328 0.51112,-0.03148 0.770138,-0.04442 0.333692,-0.01664 0.684026,-0.02969 1.021913,-0.02969 0.17718,0 0.357204,-0.0045 0.533171,0 0.1236,0.0033 0.247199,0.01012 0.370259,0.01484 0.05094,0.0022 0.09715,0.01147 0.148113,0.01484 0.248009,0.01304 0.495029,0.02215 0.740509,0.04442 0.273083,0.02451 0.544864,0.05341 0.814575,0.08883 0.0226,0.0033 0.05139,0.01147 0.0741,0.01484 0.02833,0.0033 0.06049,0.01125 0.08883,0.01484 0.19507,0.02721 0.384462,0.05588 0.577597,0.08883 0.263819,0.04532 0.524872,0.09243 0.784958,0.148101 0.332894,0.07118 0.665856,0.164036 0.992284,0.251777 0.320436,0.08614 0.634034,0.164979 0.947869,0.266583 0.0057,0.0022 0.0079,0.01147 0.01484,0.01484 0.132325,0.04295 0.268947,0.08759 0.399878,0.133294 l 7.227452,-5.035524 c -2.990471,-1.734348 -6.339551,-2.939086 -9.908113,-3.435971 l -3.80626,-10.559777 z m 0.01484,31.605286 c 3.351599,0 6.057425,2.720657 6.057425,6.072246 0,3.351598 -2.705793,6.072244 -6.057425,6.072244 -3.351633,0 -6.072212,-2.720646 -6.072245,-6.072244 0,-3.351589 2.720612,-6.072246 6.072245,-6.072246 z"
     id="path3470"
     inkscape:connector-curvature="0" />
</svg>
