<?xml version="1.0" encoding="UTF-8" standalone="no"?>
<!-- Created with Inkscape (http://www.inkscape.org/) -->

<svg
   xmlns:dc="http://purl.org/dc/elements/1.1/"
   xmlns:cc="http://creativecommons.org/ns#"
   xmlns:rdf="http://www.w3.org/1999/02/22-rdf-syntax-ns#"
   xmlns:svg="http://www.w3.org/2000/svg"
   xmlns="http://www.w3.org/2000/svg"
   xmlns:xlink="http://www.w3.org/1999/xlink"
   xmlns:sodipodi="http://sodipodi.sourceforge.net/DTD/sodipodi-0.dtd"
   xmlns:inkscape="http://www.inkscape.org/namespaces/inkscape"
   width="16"
   height="16.001881"
   id="svg3782"
   version="1.1"
   inkscape:version="0.48.4 r9939"
   sodipodi:docname="start-here-lacios-symbolic.svg">
  <defs
     id="defs3784">
    <linearGradient
       inkscape:collect="always"
       id="linearGradient3060">
      <stop
         style="stop-color:#ffffff;stop-opacity:1;"
         offset="0"
         id="stop3062" />
      <stop
         style="stop-color:#ffffff;stop-opacity:0;"
         offset="1"
         id="stop3064" />
    </linearGradient>
    <linearGradient
       inkscape:collect="always"
       id="linearGradient3027">
      <stop
         style="stop-color:#ffffff;stop-opacity:1;"
         offset="0"
         id="stop3029" />
      <stop
         style="stop-color:#ffffff;stop-opacity:0;"
         offset="1"
         id="stop3031" />
    </linearGradient>
    <linearGradient
       inkscape:collect="always"
       xlink:href="#linearGradient3759"
       id="linearGradient3757"
       gradientUnits="userSpaceOnUse"
       gradientTransform="matrix(1.5234672,0,0,1.5234672,2873.4766,121.74603)"
       x1="312.85715"
       y1="116.81958"
       x2="312.85715"
       y2="439.61621" />
    <linearGradient
       id="linearGradient3759"
       inkscape:collect="always">
      <stop
         id="stop3761"
         offset="0"
         style="stop-color:#ffffff;stop-opacity:1" />
      <stop
         id="stop3763"
         offset="1"
         style="stop-color:#cccccc;stop-opacity:1" />
    </linearGradient>
    <linearGradient
       inkscape:collect="always"
       xlink:href="#linearGradient3027"
       id="linearGradient3033"
       x1="339.99817"
       y1="438.37314"
       x2="423.36023"
       y2="521.73523"
       gradientUnits="userSpaceOnUse"
       gradientTransform="translate(337.39095,121.21831)" />
    <linearGradient
       inkscape:collect="always"
       xlink:href="#linearGradient3060"
       id="linearGradient3066"
       x1="370.75195"
       y1="418.03671"
       x2="411.37518"
       y2="569.64459"
       gradientUnits="userSpaceOnUse" />
    <linearGradient
       gradientUnits="userSpaceOnUse"
       y2="18.974037"
       x2="10.710332"
       y1="1.9963325"
       x1="10.710332"
       gradientTransform="matrix(0.9984539,0,0,0.9984539,-0.0459776,0.05767558)"
       id="StandardGradient-1-32">
      <stop
         id="stop3277-4-26"
         offset="0"
         style="stop-color:#000000;stop-opacity:0.86274511;" />
      <stop
         id="stop3279-3-3"
         offset="1"
         style="stop-color:#000000;stop-opacity:0.47058824;" />
    </linearGradient>
    <linearGradient
       gradientUnits="userSpaceOnUse"
       y2="22.007736"
       x2="11.682116"
       y1="4.0050025"
       x1="11.682116"
       id="linearGradient3748"
       xlink:href="#StandardGradient-1-32"
       inkscape:collect="always" />
    <linearGradient
       id="linearGradient3228">
      <stop
         style="stop-color:#384880;stop-opacity:1;"
         offset="0"
         id="stop3230" />
      <stop
         style="stop-color:#000000;stop-opacity:1;"
         offset="1"
         id="stop3232" />
    </linearGradient>
    <linearGradient
       y2="520.1709"
       x2="365.97757"
       y1="408.39655"
       x1="365.51193"
       gradientTransform="matrix(0.08112299,0,0,0.07855526,-21.185695,-23.153302)"
       gradientUnits="userSpaceOnUse"
       id="linearGradient3189"
       xlink:href="#linearGradient3785"
       inkscape:collect="always" />
    <linearGradient
       gradientUnits="userSpaceOnUse"
       y2="18.974037"
       x2="10.710332"
       y1="1.9963325"
       x1="10.710332"
       gradientTransform="matrix(0.9984539,0,0,0.9984539,-0.0459776,0.05767558)"
       id="StandardGradient-1-62">
      <stop
         id="stop3277-4-5"
         offset="0"
         style="stop-color:#000000;stop-opacity:0.86274511;" />
      <stop
         id="stop3279-3-09"
         offset="1"
         style="stop-color:#000000;stop-opacity:0.47058824;" />
    </linearGradient>
    <linearGradient
       id="linearGradient3785">
      <stop
         style="stop-color:#384880;stop-opacity:1;"
         offset="0"
         id="stop3787" />
      <stop
         style="stop-color:#000000;stop-opacity:1;"
         offset="1"
         id="stop3789" />
    </linearGradient>
    <linearGradient
       gradientUnits="userSpaceOnUse"
       y2="18.974037"
       x2="10.710332"
       y1="1.9963325"
       x1="10.710332"
       gradientTransform="matrix(0.9984539,0,0,0.9984539,-0.0459776,0.05767558)"
       id="StandardGradient-1-30">
      <stop
         id="stop3277-4-4"
         offset="0"
         style="stop-color:#000000;stop-opacity:0.86274511;" />
      <stop
         id="stop3279-3-0"
         offset="1"
         style="stop-color:#000000;stop-opacity:0.47058824;" />
    </linearGradient>
    <linearGradient
       y2="20.064236"
       x2="12.056907"
       y1="2.1923981"
       x1="12.056907"
       gradientUnits="userSpaceOnUse"
       id="linearGradient4074"
       xlink:href="#StandardGradient-1-30"
       inkscape:collect="always" />
    <linearGradient
       gradientUnits="userSpaceOnUse"
       y2="18.974037"
       x2="10.710332"
       y1="1.9963325"
       x1="10.710332"
       gradientTransform="matrix(0.9984539,0,0,0.9984539,-0.0459776,0.05767558)"
       id="StandardGradient-1-9">
      <stop
         id="stop3277-4-8"
         offset="0"
         style="stop-color:#000000;stop-opacity:0.86274511;" />
      <stop
         id="stop3279-3-1"
         offset="1"
         style="stop-color:#000000;stop-opacity:0.47058824;" />
    </linearGradient>
    <linearGradient
       gradientUnits="userSpaceOnUse"
       y2="22.110771"
       x2="13"
       y1="4"
       x1="13"
       id="linearGradient4134"
       xlink:href="#StandardGradient-1-9"
       inkscape:collect="always" />
    <linearGradient
       gradientUnits="userSpaceOnUse"
       y2="18.974037"
       x2="10.710332"
       y1="1.9963325"
       x1="10.710332"
       gradientTransform="matrix(0.9984539,0,0,0.9984539,-0.0459776,0.05767558)"
       id="StandardGradient-1-3">
      <stop
         id="stop3277-4-0"
         offset="0"
         style="stop-color:#000000;stop-opacity:0.86274511;" />
      <stop
         id="stop3279-3-854"
         offset="1"
         style="stop-color:#000000;stop-opacity:0.47058824;" />
    </linearGradient>
    <linearGradient
       y2="190.7944"
       x2="685.67432"
       y1="1054.5618"
       x1="685.67432"
       gradientTransform="matrix(0.01681827,0,0,-0.01672714,-0.89306121,21.472134)"
       gradientUnits="userSpaceOnUse"
       id="linearGradient3870"
       xlink:href="#StandardGradient-1-3"
       inkscape:collect="always" />
    <linearGradient
       gradientUnits="userSpaceOnUse"
       y2="18.974037"
       x2="10.710332"
       y1="1.9963325"
       x1="10.710332"
       gradientTransform="matrix(0.9984539,0,0,0.9984539,-0.0459776,0.05767558)"
       id="StandardGradient-1-0">
      <stop
         id="stop3277-4-6"
         offset="0"
         style="stop-color:#000000;stop-opacity:0.86274511;" />
      <stop
         id="stop3279-3-85"
         offset="1"
         style="stop-color:#000000;stop-opacity:0.47058824;" />
    </linearGradient>
    <linearGradient
       y2="71.277855"
       x2="44.033611"
       y1="20.808817"
       x1="44.033611"
       gradientTransform="matrix(0.25834462,0,0,0.25834462,-0.3758467,-0.375846)"
       gradientUnits="userSpaceOnUse"
       id="linearGradient3000"
       xlink:href="#StandardGradient-1-0"
       inkscape:collect="always" />
    <linearGradient
       gradientUnits="userSpaceOnUse"
       y2="18.974037"
       x2="10.710332"
       y1="1.9963325"
       x1="10.710332"
       gradientTransform="matrix(0.9984539,0,0,0.9984539,-0.0459776,0.05767558)"
       id="StandardGradient-1-16">
      <stop
         id="stop3277-4-75"
         offset="0"
         style="stop-color:#000000;stop-opacity:0.86274511;" />
      <stop
         id="stop3279-3-8"
         offset="1"
         style="stop-color:#000000;stop-opacity:0.47058824;" />
    </linearGradient>
    <linearGradient
       gradientUnits="userSpaceOnUse"
       y2="18.821463"
       x2="11.81854"
       y1="2.1399267"
       x1="11.81854"
       id="linearGradient4019"
       xlink:href="#StandardGradient-1-16"
       inkscape:collect="always" />
    <linearGradient
       gradientUnits="userSpaceOnUse"
       y2="18.974037"
       x2="10.710332"
       y1="1.9963325"
       x1="10.710332"
       gradientTransform="matrix(0.9984539,0,0,0.9984539,-0.0459776,0.05767558)"
       id="StandardGradient-1-19">
      <stop
         id="stop3277-4-2"
         offset="0"
         style="stop-color:#000000;stop-opacity:0.86274511;" />
      <stop
         id="stop3279-3-66"
         offset="1"
         style="stop-color:#000000;stop-opacity:0.47058824;" />
    </linearGradient>
    <radialGradient
       cx="115.8989"
       cy="133.10451"
       r="154.62019"
       fx="115.8989"
       fy="133.10451"
       id="radial-gradient"
       gradientUnits="userSpaceOnUse">
      <stop
         style="stop-color:#003364;stop-opacity:0;"
         offset="0"
         id="translucent-stop-color" />
      <stop
         style="stop-color:#0067c8;stop-opacity:1;"
         offset="1"
         id="opaque-blue-stop-color" />
    </radialGradient>
    <radialGradient
       inkscape:collect="always"
       xlink:href="#radial-gradient"
       id="radialGradient3007"
       gradientUnits="userSpaceOnUse"
       gradientTransform="matrix(0.07134324,0,0,0.07134521,1.9994442,-28.000554)"
       cx="126.15849"
       cy="126.15498"
       fx="126.15849"
       fy="126.15498"
       r="154.62019" />
    <linearGradient
       gradientUnits="userSpaceOnUse"
       y2="18.974037"
       x2="10.710332"
       y1="1.9963325"
       x1="10.710332"
       gradientTransform="matrix(0.9984539,0,0,0.9984539,-0.0459776,0.05767558)"
       id="StandardGradient-1-13">
      <stop
         id="stop3277-4-77"
         offset="0"
         style="stop-color:#000000;stop-opacity:0.86274511;" />
      <stop
         id="stop3279-3-6"
         offset="1"
         style="stop-color:#000000;stop-opacity:0.47058824;" />
    </linearGradient>
    <linearGradient
       gradientUnits="userSpaceOnUse"
       y2="18.974037"
       x2="10.710332"
       y1="1.9963325"
       x1="10.710332"
       gradientTransform="matrix(0.9984539,0,0,0.9984539,-0.0459776,0.05767558)"
       id="StandardGradient-1-6">
      <stop
         id="stop3277-4-72"
         offset="0"
         style="stop-color:#000000;stop-opacity:0.86274511;" />
      <stop
         id="stop3279-3-7"
         offset="1"
         style="stop-color:#000000;stop-opacity:0.47058824;" />
    </linearGradient>
    <linearGradient
       y2="19.117243"
       x2="9"
       y1="2"
       x1="9"
       gradientUnits="userSpaceOnUse"
       id="linearGradient4006"
       xlink:href="#StandardGradient-1-6"
       inkscape:collect="always" />
    <linearGradient
       gradientUnits="userSpaceOnUse"
       y2="18.974037"
       x2="10.710332"
       y1="1.9963325"
       x1="10.710332"
       gradientTransform="matrix(0.9984539,0,0,0.9984539,-0.0459776,0.05767558)"
       id="StandardGradient-1-1">
      <stop
         id="stop3277-4-7"
         offset="0"
         style="stop-color:#000000;stop-opacity:0.86274511;" />
      <stop
         id="stop3279-3-5"
         offset="1"
         style="stop-color:#000000;stop-opacity:0.47058824;" />
    </linearGradient>
    <linearGradient
       gradientTransform="matrix(1.1252108,0,0,1.1249999,-2.5078172,-0.2808096)"
       gradientUnits="userSpaceOnUse"
       y2="18.031219"
       x2="13"
       y1="2"
       x1="13"
       id="linearGradient3745"
       xlink:href="#StandardGradient-1-1"
       inkscape:collect="always" />
    <linearGradient
       y2="20.041595"
       x2="12"
       y1="8"
       x1="12"
       gradientUnits="userSpaceOnUse"
       id="linearGradient6810"
       xlink:href="#StandardGradient-1"
       inkscape:collect="always" />
    <linearGradient
       y2="20.041595"
       x2="12"
       y1="8"
       x1="12"
       gradientUnits="userSpaceOnUse"
       id="linearGradient6806"
       xlink:href="#StandardGradient-1"
       inkscape:collect="always" />
    <linearGradient
       y2="20.041595"
       x2="12"
       y1="8"
       x1="12"
       gradientUnits="userSpaceOnUse"
       id="linearGradient6801"
       xlink:href="#StandardGradient-1"
       inkscape:collect="always" />
    <clipPath
       id="clipPath3758"
       clipPathUnits="userSpaceOnUse">
      <path
         inkscape:connector-curvature="0"
         id="path3760"
         d="m -30,0 0,22 22,0 0,-22 -22,0 z m 16.625,2 c 0.69219,-0.046173 1.290497,0.159052 1.53125,0.625 0.391745,0.758178 -0.134761,2.097239 -1.28125,3.3125 -1.061318,1.124979 -2.212266,1.675835 -2.84375,1.34375 C -16.307853,7.102924 -16.66202,6.531842 -16.75,6.0625 -16.920629,5.152217 -16.283895,3.517873 -15.5,2.875 -14.86022,2.350316 -14.06719,2.046173 -13.375,2 z m -5.65625,0.71875 c 0.587443,-5.29e-4 0.93136,0.387341 1.03125,1.1875 0.122053,0.977691 -0.466886,2.437543 -1.09375,2.65625 -0.378449,0.132036 -0.385988,0.145631 -0.6875,0 -0.40553,-0.195868 -0.71625,-0.99108 -0.71875,-1.875 -0.0037,-1.290792 0.505789,-1.967884 1.46875,-1.96875 z m -3.8125,1.3125 c 0.540549,-0.078161 1.052166,0.4914325 1.25,1.5625 0.129721,0.702307 0.01014,1.342367 -0.375,1.75 -0.355534,0.376298 -0.638649,0.351546 -1.03125,-0.0625 -0.524855,-0.553525 -0.71385,-0.975697 -0.71875,-1.75 -0.0042,-0.656543 3.86e-4,-0.843854 0.34375,-1.1875 0.170347,-0.170488 0.351067,-0.286447 0.53125,-0.3125 z m -2.6875,2.34375 c 0.560853,-0.091231 1.131096,0.4483425 1.34375,1.40625 0.298827,1.346081 -0.407075,2.049419 -1.28125,1.28125 -0.732419,-0.643602 -1.055096,-1.91327 -0.59375,-2.375 0.1758,-0.1759448 0.344299,-0.282089 0.53125,-0.3125 z M -17.5,8.0625 c 1.85718,0.031955 3.14852,0.7276993 3.28125,1.90625 0.128489,1.140889 -0.735884,2.17506 -3.25,3.875 -1.784687,1.20673 -2.5,1.868506 -2.5,2.3125 0,0.638209 0.793132,1.25 1.5625,1.25 0.485462,0 0.72281,-0.260882 0.9375,-1 0.284244,-0.978569 0.86548,-1.29965 2.25,-1.3125 0.969842,-0.009 1.26798,0.200172 1.3125,0.96875 0.02607,0.450123 -0.01637,0.68025 -0.28125,1.21875 -0.434197,0.882715 -1.448714,1.902761 -2.34375,2.34375 -0.610748,0.30092 -0.803284,0.34319 -1.75,0.375 -0.825837,0.02774 -1.179264,-0.0069 -1.625,-0.15625 -0.859598,-0.287937 -1.374662,-0.595047 -2.21875,-1.28125 -2.265604,-1.841822 -3.454419,-4.540537 -2.8125,-6.4375 0.265198,-0.783694 0.578111,-1.293285 1.125,-1.84375 0.94959,-0.9558013 2.43049,-1.653779 4.28125,-2.03125 0.718447,-0.146531 1.41219,-0.198152 2.03125,-0.1875 z"
         style="fill:#ff00ff;fill-opacity:1;stroke:none;display:inline" />
    </clipPath>
    <linearGradient
       y2="20.041595"
       x2="12"
       y1="8"
       x1="12"
       gradientUnits="userSpaceOnUse"
       id="linearGradient3751"
       xlink:href="#StandardGradient-1"
       inkscape:collect="always" />
    <linearGradient
       gradientTransform="translate(0,1)"
       y2="20.041595"
       x2="12"
       y1="8"
       x1="12"
       gradientUnits="userSpaceOnUse"
       id="linearGradient3747"
       xlink:href="#StandardGradient-1"
       inkscape:collect="always" />
    <linearGradient
       gradientTransform="translate(-30,0)"
       y2="20.041595"
       x2="12"
       y1="8"
       x1="12"
       gradientUnits="userSpaceOnUse"
       id="linearGradient3741"
       xlink:href="#StandardGradient-1"
       inkscape:collect="always" />
    <linearGradient
       y2="20.041595"
       x2="12"
       y1="8"
       x1="12"
       gradientUnits="userSpaceOnUse"
       id="linearGradient3738"
       xlink:href="#StandardGradient-1"
       inkscape:collect="always" />
    <linearGradient
       gradientUnits="userSpaceOnUse"
       y2="18.011395"
       x2="10.761708"
       y1="3.9999998"
       x1="10.761708"
       id="SpecificGradient-5">
      <stop
         id="stop3292-8"
         offset="0"
         style="stop-color:#a50000;stop-opacity:1;" />
      <stop
         id="stop3294-0"
         offset="1"
         style="stop-color:#e73800;stop-opacity:1;" />
    </linearGradient>
    <linearGradient
       gradientUnits="userSpaceOnUse"
       y2="18.974037"
       x2="10.710332"
       y1="1.9963325"
       x1="10.710332"
       gradientTransform="matrix(0.9984539,0,0,0.9984539,-0.0459776,0.05767558)"
       id="StandardGradient-1">
      <stop
         id="stop3277-4"
         offset="0"
         style="stop-color:#000000;stop-opacity:0.86274511;" />
      <stop
         id="stop3279-3"
         offset="1"
         style="stop-color:#000000;stop-opacity:0.47058824;" />
    </linearGradient>
    <inkscape:perspective
       sodipodi:type="inkscape:persp3d"
       inkscape:vp_x="0 : 0.5 : 1"
       inkscape:vp_y="0 : 1000 : 0"
       inkscape:vp_z="1 : 0.5 : 1"
       inkscape:persp3d-origin="0.5 : 0.33333333 : 1"
       id="perspective4374" />
    <clipPath
       id="clipPath4995"
       clipPathUnits="userSpaceOnUse">
      <path
         inkscape:connector-curvature="0"
         id="path4997"
         d="M 30,0 30,22 52,22 52,0 30,0 z M 46.625,2 C 47.31719,1.953827 47.915497,2.159052 48.15625,2.625 48.547995,3.383178 48.021489,4.722239 46.875,5.9375 45.813682,7.0624791 44.662734,7.613335 44.03125,7.28125 43.692147,7.1029241 43.337976,6.531842 43.25,6.0625 43.079371,5.1522168 43.716105,3.517873 44.5,2.875 45.13978,2.350316 45.93281,2.046173 46.625,2 z m -5.65625,0.71875 c 0.587443,-5.291e-4 0.931359,0.387341 1.03125,1.1875 0.122053,0.9776909 -0.466886,2.437543 -1.09375,2.65625 -0.378449,0.1320361 -0.385988,0.145631 -0.6875,0 C 39.81322,6.3666318 39.502528,5.57142 39.5,4.6875 39.496306,3.3967078 40.005789,2.719616 40.96875,2.71875 z m -3.8125,1.3125 c 0.540549,-0.078161 1.052166,0.4914325 1.25,1.5625 0.129721,0.702307 0.01014,1.342367 -0.375,1.75 C 37.675716,7.7200481 37.392601,7.695296 37,7.28125 36.475145,6.7277249 36.286196,6.305553 36.28125,5.53125 36.277056,4.8747068 36.281636,4.687396 36.625,4.34375 36.795347,4.173262 36.976067,4.0573035 37.15625,4.03125 z M 34.46875,6.375 C 35.029603,6.2837687 35.599846,6.8233425 35.8125,7.78125 36.111327,9.1273309 35.405425,9.830669 34.53125,9.0625 33.798831,8.4188978 33.476154,7.14923 33.9375,6.6875 34.1133,6.5115553 34.281799,6.4054104 34.46875,6.375 z M 42.5,8.0625 c 1.85718,0.031955 3.14852,0.7276993 3.28125,1.90625 0.128489,1.140889 -0.735884,2.17506 -3.25,3.875 -1.784687,1.20673 -2.5,1.868506 -2.5,2.3125 0,0.638209 0.793132,1.25 1.5625,1.25 0.485462,0 0.72281,-0.260882 0.9375,-1 0.284244,-0.978568 0.86548,-1.299646 2.25,-1.3125 0.969842,-0.009 1.267977,0.200172 1.3125,0.96875 0.02607,0.450122 -0.01637,0.68025 -0.28125,1.21875 -0.434197,0.882715 -1.448714,1.902761 -2.34375,2.34375 -0.610748,0.300916 -0.803284,0.343192 -1.75,0.375 -0.825837,0.02774 -1.179264,-0.0069 -1.625,-0.15625 C 39.234152,19.555813 38.719088,19.248703 37.875,18.5625 35.609396,16.720678 34.420581,14.021963 35.0625,12.125 35.327697,11.341306 35.640611,10.831715 36.1875,10.28125 37.13709,9.3254488 38.61799,8.627471 40.46875,8.25 41.187196,8.1034691 41.88094,8.0518483 42.5,8.0625 z"
         style="fill:#ffffff;fill-opacity:1;fill-rule:nonzero;stroke:none;display:inline" />
    </clipPath>
    <clipPath
       id="clipPath4974"
       clipPathUnits="userSpaceOnUse">
      <path
         inkscape:connector-curvature="0"
         style="fill:#ffffff;fill-opacity:1;stroke:none"
         d="M 16.625,2 C 15.93281,2.046173 15.13978,2.350316 14.5,2.875 13.716105,3.517873 13.079371,5.1522168 13.25,6.0625 13.337976,6.531842 13.692147,7.1029241 14.03125,7.28125 14.662734,7.613335 15.813682,7.0624791 16.875,5.9375 18.021489,4.722239 18.547995,3.383178 18.15625,2.625 17.915497,2.159052 17.31719,1.953827 16.625,2 z M 10.96875,2.71875 C 10.005789,2.719616 9.496306,3.3967078 9.5,4.6875 c 0.00253,0.88392 0.31322,1.6791318 0.71875,1.875 0.301512,0.145631 0.309051,0.1320361 0.6875,0 C 11.533114,6.343793 12.122053,4.8839409 12,3.90625 11.900109,3.106091 11.556193,2.7182209 10.96875,2.71875 z m -3.8125,1.3125 C 6.976067,4.0573035 6.795347,4.173262 6.625,4.34375 6.281636,4.687396 6.277056,4.8747068 6.28125,5.53125 6.286196,6.305553 6.475145,6.7277249 7,7.28125 7.392601,7.695296 7.675716,7.7200481 8.03125,7.34375 8.416388,6.936117 8.535971,6.296057 8.40625,5.59375 8.208416,4.5226825 7.696799,3.9530895 7.15625,4.03125 z M 4.46875,6.375 C 4.281799,6.4054104 4.1133,6.5115553 3.9375,6.6875 3.476154,7.14923 3.798831,8.4188978 4.53125,9.0625 5.405425,9.830669 6.111327,9.1273309 5.8125,7.78125 5.599846,6.8233425 5.029603,6.2837687 4.46875,6.375 z M 12.5,8.0625 C 11.88094,8.0518483 11.187196,8.1034691 10.46875,8.25 8.61799,8.627471 7.13709,9.3254488 6.1875,10.28125 5.640611,10.831715 5.327697,11.341306 5.0625,12.125 c -0.641919,1.896963 0.546896,4.595678 2.8125,6.4375 0.844088,0.686203 1.359152,0.993313 2.21875,1.28125 0.445736,0.149308 0.799163,0.183992 1.625,0.15625 0.946716,-0.03181 1.139252,-0.07408 1.75,-0.375 0.895036,-0.440989 1.909553,-1.461035 2.34375,-2.34375 0.264885,-0.5385 0.307321,-0.768628 0.28125,-1.21875 -0.04452,-0.768578 -0.342658,-0.977756 -1.3125,-0.96875 -1.38452,0.01285 -1.965756,0.333932 -2.25,1.3125 -0.21469,0.739118 -0.452038,1 -0.9375,1 -0.769368,0 -1.5625,-0.611791 -1.5625,-1.25 0,-0.443994 0.715313,-1.10577 2.5,-2.3125 2.514116,-1.69994 3.378489,-2.734111 3.25,-3.875 C 15.64852,8.7901993 14.35718,8.0944552 12.5,8.0625 z"
         id="path4976" />
    </clipPath>
    <linearGradient
       y2="36.995476"
       x2="6.101758"
       y1="154.58195"
       x1="6.101758"
       gradientTransform="matrix(0.1317916,0,0,0.1317916,11.619896,-1.9882468)"
       gradientUnits="userSpaceOnUse"
       id="linearGradient2510"
       xlink:href="#linearGradient4081"
       inkscape:collect="always" />
    <linearGradient
       y2="36.995476"
       x2="6.101758"
       y1="154.58195"
       x1="6.101758"
       gradientTransform="matrix(0.1317916,0,0,0.1317916,11.619896,-1.9882468)"
       gradientUnits="userSpaceOnUse"
       id="linearGradient2508"
       xlink:href="#linearGradient4081"
       inkscape:collect="always" />
    <linearGradient
       y2="36.995476"
       x2="6.101758"
       y1="154.58195"
       x1="6.101758"
       gradientUnits="userSpaceOnUse"
       id="linearGradient2506"
       xlink:href="#linearGradient4081"
       inkscape:collect="always" />
    <linearGradient
       y2="36.995476"
       x2="6.101758"
       y1="154.58195"
       x1="6.101758"
       gradientTransform="matrix(0.1256322,0,0,0.1256322,11.921746,-1.0005124)"
       gradientUnits="userSpaceOnUse"
       id="linearGradient2504"
       xlink:href="#linearGradient4081"
       inkscape:collect="always" />
    <linearGradient
       y2="36.995476"
       x2="6.101758"
       y1="154.58195"
       x1="6.101758"
       gradientTransform="matrix(0.1256322,0,0,0.1256322,11.921746,-1.0005124)"
       gradientUnits="userSpaceOnUse"
       id="linearGradient2501"
       xlink:href="#linearGradient4081"
       inkscape:collect="always" />
    <linearGradient
       y2="36.995476"
       x2="6.101758"
       y1="154.58195"
       x1="6.101758"
       gradientTransform="matrix(0.1256322,0,0,0.1256322,11.921746,-1.0005124)"
       gradientUnits="userSpaceOnUse"
       id="linearGradient2498"
       xlink:href="#linearGradient4081"
       inkscape:collect="always" />
    <linearGradient
       y2="36.995476"
       x2="6.101758"
       y1="154.58195"
       x1="6.101758"
       gradientTransform="matrix(0.1256322,0,0,0.1256322,11.921746,-1.0005124)"
       gradientUnits="userSpaceOnUse"
       id="linearGradient2495"
       xlink:href="#linearGradient4081"
       inkscape:collect="always" />
    <linearGradient
       y2="36.995476"
       x2="6.101758"
       y1="154.58195"
       x1="6.101758"
       gradientTransform="matrix(0.1256322,0,0,0.1256322,11.921746,-1.0005124)"
       gradientUnits="userSpaceOnUse"
       id="linearGradient2489"
       xlink:href="#linearGradient4081"
       inkscape:collect="always" />
    <linearGradient
       y2="36.995476"
       x2="6.101758"
       y1="154.58195"
       x1="6.101758"
       gradientTransform="matrix(0.1256322,0,0,0.1256322,11.921746,-1.0005124)"
       gradientUnits="userSpaceOnUse"
       id="linearGradient2483"
       xlink:href="#linearGradient4081"
       inkscape:collect="always" />
    <linearGradient
       y2="36.995476"
       x2="6.101758"
       y1="154.58195"
       x1="6.101758"
       gradientTransform="matrix(0.1256322,0,0,0.1256322,11.921746,-1.0005124)"
       gradientUnits="userSpaceOnUse"
       id="linearGradient2480"
       xlink:href="#linearGradient4081"
       inkscape:collect="always" />
    <linearGradient
       y2="36.995476"
       x2="6.101758"
       y1="154.58195"
       x1="6.101758"
       gradientTransform="matrix(0.1317916,0,0,0.1317916,11.619896,-1.9882468)"
       gradientUnits="userSpaceOnUse"
       id="linearGradient4186"
       xlink:href="#linearGradient4081"
       inkscape:collect="always" />
    <linearGradient
       y2="36.995476"
       x2="6.101758"
       y1="154.58195"
       x1="6.101758"
       gradientUnits="userSpaceOnUse"
       id="linearGradient4184"
       xlink:href="#linearGradient4081"
       inkscape:collect="always" />
    <linearGradient
       y2="36.995476"
       x2="6.101758"
       y1="154.58195"
       x1="6.101758"
       gradientTransform="matrix(0.1317916,0,0,0.1317916,11.619896,-1.9882468)"
       gradientUnits="userSpaceOnUse"
       id="linearGradient4182"
       xlink:href="#linearGradient4081"
       inkscape:collect="always" />
    <linearGradient
       y2="36.995476"
       x2="6.101758"
       y1="154.58195"
       x1="6.101758"
       gradientUnits="userSpaceOnUse"
       id="linearGradient4180"
       xlink:href="#linearGradient4081"
       inkscape:collect="always" />
    <linearGradient
       gradientTransform="matrix(0.1317916,0,0,0.1317916,11.619896,-1.9882468)"
       y2="36.995476"
       x2="6.101758"
       y1="154.58195"
       x1="6.101758"
       gradientUnits="userSpaceOnUse"
       id="linearGradient4158"
       xlink:href="#linearGradient4081"
       inkscape:collect="always" />
    <linearGradient
       gradientTransform="matrix(0.1317916,0,0,0.1317916,11.619896,-1.9882468)"
       y2="36.995476"
       x2="6.101758"
       y1="154.58195"
       x1="6.101758"
       gradientUnits="userSpaceOnUse"
       id="linearGradient4148"
       xlink:href="#linearGradient4081"
       inkscape:collect="always" />
    <linearGradient
       gradientTransform="matrix(0.1317916,0,0,0.1317916,11.619896,-1.9882468)"
       y2="36.995476"
       x2="6.101758"
       y1="154.58195"
       x1="6.101758"
       gradientUnits="userSpaceOnUse"
       id="linearGradient4141"
       xlink:href="#linearGradient4081"
       inkscape:collect="always" />
    <linearGradient
       gradientTransform="matrix(0.1317916,0,0,0.1317916,11.619896,-1.9882468)"
       y2="36.995476"
       x2="6.101758"
       y1="154.58195"
       x1="6.101758"
       gradientUnits="userSpaceOnUse"
       id="linearGradient4132"
       xlink:href="#linearGradient4081"
       inkscape:collect="always" />
    <linearGradient
       y2="36.995476"
       x2="6.101758"
       y1="154.58195"
       x1="6.101758"
       gradientUnits="userSpaceOnUse"
       id="linearGradient4129"
       xlink:href="#linearGradient4081"
       inkscape:collect="always" />
    <linearGradient
       y2="36.995476"
       x2="6.101758"
       y1="154.58195"
       x1="6.101758"
       gradientUnits="userSpaceOnUse"
       id="linearGradient4127"
       xlink:href="#linearGradient4081"
       inkscape:collect="always" />
    <linearGradient
       y2="36.995476"
       x2="6.101758"
       y1="154.58195"
       x1="6.101758"
       gradientUnits="userSpaceOnUse"
       id="linearGradient4125"
       xlink:href="#linearGradient4081"
       inkscape:collect="always" />
    <linearGradient
       y2="36.995476"
       x2="6.101758"
       y1="154.58195"
       x1="6.101758"
       gradientUnits="userSpaceOnUse"
       id="linearGradient4123"
       xlink:href="#linearGradient4081"
       inkscape:collect="always" />
    <linearGradient
       y2="36.995476"
       x2="6.101758"
       y1="154.58195"
       x1="6.101758"
       gradientUnits="userSpaceOnUse"
       id="linearGradient4121"
       xlink:href="#linearGradient4081"
       inkscape:collect="always" />
    <linearGradient
       y2="36.995476"
       x2="6.101758"
       y1="154.58195"
       x1="6.101758"
       gradientUnits="userSpaceOnUse"
       id="linearGradient4119"
       xlink:href="#linearGradient4081"
       inkscape:collect="always" />
    <linearGradient
       y2="36.995476"
       x2="6.101758"
       y1="154.58195"
       x1="6.101758"
       gradientUnits="userSpaceOnUse"
       id="linearGradient4117"
       xlink:href="#linearGradient4081"
       inkscape:collect="always" />
    <linearGradient
       y2="36.995476"
       x2="6.101758"
       y1="154.58195"
       x1="6.101758"
       gradientUnits="userSpaceOnUse"
       id="linearGradient4115"
       xlink:href="#linearGradient4081"
       inkscape:collect="always" />
    <linearGradient
       y2="36.995476"
       x2="6.101758"
       y1="154.58195"
       x1="6.101758"
       gradientUnits="userSpaceOnUse"
       id="linearGradient4113"
       xlink:href="#linearGradient4081"
       inkscape:collect="always" />
    <linearGradient
       y2="36.995476"
       x2="6.101758"
       y1="154.58195"
       x1="6.101758"
       gradientUnits="userSpaceOnUse"
       id="linearGradient4111"
       xlink:href="#linearGradient4081"
       inkscape:collect="always" />
    <linearGradient
       y2="36.995476"
       x2="6.101758"
       y1="154.58195"
       x1="6.101758"
       gradientUnits="userSpaceOnUse"
       id="linearGradient4109"
       xlink:href="#linearGradient4081"
       inkscape:collect="always" />
    <linearGradient
       y2="36.995476"
       x2="6.101758"
       y1="154.58195"
       x1="6.101758"
       gradientUnits="userSpaceOnUse"
       id="linearGradient4107"
       xlink:href="#linearGradient4081"
       inkscape:collect="always" />
    <linearGradient
       y2="36.995476"
       x2="6.101758"
       y1="154.58195"
       x1="6.101758"
       gradientUnits="userSpaceOnUse"
       id="linearGradient4105"
       xlink:href="#linearGradient4081"
       inkscape:collect="always" />
    <linearGradient
       y2="36.995476"
       x2="6.101758"
       y1="154.58195"
       x1="6.101758"
       gradientUnits="userSpaceOnUse"
       id="linearGradient4103"
       xlink:href="#linearGradient4081"
       inkscape:collect="always" />
    <linearGradient
       gradientUnits="userSpaceOnUse"
       y2="36.995476"
       x2="6.101758"
       y1="154.58195"
       x1="6.101758"
       id="linearGradient4089"
       xlink:href="#linearGradient4081"
       inkscape:collect="always" />
    <linearGradient
       gradientUnits="userSpaceOnUse"
       y2="0.97239029"
       x2="9.17138"
       y1="21.000002"
       x1="9.17138"
       id="linearGradient4063"
       xlink:href="#linearGradient4057"
       inkscape:collect="always" />
    <linearGradient
       gradientUnits="userSpaceOnUse"
       y2="-4.1786065"
       x2="9.494998"
       y1="15.516565"
       x1="9.494998"
       id="linearGradient4051"
       xlink:href="#linearGradient3929"
       inkscape:collect="always" />
    <linearGradient
       id="linearGradient3929">
      <stop
         id="stop3931"
         offset="0"
         style="stop-color:#000000;stop-opacity:1;" />
      <stop
         id="stop3933"
         offset="1"
         style="stop-color:#000000;stop-opacity:0;" />
    </linearGradient>
    <linearGradient
       id="linearGradient4057">
      <stop
         id="stop4059"
         offset="0"
         style="stop-color:#816647;stop-opacity:1;" />
      <stop
         id="stop4061"
         offset="1"
         style="stop-color:#a6845d;stop-opacity:1;" />
    </linearGradient>
    <linearGradient
       id="linearGradient4081">
      <stop
         id="stop4083"
         offset="0"
         style="stop-color:#aaaaaa;stop-opacity:1;" />
      <stop
         id="stop4085"
         offset="1"
         style="stop-color:#f0f0f0;stop-opacity:1;" />
    </linearGradient>
    <inkscape:perspective
       id="perspective102"
       inkscape:persp3d-origin="11 : 7.3333333 : 1"
       inkscape:vp_z="22 : 11 : 1"
       inkscape:vp_y="0 : 1000 : 0"
       inkscape:vp_x="0 : 11 : 1"
       sodipodi:type="inkscape:persp3d" />
    <linearGradient
       gradientUnits="userSpaceOnUse"
       y2="-9.817296"
       x2="11.375"
       y1="22"
       x1="11.375"
       id="linearGradient3335"
       xlink:href="#linearGradient3327"
       inkscape:collect="always" />
    <linearGradient
       id="linearGradient3327"
       inkscape:collect="always">
      <stop
         id="stop3330"
         offset="0"
         style="stop-color:#000000;stop-opacity:1;" />
      <stop
         id="stop3333"
         offset="1"
         style="stop-color:#000000;stop-opacity:0;" />
    </linearGradient>
    <linearGradient
       id="linearGradient3271">
      <stop
         id="stop3273"
         offset="0"
         style="stop-color:#395d93;stop-opacity:1;" />
      <stop
         id="stop3275"
         offset="1"
         style="stop-color:#6e92c7;stop-opacity:1;" />
    </linearGradient>
    <linearGradient
       id="linearGradient3279">
      <stop
         id="stop3281"
         offset="0"
         style="stop-color:#f08e00;stop-opacity:1;" />
      <stop
         id="stop3283"
         offset="1"
         style="stop-color:#ffd200;stop-opacity:1;" />
    </linearGradient>
    <linearGradient
       id="linearGradient3287">
      <stop
         id="stop3289"
         offset="0"
         style="stop-color:#cd0000;stop-opacity:1;" />
      <stop
         id="stop3291"
         offset="1"
         style="stop-color:#e55300;stop-opacity:1;" />
    </linearGradient>
    <linearGradient
       id="linearGradient3295">
      <stop
         id="stop3297"
         offset="0"
         style="stop-color:#559829;stop-opacity:1;" />
      <stop
         id="stop3299"
         offset="1"
         style="stop-color:#86c837;stop-opacity:1;" />
    </linearGradient>
    <linearGradient
       id="linearGradient3722">
      <stop
         style="stop-color:#aaaaaa;stop-opacity:1;"
         offset="0"
         id="stop3724" />
      <stop
         style="stop-color:#f0f0f0;stop-opacity:1;"
         offset="1"
         id="stop3726" />
    </linearGradient>
  </defs>
  <sodipodi:namedview
     id="base"
     pagecolor="#ffffff"
     bordercolor="#666666"
     borderopacity="1.0"
     inkscape:pageopacity="0.0"
     inkscape:pageshadow="2"
     inkscape:zoom="22.4"
     inkscape:cx="10.104136"
     inkscape:cy="8.7567613"
     inkscape:document-units="px"
     inkscape:current-layer="layer1"
     showgrid="false"
     fit-margin-top="0"
     fit-margin-left="0"
     fit-margin-right="0"
     fit-margin-bottom="0"
     inkscape:window-width="1920"
     inkscape:window-height="1005"
     inkscape:window-x="0"
     inkscape:window-y="25"
     inkscape:window-maximized="1" />
  <metadata
     id="metadata3787">
    <rdf:RDF>
      <cc:Work
         rdf:about="">
        <dc:format>image/svg+xml</dc:format>
        <dc:type
           rdf:resource="http://purl.org/dc/dcmitype/StillImage" />
        <dc:title />
      </cc:Work>
    </rdf:RDF>
  </metadata>
  <g
     inkscape:label="Camada 1"
     inkscape:groupmode="layer"
     id="layer1"
     transform="translate(-265.752,-616.32172)">
    <path
       style="color:#000000;fill:#cccccc;fill-opacity:1;fill-rule:nonzero;stroke:none;stroke-width:1px;marker:none;visibility:visible;display:inline;overflow:visible;enable-background:accumulate"
       d="m 273.74979,616.3236 -0.80265,2.24434 c -2.56543,0.35523 -4.59557,2.38317 -4.95081,4.94858 l -2.24433,0.80708 2.24433,0.80708 c 0.15727,1.13075 0.64081,2.15788 1.35103,2.98286 l -1.41294,2.02543 2.02322,-1.41294 c 0.82585,0.71223 1.85652,1.19625 2.9895,1.35323 l 0.80486,2.24434 0.80707,-2.24434 c 2.5634,-0.35674 4.59262,-2.38714 4.9486,-4.9508 l 2.24433,-0.80486 -2.24433,-0.80708 c -0.10542,-0.75925 -0.35819,-1.47136 -0.72748,-2.10724 l -1.0702,1.53898 c 0.01,0.0278 0.0196,0.0537 0.0288,0.0818 0,10e-4 0.002,0.003 0.002,0.004 0.0435,0.13438 0.0806,0.27136 0.11056,0.41127 0.009,0.0414 0.0168,0.0841 0.0243,0.12604 0.002,0.0131 0.004,0.0267 0.007,0.0398 0.008,0.0462 0.0158,0.0925 0.0221,0.13931 0,0.002 0,0.003 0,0.004 0,0.004 0.002,0.009 0.002,0.0133 0.008,0.0577 0.0146,0.11401 0.0199,0.17246 0.005,0.0521 0.008,0.10441 0.0111,0.157 0,0.0108 0.002,0.0202 0.002,0.031 0.002,0.0264 0.002,0.0531 0.002,0.0796 6.3e-4,0.0375 0,0.0772 0,0.11498 0,0.0718 -8.7e-4,0.14361 -0.004,0.21449 l 0,0.002 c -0.003,0.0551 -0.006,0.10914 -0.011,0.16362 -0.003,0.0371 -0.009,0.0738 -0.0133,0.11056 -0.005,0.0419 -0.007,0.0845 -0.0133,0.12604 -9.4e-4,0.007 -0.003,0.0127 -0.004,0.0199 -0.002,0.015 -0.006,0.0315 -0.009,0.0464 -0.008,0.0505 -0.0165,0.10051 -0.0265,0.15036 0,0.004 -6.8e-4,0.005 -0.002,0.009 -6.3e-4,0.002 -0.002,0.005 -0.002,0.007 -0.0137,0.0664 -0.0275,0.13162 -0.0442,0.1968 -0.0124,0.0482 -0.0257,0.0962 -0.0398,0.14372 -0.009,0.0303 -0.0192,0.0629 -0.0288,0.0929 0,0.002 -6.2e-4,0.002 -0.002,0.004 -0.0165,0.051 -0.0325,0.10467 -0.0509,0.15478 -0.002,0.007 -0.004,0.0111 -0.007,0.0177 -0.42381,1.13929 -1.3287,2.04547 -2.46766,2.46988 -0.0373,0.0139 -0.0772,0.0269 -0.11498,0.0398 -0.0257,0.009 -0.0515,0.0183 -0.0774,0.0265 -0.0382,0.0122 -0.0763,0.0221 -0.11498,0.0332 -0.0143,0.004 -0.0276,0.007 -0.042,0.0111 -0.007,0.002 -0.0155,0.005 -0.0221,0.007 -0.0356,0.01 -0.0702,0.0178 -0.10614,0.0265 -0.0337,0.008 -0.0677,0.017 -0.10171,0.0243 -0.0261,0.006 -0.0512,0.0103 -0.0774,0.0155 -0.041,0.008 -0.0846,0.0153 -0.12604,0.0221 -0.0151,0.002 -0.0269,0.004 -0.042,0.007 -0.007,10e-4 -0.0171,0.003 -0.0243,0.004 -0.0415,0.006 -0.0819,0.0106 -0.12383,0.0155 -0.0369,0.004 -0.0734,0.01 -0.11056,0.0133 -0.0545,0.005 -0.11069,0.008 -0.16584,0.0111 -0.0709,0.004 -0.14494,0.007 -0.21668,0.007 -0.0717,0 -0.14363,-0.003 -0.21449,-0.007 l -0.002,0 c -0.0552,-0.003 -0.10896,-0.006 -0.16362,-0.0111 -0.0392,-0.004 -0.0761,-0.009 -0.11498,-0.0133 -0.0378,-0.004 -0.0753,-0.01 -0.11277,-0.0155 -0.0299,-0.004 -0.0609,-0.008 -0.0907,-0.0132 -0.0395,-0.007 -0.0781,-0.0144 -0.11719,-0.0221 -0.0125,-0.002 -0.0251,-0.004 -0.0376,-0.007 -0.0646,-0.0134 -0.12888,-0.0279 -0.19237,-0.0442 -0.0453,-0.0116 -0.0902,-0.0245 -0.13488,-0.0376 -0.0353,-0.0104 -0.0713,-0.0219 -0.10613,-0.0332 -0.0518,-0.0167 -0.10389,-0.0344 -0.15478,-0.0531 -0.006,-0.002 -0.009,-0.002 -0.0155,-0.004 -0.337,-0.12524 -0.65451,-0.29223 -0.94418,-0.49531 l 1.42621,-0.99502 c 0.30208,0.12105 0.63201,0.18795 0.97734,0.18795 1.45115,0 2.62687,-1.17793 2.62687,-2.62908 0,-0.34524 -0.0647,-0.67309 -0.18575,-0.97512 l 3.37425,-4.84245 -4.84025,3.37866 c -0.3015,-0.12063 -0.63053,-0.18796 -0.97512,-0.18796 -1.45116,0 -2.62687,1.17572 -2.62687,2.62687 0,0.34413 0.0654,0.67396 0.18574,0.97513 l -0.99502,1.4262 c -0.20228,-0.28878 -0.36807,-0.60394 -0.49309,-0.93974 -0.0139,-0.0373 -0.027,-0.0727 -0.0398,-0.11057 -0.009,-0.0257 -0.0183,-0.0514 -0.0265,-0.0774 -0.0122,-0.0382 -0.0221,-0.0785 -0.0332,-0.11719 -0.006,-0.0208 -0.012,-0.0432 -0.0177,-0.0641 -0.01,-0.0356 -0.0179,-0.0702 -0.0265,-0.10614 -0.008,-0.0337 -0.0171,-0.0677 -0.0243,-0.10171 -0.006,-0.0261 -0.0104,-0.0533 -0.0155,-0.0796 -0.006,-0.0327 -0.0143,-0.0665 -0.0199,-0.0995 -0.008,-0.0465 -0.0135,-0.0923 -0.0199,-0.1393 -0.008,-0.062 -0.0164,-0.12288 -0.0221,-0.18574 -0.005,-0.0546 -0.008,-0.10848 -0.0111,-0.16362 l 0,-0.002 c -0.004,-0.0709 -0.007,-0.14274 -0.007,-0.21449 0,-0.0718 0.003,-0.14583 0.007,-0.21669 0.003,-0.0558 0.006,-0.1106 0.0111,-0.16585 0.003,-0.0392 0.009,-0.0783 0.0133,-0.11718 0.005,-0.0378 0.0101,-0.0731 0.0155,-0.11056 0.004,-0.0299 0.008,-0.061 0.0133,-0.0907 0.007,-0.0395 0.0144,-0.0781 0.0221,-0.11719 0.002,-0.0125 0.002,-0.0251 0.004,-0.0376 0.0134,-0.0646 0.0301,-0.1311 0.0464,-0.19458 0.0116,-0.0453 0.0245,-0.0902 0.0376,-0.13489 0.0104,-0.0353 0.0197,-0.069 0.031,-0.10392 0.0167,-0.0518 0.0344,-0.10388 0.0531,-0.15478 0.002,-0.006 0.004,-0.0116 0.007,-0.0177 0.42365,-1.14092 1.33115,-2.0462 2.47209,-2.46987 0.0565,-0.021 0.11256,-0.0389 0.17025,-0.0575 0.0349,-0.0113 0.0709,-0.0228 0.10614,-0.0332 0.0446,-0.0131 0.0896,-0.026 0.13488,-0.0376 0.0635,-0.0163 0.12776,-0.0308 0.19237,-0.0442 0.0125,-0.003 0.0251,-0.006 0.0376,-0.009 0.0391,-0.008 0.0777,-0.0132 0.1172,-0.0199 0.0297,-0.005 0.0607,-0.0112 0.0906,-0.0155 0.0374,-0.005 0.075,-0.009 0.11278,-0.0133 0.0389,-0.005 0.0758,-0.01 0.11497,-0.0133 0.0544,-0.005 0.10863,-0.008 0.16363,-0.0111 l 0.002,0 c 0.0709,-0.004 0.14273,-0.007 0.21448,-0.007 0.0376,0 0.0776,10e-4 0.11498,0.002 0.0262,6.2e-4 0.0513,10e-4 0.0774,0.002 0.0108,6.2e-4 0.0223,10e-4 0.0332,0.002 0.0527,0.003 0.10487,0.006 0.157,0.0111 0.058,0.005 0.1152,0.0123 0.17247,0.0199 0.005,6.3e-4 0.0107,-7.5e-4 0.0155,0 0.006,7.5e-4 0.0117,0.004 0.0177,0.004 0.0414,0.006 0.0828,0.0107 0.12382,0.0177 0.056,0.01 0.11061,0.0214 0.16584,0.0332 0.0707,0.0151 0.14296,0.0322 0.21227,0.0509 0.068,0.0183 0.13458,0.0381 0.20122,0.0597 10e-4,6.2e-4 0.003,-6.9e-4 0.004,0 0.0281,0.009 0.054,0.019 0.0818,0.0288 l 1.53455,-1.07021 c -0.63499,-0.36827 -1.34507,-0.61975 -2.10282,-0.72526 l -0.80928,-2.24434 z m 0.002,6.7131 c 0.71168,0 1.28911,0.57523 1.28911,1.2869 0,0.71168 -0.57743,1.28911 -1.28911,1.28911 -0.71168,0 -1.28689,-0.57743 -1.2869,-1.28911 0,-0.71167 0.57522,-1.2869 1.2869,-1.2869 z"
       id="path3035"
       inkscape:connector-curvature="0" />
  </g>
</svg>
