<?xml version="1.0" encoding="UTF-8" standalone="no"?>
<!-- Created with Inkscape (http://www.inkscape.org/) -->

<svg
   xmlns:dc="http://purl.org/dc/elements/1.1/"
   xmlns:cc="http://creativecommons.org/ns#"
   xmlns:rdf="http://www.w3.org/1999/02/22-rdf-syntax-ns#"
   xmlns:svg="http://www.w3.org/2000/svg"
   xmlns="http://www.w3.org/2000/svg"
   xmlns:xlink="http://www.w3.org/1999/xlink"
   xmlns:sodipodi="http://sodipodi.sourceforge.net/DTD/sodipodi-0.dtd"
   xmlns:inkscape="http://www.inkscape.org/namespaces/inkscape"
   version="1.0"
   width="96"
   height="96"
   id="svg2408"
   inkscape:version="0.48.4 r9939"
   sodipodi:docname="distributor-logo-opensuse.svg">
  <sodipodi:namedview
     pagecolor="#ffffff"
     bordercolor="#666666"
     borderopacity="1"
     objecttolerance="10"
     gridtolerance="10"
     guidetolerance="10"
     inkscape:pageopacity="0"
     inkscape:pageshadow="2"
     inkscape:window-width="958"
     inkscape:window-height="1004"
     id="namedview58"
     showgrid="false"
     inkscape:zoom="1.2291667"
     inkscape:cx="92.994115"
     inkscape:cy="140.23001"
     inkscape:window-x="960"
     inkscape:window-y="25"
     inkscape:window-maximized="0"
     inkscape:current-layer="svg2408" />
  <defs
     id="defs2410">
    <linearGradient
       id="linearGradient3907">
      <stop
         id="stop3909"
         style="stop-color:#e1e1e1;stop-opacity:1"
         offset="0" />
      <stop
         id="stop3911"
         style="stop-color:#ffffff;stop-opacity:1"
         offset="1" />
    </linearGradient>
    <linearGradient
       x1="45.447727"
       y1="92.539597"
       x2="45.447727"
       y2="7.0165396"
       id="ButtonShadow"
       gradientUnits="userSpaceOnUse"
       gradientTransform="scale(1.0058652,0.994169)">
      <stop
         id="stop3750"
         style="stop-color:#000000;stop-opacity:1"
         offset="0" />
      <stop
         id="stop3752"
         style="stop-color:#000000;stop-opacity:0.58823532"
         offset="1" />
    </linearGradient>
    <linearGradient
       id="linearGradient3737">
      <stop
         id="stop3739"
         style="stop-color:#ffffff;stop-opacity:1"
         offset="0" />
      <stop
         id="stop3741"
         style="stop-color:#ffffff;stop-opacity:0"
         offset="1" />
    </linearGradient>
    <linearGradient
       id="linearGradient3700">
      <stop
         id="stop3702"
         style="stop-color:#6a9f37;stop-opacity:1"
         offset="0" />
      <stop
         id="stop3704"
         style="stop-color:#92d74e;stop-opacity:1"
         offset="1" />
    </linearGradient>
    <filter
       color-interpolation-filters="sRGB"
       id="filter3174">
      <feGaussianBlur
         id="feGaussianBlur3176"
         stdDeviation="1.71" />
    </filter>
    <linearGradient
       x1="36.357143"
       y1="6"
       x2="36.357143"
       y2="63.893143"
       id="linearGradient3188"
       xlink:href="#linearGradient3737"
       gradientUnits="userSpaceOnUse" />
    <filter
       x="-0.192"
       y="-0.192"
       width="1.3839999"
       height="1.3839999"
       color-interpolation-filters="sRGB"
       id="filter3794">
      <feGaussianBlur
         id="feGaussianBlur3796"
         stdDeviation="5.28" />
    </filter>
    <linearGradient
       x1="48"
       y1="20.220806"
       x2="48"
       y2="138.66119"
       id="linearGradient3613"
       xlink:href="#linearGradient3737"
       gradientUnits="userSpaceOnUse" />
    <radialGradient
       cx="48"
       cy="90.171875"
       r="42"
       fx="48"
       fy="90.171875"
       id="radialGradient3619"
       xlink:href="#linearGradient3737"
       gradientUnits="userSpaceOnUse"
       gradientTransform="matrix(1.1573129,0,0,0.99590774,-7.5510206,0.19713193)" />
    <clipPath
       id="clipPath3613">
      <rect
         width="84"
         height="84"
         rx="6"
         ry="6"
         x="6"
         y="6"
         id="rect3615"
         style="fill:#ffffff;fill-opacity:1;fill-rule:nonzero;stroke:none" />
    </clipPath>
    <linearGradient
       x1="48"
       y1="90"
       x2="48"
       y2="5.9877172"
       id="linearGradient3617"
       xlink:href="#linearGradient3700"
       gradientUnits="userSpaceOnUse" />
    <linearGradient
       x1="45.447727"
       y1="92.539597"
       x2="45.447727"
       y2="7.0165396"
       id="ButtonShadow-0"
       gradientUnits="userSpaceOnUse"
       gradientTransform="matrix(1.0058652,0,0,0.994169,100,0)">
      <stop
         id="stop3750-8"
         style="stop-color:#000000;stop-opacity:1"
         offset="0" />
      <stop
         id="stop3752-5"
         style="stop-color:#000000;stop-opacity:0.58823532"
         offset="1" />
    </linearGradient>
    <linearGradient
       x1="32.251034"
       y1="6.1317081"
       x2="32.251034"
       y2="90.238609"
       id="linearGradient3780"
       xlink:href="#ButtonShadow-0"
       gradientUnits="userSpaceOnUse"
       gradientTransform="matrix(1.0238095,0,0,1.0119048,-1.1428571,-98.071429)" />
    <linearGradient
       x1="32.251034"
       y1="6.1317081"
       x2="32.251034"
       y2="90.238609"
       id="linearGradient3772"
       xlink:href="#ButtonShadow-0"
       gradientUnits="userSpaceOnUse"
       gradientTransform="matrix(1.0238095,0,0,1.0119048,-1.1428571,-98.071429)" />
    <linearGradient
       x1="32.251034"
       y1="6.1317081"
       x2="32.251034"
       y2="90.238609"
       id="linearGradient3725"
       xlink:href="#ButtonShadow-0"
       gradientUnits="userSpaceOnUse"
       gradientTransform="matrix(1.0238095,0,0,1.0119048,-1.1428571,-98.071429)" />
    <linearGradient
       x1="32.251034"
       y1="6.1317081"
       x2="32.251034"
       y2="90.238609"
       id="linearGradient3721"
       xlink:href="#ButtonShadow-0"
       gradientUnits="userSpaceOnUse"
       gradientTransform="translate(0,-97)" />
    <linearGradient
       x1="32.251034"
       y1="6.1317081"
       x2="32.251034"
       y2="90.238609"
       id="linearGradient3026"
       xlink:href="#ButtonShadow-0"
       gradientUnits="userSpaceOnUse"
       gradientTransform="matrix(1.0238095,0,0,1.0119048,-1.1428571,-98.071429)" />
    <linearGradient
       x1="48"
       y1="67.218414"
       x2="48"
       y2="28.781588"
       id="linearGradient3913"
       xlink:href="#linearGradient3907"
       gradientUnits="userSpaceOnUse" />
    <radialGradient
       inkscape:collect="always"
       xlink:href="#linearGradient3737"
       id="radialGradient3036"
       gradientUnits="userSpaceOnUse"
       gradientTransform="matrix(1.1573129,0,0,0.99590774,-7.5510206,0.19713193)"
       cx="48"
       cy="90.171875"
       fx="48"
       fy="90.171875"
       r="42" />
    <linearGradient
       inkscape:collect="always"
       xlink:href="#linearGradient3737"
       id="linearGradient3039"
       gradientUnits="userSpaceOnUse"
       x1="36.357143"
       y1="6"
       x2="36.357143"
       y2="63.893143" />
  </defs>
  <metadata
     id="metadata2413">
    <rdf:RDF>
      <cc:Work
         rdf:about="">
        <dc:format>image/svg+xml</dc:format>
        <dc:type
           rdf:resource="http://purl.org/dc/dcmitype/StillImage" />
        <dc:title />
      </cc:Work>
    </rdf:RDF>
  </metadata>
  <g
     id="layer2"
     style="display:none">
    <rect
       width="86"
       height="85"
       rx="6"
       ry="6"
       x="5"
       y="7"
       id="rect3745"
       style="opacity:0.9;fill:url(#ButtonShadow);fill-opacity:1;fill-rule:nonzero;stroke:none;filter:url(#filter3174)" />
  </g>
  <rect
     style="fill:#86c747;fill-opacity:1;fill-rule:nonzero;stroke:none"
     id="rect2419"
     y="6"
     x="6"
     ry="6"
     rx="6"
     height="84"
     width="84" />
  <path
     style="fill:#ffffff;fill-opacity:1"
     id="Geeko"
     inkscape:connector-curvature="0"
     d="m 46.170834,28.781644 c -1.896525,0.0012 -3.654064,0.04475 -4.481731,0.136337 -5.018005,0.555377 -9.423765,1.890706 -14.325075,4.337688 -7.89962,3.943895 -12.85966,8.407717 -15.66074,14.097471 -1.25421,2.5476 -1.6882,4.332578 -1.70281,7.001183 -0.009,1.688424 0.11466,2.583853 0.55071,3.957173 1.5707,4.946824 6.04839,8.476806 11.23598,8.862457 5.01986,0.373153 8.75001,-1.613593 10.41622,-5.545782 0.60409,-1.425568 0.78557,-2.663503 0.61719,-4.223521 -0.41171,-3.814869 -2.87983,-6.71648 -6.52635,-7.676553 -1.11658,-0.293989 -2.83509,-0.303205 -3.93101,-0.0032 -3.00478,0.822617 -5.19059,3.531292 -4.38679,6.874331 0.68196,2.836322 3.99605,4.613778 6.79857,3.487904 1.11912,-0.449579 1.7706,-0.993608 1.44644,-2.187857 -0.3304,-1.217093 -1.14732,-1.504171 -2.71248,-1.065398 -0.61607,0.172721 -1.05192,0.06209 -1.51288,-0.355129 -0.77335,-0.699953 -0.76096,-1.769796 0.0316,-2.533493 0.9648,-0.929601 2.72866,-1.007891 4.33929,-0.190253 1.59398,0.809208 2.75839,3.099526 2.50674,4.930637 -0.27015,1.96564 -1.3979,3.32231 -3.2885,3.95401 -0.6312,0.210887 -0.89236,0.23519 -2.38015,0.231477 -1.59585,-0.004 -1.71361,-0.01865 -2.61118,-0.320257 -3.36703,-1.131413 -5.59104,-4.198084 -5.61165,-7.739973 -0.013,-2.236724 0.78108,-4.042467 2.54473,-5.783584 1.65787,-1.636683 3.7994,-2.436167 6.52634,-2.435171 3.38987,0.0012 6.2045,1.18622 8.66912,3.65277 1.8548,1.85627 3.25521,4.372185 3.79492,6.810921 l 0.17091,0.77368 4.867874,2.387632 c 0.03904,-0.03571 0.02746,-0.363429 -0.02532,-0.586615 -0.199488,-0.843416 -0.230726,-3.19208 -0.05698,-4.185461 0.252696,-1.444655 0.594286,-2.196532 1.322995,-2.91717 1.123499,-1.111032 2.510298,-1.589824 4.61466,-1.591755 2.799089,-0.0025 5.17451,1.02304 7.298641,3.154972 0.476632,0.478381 1.515527,1.61148 2.310505,2.517636 0.794986,0.906138 1.566596,1.734268 1.71546,1.839078 0.417668,0.294042 6.091979,2.892561 6.162397,2.822029 0.03422,-0.03429 -0.166947,-0.395995 -0.44946,-0.805382 -1.105752,-1.602438 -2.043302,-3.666485 -2.40228,-5.285765 -0.245574,-1.107801 -0.178229,-2.742807 0.145603,-3.487896 0.303178,-0.697602 0.949567,-1.286933 1.633159,-1.49029 0.73224,-0.217849 2.330556,-0.204694 4.475432,0.03805 2.572435,0.291124 3.994528,0.347005 5.690778,0.218766 3.862968,-0.292032 6.391783,-0.927331 9.222994,-2.311501 1.47964,-0.723415 1.794228,-1.00265 2.114256,-1.867626 0.305158,-0.824714 0.44992,-1.613952 0.29435,-1.613952 -0.05504,0 -0.574632,0.223457 -1.15524,0.497827 -2.178652,1.029529 -4.049113,1.48704 -5.709781,1.398329 -1.726358,-0.09222 -4.553941,-1.040431 -7.9095,-2.653981 l -1.528739,-0.735637 -1.247015,-2.986889 1.164734,0.72609 c 1.915996,1.272284 5.014514,2.795543 6.903008,3.392789 2.88509,0.912411 5.181184,0.793406 7.504359,-0.390011 0.818847,-0.41711 2.354836,-1.471369 2.354836,-1.617123 0,-0.274735 -0.821414,-2.944992 -1.278702,-4.156939 -1.143532,-3.030759 -1.923027,-4.041175 -3.807569,-4.940141 -2.092232,-0.998047 -4.397995,-1.713084 -8.637464,-2.679351 -2.026891,-0.430369 -4.064145,-0.846937 -6.121236,-1.103441 l -0.05065,2.511294 C 61.31174,30.436621 57.118435,29.451346 52.475602,28.971865 51.275851,28.84795 48.609203,28.780126 46.170799,28.781611 z m 31.755102,5.14307 c 1.54826,-0.0039 3.025687,0.792104 3.889869,2.23226 1.473534,2.455701 0.265606,5.64599 -2.490912,6.576283 -1.819156,0.613949 -3.985545,-0.119766 -5.086264,-1.721759 -0.90343,-1.314836 -1.054913,-3.012353 -0.398797,-4.435974 0.372808,-0.808928 1.260094,-1.765908 1.981337,-2.133957 0.68052,-0.347311 1.401001,-0.515062 2.104767,-0.516853 z m -0.05065,1.31273 c -0.725551,0.01535 -1.46484,0.284904 -2.088927,0.849776 -0.952872,0.862399 -1.258883,2.42199 -0.708986,3.611564 0.451466,0.97668 1.306541,1.650626 2.304178,1.813703 1.414713,0.231276 2.754888,-0.428668 3.3423,-1.648817 0.401811,-0.834682 0.473387,-1.407468 0.272197,-2.194208 -0.399359,-1.561661 -1.735647,-2.461369 -3.120762,-2.432018 z m 0.740629,1.613943 c 0.537853,0 1.185018,0.336218 1.266031,0.659524 0.110061,0.439349 -0.03887,0.742834 -0.465263,0.960762 -0.658419,0.336523 -1.504729,0.241305 -2.000333,-0.225118 -0.611002,-0.575058 0.09423,-1.395168 1.199565,-1.395168 z" />
</svg>
