<?xml version="1.0" encoding="UTF-8" standalone="no"?>
<!-- Created with Inkscape (http://www.inkscape.org/) -->

<svg
   xmlns:dc="http://purl.org/dc/elements/1.1/"
   xmlns:cc="http://creativecommons.org/ns#"
   xmlns:rdf="http://www.w3.org/1999/02/22-rdf-syntax-ns#"
   xmlns:svg="http://www.w3.org/2000/svg"
   xmlns="http://www.w3.org/2000/svg"
   xmlns:xlink="http://www.w3.org/1999/xlink"
   xmlns:sodipodi="http://sodipodi.sourceforge.net/DTD/sodipodi-0.dtd"
   xmlns:inkscape="http://www.inkscape.org/namespaces/inkscape"
   version="1.0"
   width="96"
   height="96"
   id="svg2408"
   inkscape:version="0.48.4 r9939"
   sodipodi:docname="distributor-logo-ubuntu.svg">
  <sodipodi:namedview
     pagecolor="#ffffff"
     bordercolor="#666666"
     borderopacity="1"
     objecttolerance="10"
     gridtolerance="10"
     guidetolerance="10"
     inkscape:pageopacity="0"
     inkscape:pageshadow="2"
     inkscape:window-width="958"
     inkscape:window-height="1004"
     id="namedview51"
     showgrid="false"
     inkscape:zoom="2.4583333"
     inkscape:cx="-21.655105"
     inkscape:cy="50.385559"
     inkscape:window-x="960"
     inkscape:window-y="25"
     inkscape:window-maximized="0"
     inkscape:current-layer="svg2408" />
  <defs
     id="defs2410">
    <linearGradient
       x1="45.447727"
       y1="92.539597"
       x2="45.447727"
       y2="7.0165396"
       id="ButtonShadow"
       gradientUnits="userSpaceOnUse"
       gradientTransform="scale(1.0058652,0.994169)">
      <stop
         id="stop3750"
         style="stop-color:#000000;stop-opacity:1"
         offset="0" />
      <stop
         id="stop3752"
         style="stop-color:#000000;stop-opacity:0.58823532"
         offset="1" />
    </linearGradient>
    <linearGradient
       id="linearGradient3737">
      <stop
         id="stop3739"
         style="stop-color:#ffffff;stop-opacity:1"
         offset="0" />
      <stop
         id="stop3741"
         style="stop-color:#ffffff;stop-opacity:0"
         offset="1" />
    </linearGradient>
    <filter
       color-interpolation-filters="sRGB"
       id="filter3174">
      <feGaussianBlur
         id="feGaussianBlur3176"
         stdDeviation="1.71" />
    </filter>
    <linearGradient
       x1="36.357143"
       y1="6"
       x2="36.357143"
       y2="63.893143"
       id="linearGradient3188"
       xlink:href="#linearGradient3737"
       gradientUnits="userSpaceOnUse" />
    <filter
       x="-0.192"
       y="-0.192"
       width="1.3839999"
       height="1.3839999"
       color-interpolation-filters="sRGB"
       id="filter3794">
      <feGaussianBlur
         id="feGaussianBlur3796"
         stdDeviation="5.28" />
    </filter>
    <linearGradient
       x1="48"
       y1="20.220806"
       x2="48"
       y2="138.66119"
       id="linearGradient3613"
       xlink:href="#linearGradient3737"
       gradientUnits="userSpaceOnUse" />
    <radialGradient
       cx="48"
       cy="90.171875"
       r="42"
       fx="48"
       fy="90.171875"
       id="radialGradient3619"
       xlink:href="#linearGradient3737"
       gradientUnits="userSpaceOnUse"
       gradientTransform="matrix(1.1573129,0,0,0.99590774,-7.5510206,0.19713193)" />
    <clipPath
       id="clipPath3613">
      <rect
         width="84"
         height="84"
         rx="6"
         ry="6"
         x="6"
         y="6"
         id="rect3615"
         style="fill:#ffffff;fill-opacity:1;fill-rule:nonzero;stroke:none" />
    </clipPath>
    <linearGradient
       x1="48"
       y1="90"
       x2="48"
       y2="5.9877172"
       id="linearGradient3617"
       xlink:href="#linearGradient4057"
       gradientUnits="userSpaceOnUse" />
    <linearGradient
       x1="45.447727"
       y1="92.539597"
       x2="45.447727"
       y2="7.0165396"
       id="ButtonShadow-0"
       gradientUnits="userSpaceOnUse"
       gradientTransform="matrix(1.0058652,0,0,0.994169,100,0)">
      <stop
         id="stop3750-8"
         style="stop-color:#000000;stop-opacity:1"
         offset="0" />
      <stop
         id="stop3752-5"
         style="stop-color:#000000;stop-opacity:0.58823532"
         offset="1" />
    </linearGradient>
    <linearGradient
       x1="32.251034"
       y1="6.1317081"
       x2="32.251034"
       y2="90.238609"
       id="linearGradient3780"
       xlink:href="#ButtonShadow-0"
       gradientUnits="userSpaceOnUse"
       gradientTransform="matrix(1.0238095,0,0,1.0119048,-1.1428571,-98.071429)" />
    <linearGradient
       x1="32.251034"
       y1="6.1317081"
       x2="32.251034"
       y2="90.238609"
       id="linearGradient3772"
       xlink:href="#ButtonShadow-0"
       gradientUnits="userSpaceOnUse"
       gradientTransform="matrix(1.0238095,0,0,1.0119048,-1.1428571,-98.071429)" />
    <linearGradient
       x1="32.251034"
       y1="6.1317081"
       x2="32.251034"
       y2="90.238609"
       id="linearGradient3725"
       xlink:href="#ButtonShadow-0"
       gradientUnits="userSpaceOnUse"
       gradientTransform="matrix(1.0238095,0,0,1.0119048,-1.1428571,-98.071429)" />
    <linearGradient
       x1="32.251034"
       y1="6.1317081"
       x2="32.251034"
       y2="90.238609"
       id="linearGradient3721"
       xlink:href="#ButtonShadow-0"
       gradientUnits="userSpaceOnUse"
       gradientTransform="translate(0,-97)" />
    <linearGradient
       x1="32.251034"
       y1="6.1317081"
       x2="32.251034"
       y2="90.238609"
       id="linearGradient3026"
       xlink:href="#ButtonShadow-0"
       gradientUnits="userSpaceOnUse"
       gradientTransform="matrix(1.0238095,0,0,1.0119048,-1.1428571,-98.071429)" />
    <linearGradient
       id="linearGradient4057">
      <stop
         id="stop4059"
         style="stop-color:#dd481f;stop-opacity:0.94117647"
         offset="0" />
      <stop
         id="stop4061"
         style="stop-color:#ec6829;stop-opacity:0.94117647"
         offset="1" />
    </linearGradient>
  </defs>
  <metadata
     id="metadata2413">
    <rdf:RDF>
      <cc:Work
         rdf:about="">
        <dc:format>image/svg+xml</dc:format>
        <dc:type
           rdf:resource="http://purl.org/dc/dcmitype/StillImage" />
      </cc:Work>
    </rdf:RDF>
  </metadata>
  <g
     id="layer2"
     style="display:none">
    <rect
       width="86"
       height="85"
       rx="6"
       ry="6"
       x="5"
       y="7"
       id="rect3745"
       style="opacity:0.9;fill:url(#ButtonShadow);fill-opacity:1;fill-rule:nonzero;stroke:none;filter:url(#filter3174)" />
  </g>
  <g
     id="layer1">
    <rect
       width="84"
       height="84"
       rx="6"
       ry="6"
       x="6"
       y="6"
       id="rect2419"
       style="fill:#e55a28;fill-opacity:0.94117647;fill-rule:nonzero;stroke:none" />
    <path
       d="m 61.195972,17.5 c -3.39725,0 -6.148105,2.765875 -6.148105,6.175575 0,3.409702 2.750855,6.175576 6.148105,6.175576 3.397249,0 6.148104,-2.765874 6.148104,-6.175576 0,-3.4097 -2.750855,-6.175575 -6.148104,-6.175575 z m -12.984108,4.836815 c -3.791558,4.94e-4 -7.635678,0.961696 -11.092383,2.677522 -0.122927,0.06124 -0.199587,0.169934 -0.236466,0.3023 -0.03737,0.132366 -0.02978,0.272112 0.04299,0.388673 l 4.987273,7.924602 c 0.126369,0.201513 0.383102,0.286697 0.601912,0.194336 1.845871,-0.783826 3.761308,-1.166017 5.69667,-1.166017 7.118944,0 13.329718,5.298822 14.445894,12.329556 0.03737,0.236088 0.235436,0.410267 0.472931,0.410267 l 9.372634,0 c 0.136694,0 0.273497,-0.0494 0.365447,-0.151151 0.09195,-0.101744 0.141765,-0.229774 0.128981,-0.36708 -0.505476,-5.216622 -2.725758,-10.267413 -6.234091,-14.186548 -0.15833,-0.177806 -0.423285,-0.194676 -0.62341,-0.06478 -1.414643,0.917674 -3.019703,1.403539 -4.643322,1.403539 -4.736621,0 -8.576759,-3.865338 -8.577251,-8.593982 4.92e-4,-0.0024 0,-0.16484 0,-0.172743 0,-0.235593 -0.175862,-0.456137 -0.408439,-0.496638 -1.481024,-0.257818 -2.918659,-0.431858 -4.299374,-0.431858 z m -15.047807,5.1823 c -0.0649,0.01599 -0.14012,0.04464 -0.193471,0.08637 -4.065439,3.145185 -7.114281,7.56847 -8.598747,12.459115 -0.05802,0.191142 -0.0063,0.393766 0.150478,0.51823 2.043045,1.625441 3.267524,4.127476 3.267524,6.693805 0,2.566329 -1.223986,5.068365 -3.267524,6.693805 -0.155871,0.123969 -0.2085,0.326596 -0.150478,0.51823 1.472665,4.849651 4.497475,9.256065 8.512759,12.394336 0.107685,0.08446 0.230719,0.131672 0.365447,0.107964 0.134237,-0.02321 0.249188,-0.122441 0.322453,-0.237521 l 5.030267,-7.903009 c 0.128336,-0.202007 0.09349,-0.467651 -0.08599,-0.626196 -3.151355,-2.785128 -4.965777,-6.77856 -4.965777,-10.94761 0,-4.200166 1.824471,-8.204679 5.00877,-10.990795 0.179474,-0.157556 0.234837,-0.423201 0.107484,-0.626196 l -4.987273,-7.9246 c -0.07277,-0.115575 -0.188216,-0.192223 -0.322453,-0.21593 -0.06712,-0.01184 -0.128566,-0.01599 -0.193472,0 z M 19.298579,41.07947 c -3.476817,0 -6.298582,2.836828 -6.298582,6.326725 0,3.489897 2.821765,6.305132 6.298582,6.305132 3.476817,0 6.298582,-2.815235 6.298582,-6.305132 0,-3.489897 -2.821765,-6.326725 -6.298582,-6.326725 z m 53.204744,8.162122 -9.372634,0.0216 c -0.23651,4.94e-4 -0.456566,0.176154 -0.494427,0.410265 -1.13142,6.97838 -7.325122,12.243187 -14.424398,12.243187 -1.957981,0 -3.894638,-0.406116 -5.76116,-1.209204 -0.218318,-0.09335 -0.473576,-0.02729 -0.601912,0.172742 l -5.030267,7.924603 c -0.07326,0.116068 -0.07938,0.255812 -0.04299,0.388672 0.03638,0.132366 0.114031,0.241056 0.236466,0.302301 3.483749,1.75188 7.364547,2.677521 11.199867,2.677521 1.42251,0 2.907641,-0.143062 4.406858,-0.410265 0.210451,-0.03705 0.361867,-0.197393 0.386944,-0.410265 0.499575,-4.334014 4.1485,-7.600708 8.491262,-7.600708 1.346296,0 2.731916,0.34132 3.97692,0.993274 0.189307,0.09927 0.408947,0.06723 0.558918,-0.08637 3.926287,-4.021866 6.408372,-9.324414 6.964985,-14.899116 0.01377,-0.136812 -0.03654,-0.264841 -0.128981,-0.367079 -0.09244,-0.102237 -0.228752,-0.151644 -0.365447,-0.151151 z M 61.432437,65.932921 c -3.476817,0 -6.298582,2.811646 -6.298582,6.283539 0,3.471894 2.821765,6.28354 6.298582,6.28354 3.476817,0 6.298582,-2.811646 6.298582,-6.28354 0,-3.471893 -2.821765,-6.283539 -6.298582,-6.283539 z"
       inkscape:connector-curvature="0"
       id="path3324"
       style="fill:#ffffff;overflow:visible" />
  </g>
  <g
     id="layer5" />
</svg>
